G04 #@! TF.GenerationSoftware,KiCad,Pcbnew,(5.1.5)-3*
G04 #@! TF.CreationDate,2020-10-29T10:50:42+02:00*
G04 #@! TF.ProjectId,al8843,616c3838-3433-42e6-9b69-6361645f7063,rev?*
G04 #@! TF.SameCoordinates,Original*
G04 #@! TF.FileFunction,Copper,L1,Top*
G04 #@! TF.FilePolarity,Positive*
%FSLAX46Y46*%
G04 Gerber Fmt 4.6, Leading zero omitted, Abs format (unit mm)*
G04 Created by KiCad (PCBNEW (5.1.5)-3) date 2020-10-29 10:50:42*
%MOMM*%
%LPD*%
G04 APERTURE LIST*
%ADD10C,0.100000*%
%ADD11R,2.300000X2.500000*%
%ADD12O,1.750000X1.200000*%
%ADD13C,4.000000*%
%ADD14R,2.900000X5.400000*%
%ADD15C,3.000000*%
%ADD16C,0.500000*%
%ADD17C,0.800000*%
%ADD18C,0.250000*%
%ADD19C,0.700000*%
%ADD20C,0.500000*%
%ADD21C,0.300000*%
%ADD22C,0.254000*%
G04 APERTURE END LIST*
G04 #@! TA.AperFunction,SMDPad,CuDef*
D10*
G36*
X130749504Y-34076204D02*
G01*
X130773773Y-34079804D01*
X130797571Y-34085765D01*
X130820671Y-34094030D01*
X130842849Y-34104520D01*
X130863893Y-34117133D01*
X130883598Y-34131747D01*
X130901777Y-34148223D01*
X130918253Y-34166402D01*
X130932867Y-34186107D01*
X130945480Y-34207151D01*
X130955970Y-34229329D01*
X130964235Y-34252429D01*
X130970196Y-34276227D01*
X130973796Y-34300496D01*
X130975000Y-34325000D01*
X130975000Y-35075000D01*
X130973796Y-35099504D01*
X130970196Y-35123773D01*
X130964235Y-35147571D01*
X130955970Y-35170671D01*
X130945480Y-35192849D01*
X130932867Y-35213893D01*
X130918253Y-35233598D01*
X130901777Y-35251777D01*
X130883598Y-35268253D01*
X130863893Y-35282867D01*
X130842849Y-35295480D01*
X130820671Y-35305970D01*
X130797571Y-35314235D01*
X130773773Y-35320196D01*
X130749504Y-35323796D01*
X130725000Y-35325000D01*
X129475000Y-35325000D01*
X129450496Y-35323796D01*
X129426227Y-35320196D01*
X129402429Y-35314235D01*
X129379329Y-35305970D01*
X129357151Y-35295480D01*
X129336107Y-35282867D01*
X129316402Y-35268253D01*
X129298223Y-35251777D01*
X129281747Y-35233598D01*
X129267133Y-35213893D01*
X129254520Y-35192849D01*
X129244030Y-35170671D01*
X129235765Y-35147571D01*
X129229804Y-35123773D01*
X129226204Y-35099504D01*
X129225000Y-35075000D01*
X129225000Y-34325000D01*
X129226204Y-34300496D01*
X129229804Y-34276227D01*
X129235765Y-34252429D01*
X129244030Y-34229329D01*
X129254520Y-34207151D01*
X129267133Y-34186107D01*
X129281747Y-34166402D01*
X129298223Y-34148223D01*
X129316402Y-34131747D01*
X129336107Y-34117133D01*
X129357151Y-34104520D01*
X129379329Y-34094030D01*
X129402429Y-34085765D01*
X129426227Y-34079804D01*
X129450496Y-34076204D01*
X129475000Y-34075000D01*
X130725000Y-34075000D01*
X130749504Y-34076204D01*
G37*
G04 #@! TD.AperFunction*
G04 #@! TA.AperFunction,SMDPad,CuDef*
G36*
X130749504Y-36876204D02*
G01*
X130773773Y-36879804D01*
X130797571Y-36885765D01*
X130820671Y-36894030D01*
X130842849Y-36904520D01*
X130863893Y-36917133D01*
X130883598Y-36931747D01*
X130901777Y-36948223D01*
X130918253Y-36966402D01*
X130932867Y-36986107D01*
X130945480Y-37007151D01*
X130955970Y-37029329D01*
X130964235Y-37052429D01*
X130970196Y-37076227D01*
X130973796Y-37100496D01*
X130975000Y-37125000D01*
X130975000Y-37875000D01*
X130973796Y-37899504D01*
X130970196Y-37923773D01*
X130964235Y-37947571D01*
X130955970Y-37970671D01*
X130945480Y-37992849D01*
X130932867Y-38013893D01*
X130918253Y-38033598D01*
X130901777Y-38051777D01*
X130883598Y-38068253D01*
X130863893Y-38082867D01*
X130842849Y-38095480D01*
X130820671Y-38105970D01*
X130797571Y-38114235D01*
X130773773Y-38120196D01*
X130749504Y-38123796D01*
X130725000Y-38125000D01*
X129475000Y-38125000D01*
X129450496Y-38123796D01*
X129426227Y-38120196D01*
X129402429Y-38114235D01*
X129379329Y-38105970D01*
X129357151Y-38095480D01*
X129336107Y-38082867D01*
X129316402Y-38068253D01*
X129298223Y-38051777D01*
X129281747Y-38033598D01*
X129267133Y-38013893D01*
X129254520Y-37992849D01*
X129244030Y-37970671D01*
X129235765Y-37947571D01*
X129229804Y-37923773D01*
X129226204Y-37899504D01*
X129225000Y-37875000D01*
X129225000Y-37125000D01*
X129226204Y-37100496D01*
X129229804Y-37076227D01*
X129235765Y-37052429D01*
X129244030Y-37029329D01*
X129254520Y-37007151D01*
X129267133Y-36986107D01*
X129281747Y-36966402D01*
X129298223Y-36948223D01*
X129316402Y-36931747D01*
X129336107Y-36917133D01*
X129357151Y-36904520D01*
X129379329Y-36894030D01*
X129402429Y-36885765D01*
X129426227Y-36879804D01*
X129450496Y-36876204D01*
X129475000Y-36875000D01*
X130725000Y-36875000D01*
X130749504Y-36876204D01*
G37*
G04 #@! TD.AperFunction*
G04 #@! TA.AperFunction,SMDPad,CuDef*
G36*
X128349504Y-36876204D02*
G01*
X128373773Y-36879804D01*
X128397571Y-36885765D01*
X128420671Y-36894030D01*
X128442849Y-36904520D01*
X128463893Y-36917133D01*
X128483598Y-36931747D01*
X128501777Y-36948223D01*
X128518253Y-36966402D01*
X128532867Y-36986107D01*
X128545480Y-37007151D01*
X128555970Y-37029329D01*
X128564235Y-37052429D01*
X128570196Y-37076227D01*
X128573796Y-37100496D01*
X128575000Y-37125000D01*
X128575000Y-37875000D01*
X128573796Y-37899504D01*
X128570196Y-37923773D01*
X128564235Y-37947571D01*
X128555970Y-37970671D01*
X128545480Y-37992849D01*
X128532867Y-38013893D01*
X128518253Y-38033598D01*
X128501777Y-38051777D01*
X128483598Y-38068253D01*
X128463893Y-38082867D01*
X128442849Y-38095480D01*
X128420671Y-38105970D01*
X128397571Y-38114235D01*
X128373773Y-38120196D01*
X128349504Y-38123796D01*
X128325000Y-38125000D01*
X127075000Y-38125000D01*
X127050496Y-38123796D01*
X127026227Y-38120196D01*
X127002429Y-38114235D01*
X126979329Y-38105970D01*
X126957151Y-38095480D01*
X126936107Y-38082867D01*
X126916402Y-38068253D01*
X126898223Y-38051777D01*
X126881747Y-38033598D01*
X126867133Y-38013893D01*
X126854520Y-37992849D01*
X126844030Y-37970671D01*
X126835765Y-37947571D01*
X126829804Y-37923773D01*
X126826204Y-37899504D01*
X126825000Y-37875000D01*
X126825000Y-37125000D01*
X126826204Y-37100496D01*
X126829804Y-37076227D01*
X126835765Y-37052429D01*
X126844030Y-37029329D01*
X126854520Y-37007151D01*
X126867133Y-36986107D01*
X126881747Y-36966402D01*
X126898223Y-36948223D01*
X126916402Y-36931747D01*
X126936107Y-36917133D01*
X126957151Y-36904520D01*
X126979329Y-36894030D01*
X127002429Y-36885765D01*
X127026227Y-36879804D01*
X127050496Y-36876204D01*
X127075000Y-36875000D01*
X128325000Y-36875000D01*
X128349504Y-36876204D01*
G37*
G04 #@! TD.AperFunction*
G04 #@! TA.AperFunction,SMDPad,CuDef*
G36*
X128349504Y-34076204D02*
G01*
X128373773Y-34079804D01*
X128397571Y-34085765D01*
X128420671Y-34094030D01*
X128442849Y-34104520D01*
X128463893Y-34117133D01*
X128483598Y-34131747D01*
X128501777Y-34148223D01*
X128518253Y-34166402D01*
X128532867Y-34186107D01*
X128545480Y-34207151D01*
X128555970Y-34229329D01*
X128564235Y-34252429D01*
X128570196Y-34276227D01*
X128573796Y-34300496D01*
X128575000Y-34325000D01*
X128575000Y-35075000D01*
X128573796Y-35099504D01*
X128570196Y-35123773D01*
X128564235Y-35147571D01*
X128555970Y-35170671D01*
X128545480Y-35192849D01*
X128532867Y-35213893D01*
X128518253Y-35233598D01*
X128501777Y-35251777D01*
X128483598Y-35268253D01*
X128463893Y-35282867D01*
X128442849Y-35295480D01*
X128420671Y-35305970D01*
X128397571Y-35314235D01*
X128373773Y-35320196D01*
X128349504Y-35323796D01*
X128325000Y-35325000D01*
X127075000Y-35325000D01*
X127050496Y-35323796D01*
X127026227Y-35320196D01*
X127002429Y-35314235D01*
X126979329Y-35305970D01*
X126957151Y-35295480D01*
X126936107Y-35282867D01*
X126916402Y-35268253D01*
X126898223Y-35251777D01*
X126881747Y-35233598D01*
X126867133Y-35213893D01*
X126854520Y-35192849D01*
X126844030Y-35170671D01*
X126835765Y-35147571D01*
X126829804Y-35123773D01*
X126826204Y-35099504D01*
X126825000Y-35075000D01*
X126825000Y-34325000D01*
X126826204Y-34300496D01*
X126829804Y-34276227D01*
X126835765Y-34252429D01*
X126844030Y-34229329D01*
X126854520Y-34207151D01*
X126867133Y-34186107D01*
X126881747Y-34166402D01*
X126898223Y-34148223D01*
X126916402Y-34131747D01*
X126936107Y-34117133D01*
X126957151Y-34104520D01*
X126979329Y-34094030D01*
X127002429Y-34085765D01*
X127026227Y-34079804D01*
X127050496Y-34076204D01*
X127075000Y-34075000D01*
X128325000Y-34075000D01*
X128349504Y-34076204D01*
G37*
G04 #@! TD.AperFunction*
G04 #@! TA.AperFunction,SMDPad,CuDef*
G36*
X140749504Y-33476204D02*
G01*
X140773773Y-33479804D01*
X140797571Y-33485765D01*
X140820671Y-33494030D01*
X140842849Y-33504520D01*
X140863893Y-33517133D01*
X140883598Y-33531747D01*
X140901777Y-33548223D01*
X140918253Y-33566402D01*
X140932867Y-33586107D01*
X140945480Y-33607151D01*
X140955970Y-33629329D01*
X140964235Y-33652429D01*
X140970196Y-33676227D01*
X140973796Y-33700496D01*
X140975000Y-33725000D01*
X140975000Y-34475000D01*
X140973796Y-34499504D01*
X140970196Y-34523773D01*
X140964235Y-34547571D01*
X140955970Y-34570671D01*
X140945480Y-34592849D01*
X140932867Y-34613893D01*
X140918253Y-34633598D01*
X140901777Y-34651777D01*
X140883598Y-34668253D01*
X140863893Y-34682867D01*
X140842849Y-34695480D01*
X140820671Y-34705970D01*
X140797571Y-34714235D01*
X140773773Y-34720196D01*
X140749504Y-34723796D01*
X140725000Y-34725000D01*
X139475000Y-34725000D01*
X139450496Y-34723796D01*
X139426227Y-34720196D01*
X139402429Y-34714235D01*
X139379329Y-34705970D01*
X139357151Y-34695480D01*
X139336107Y-34682867D01*
X139316402Y-34668253D01*
X139298223Y-34651777D01*
X139281747Y-34633598D01*
X139267133Y-34613893D01*
X139254520Y-34592849D01*
X139244030Y-34570671D01*
X139235765Y-34547571D01*
X139229804Y-34523773D01*
X139226204Y-34499504D01*
X139225000Y-34475000D01*
X139225000Y-33725000D01*
X139226204Y-33700496D01*
X139229804Y-33676227D01*
X139235765Y-33652429D01*
X139244030Y-33629329D01*
X139254520Y-33607151D01*
X139267133Y-33586107D01*
X139281747Y-33566402D01*
X139298223Y-33548223D01*
X139316402Y-33531747D01*
X139336107Y-33517133D01*
X139357151Y-33504520D01*
X139379329Y-33494030D01*
X139402429Y-33485765D01*
X139426227Y-33479804D01*
X139450496Y-33476204D01*
X139475000Y-33475000D01*
X140725000Y-33475000D01*
X140749504Y-33476204D01*
G37*
G04 #@! TD.AperFunction*
G04 #@! TA.AperFunction,SMDPad,CuDef*
G36*
X140749504Y-36276204D02*
G01*
X140773773Y-36279804D01*
X140797571Y-36285765D01*
X140820671Y-36294030D01*
X140842849Y-36304520D01*
X140863893Y-36317133D01*
X140883598Y-36331747D01*
X140901777Y-36348223D01*
X140918253Y-36366402D01*
X140932867Y-36386107D01*
X140945480Y-36407151D01*
X140955970Y-36429329D01*
X140964235Y-36452429D01*
X140970196Y-36476227D01*
X140973796Y-36500496D01*
X140975000Y-36525000D01*
X140975000Y-37275000D01*
X140973796Y-37299504D01*
X140970196Y-37323773D01*
X140964235Y-37347571D01*
X140955970Y-37370671D01*
X140945480Y-37392849D01*
X140932867Y-37413893D01*
X140918253Y-37433598D01*
X140901777Y-37451777D01*
X140883598Y-37468253D01*
X140863893Y-37482867D01*
X140842849Y-37495480D01*
X140820671Y-37505970D01*
X140797571Y-37514235D01*
X140773773Y-37520196D01*
X140749504Y-37523796D01*
X140725000Y-37525000D01*
X139475000Y-37525000D01*
X139450496Y-37523796D01*
X139426227Y-37520196D01*
X139402429Y-37514235D01*
X139379329Y-37505970D01*
X139357151Y-37495480D01*
X139336107Y-37482867D01*
X139316402Y-37468253D01*
X139298223Y-37451777D01*
X139281747Y-37433598D01*
X139267133Y-37413893D01*
X139254520Y-37392849D01*
X139244030Y-37370671D01*
X139235765Y-37347571D01*
X139229804Y-37323773D01*
X139226204Y-37299504D01*
X139225000Y-37275000D01*
X139225000Y-36525000D01*
X139226204Y-36500496D01*
X139229804Y-36476227D01*
X139235765Y-36452429D01*
X139244030Y-36429329D01*
X139254520Y-36407151D01*
X139267133Y-36386107D01*
X139281747Y-36366402D01*
X139298223Y-36348223D01*
X139316402Y-36331747D01*
X139336107Y-36317133D01*
X139357151Y-36304520D01*
X139379329Y-36294030D01*
X139402429Y-36285765D01*
X139426227Y-36279804D01*
X139450496Y-36276204D01*
X139475000Y-36275000D01*
X140725000Y-36275000D01*
X140749504Y-36276204D01*
G37*
G04 #@! TD.AperFunction*
G04 #@! TA.AperFunction,SMDPad,CuDef*
G36*
X138249504Y-33476204D02*
G01*
X138273773Y-33479804D01*
X138297571Y-33485765D01*
X138320671Y-33494030D01*
X138342849Y-33504520D01*
X138363893Y-33517133D01*
X138383598Y-33531747D01*
X138401777Y-33548223D01*
X138418253Y-33566402D01*
X138432867Y-33586107D01*
X138445480Y-33607151D01*
X138455970Y-33629329D01*
X138464235Y-33652429D01*
X138470196Y-33676227D01*
X138473796Y-33700496D01*
X138475000Y-33725000D01*
X138475000Y-34475000D01*
X138473796Y-34499504D01*
X138470196Y-34523773D01*
X138464235Y-34547571D01*
X138455970Y-34570671D01*
X138445480Y-34592849D01*
X138432867Y-34613893D01*
X138418253Y-34633598D01*
X138401777Y-34651777D01*
X138383598Y-34668253D01*
X138363893Y-34682867D01*
X138342849Y-34695480D01*
X138320671Y-34705970D01*
X138297571Y-34714235D01*
X138273773Y-34720196D01*
X138249504Y-34723796D01*
X138225000Y-34725000D01*
X136975000Y-34725000D01*
X136950496Y-34723796D01*
X136926227Y-34720196D01*
X136902429Y-34714235D01*
X136879329Y-34705970D01*
X136857151Y-34695480D01*
X136836107Y-34682867D01*
X136816402Y-34668253D01*
X136798223Y-34651777D01*
X136781747Y-34633598D01*
X136767133Y-34613893D01*
X136754520Y-34592849D01*
X136744030Y-34570671D01*
X136735765Y-34547571D01*
X136729804Y-34523773D01*
X136726204Y-34499504D01*
X136725000Y-34475000D01*
X136725000Y-33725000D01*
X136726204Y-33700496D01*
X136729804Y-33676227D01*
X136735765Y-33652429D01*
X136744030Y-33629329D01*
X136754520Y-33607151D01*
X136767133Y-33586107D01*
X136781747Y-33566402D01*
X136798223Y-33548223D01*
X136816402Y-33531747D01*
X136836107Y-33517133D01*
X136857151Y-33504520D01*
X136879329Y-33494030D01*
X136902429Y-33485765D01*
X136926227Y-33479804D01*
X136950496Y-33476204D01*
X136975000Y-33475000D01*
X138225000Y-33475000D01*
X138249504Y-33476204D01*
G37*
G04 #@! TD.AperFunction*
G04 #@! TA.AperFunction,SMDPad,CuDef*
G36*
X138249504Y-36276204D02*
G01*
X138273773Y-36279804D01*
X138297571Y-36285765D01*
X138320671Y-36294030D01*
X138342849Y-36304520D01*
X138363893Y-36317133D01*
X138383598Y-36331747D01*
X138401777Y-36348223D01*
X138418253Y-36366402D01*
X138432867Y-36386107D01*
X138445480Y-36407151D01*
X138455970Y-36429329D01*
X138464235Y-36452429D01*
X138470196Y-36476227D01*
X138473796Y-36500496D01*
X138475000Y-36525000D01*
X138475000Y-37275000D01*
X138473796Y-37299504D01*
X138470196Y-37323773D01*
X138464235Y-37347571D01*
X138455970Y-37370671D01*
X138445480Y-37392849D01*
X138432867Y-37413893D01*
X138418253Y-37433598D01*
X138401777Y-37451777D01*
X138383598Y-37468253D01*
X138363893Y-37482867D01*
X138342849Y-37495480D01*
X138320671Y-37505970D01*
X138297571Y-37514235D01*
X138273773Y-37520196D01*
X138249504Y-37523796D01*
X138225000Y-37525000D01*
X136975000Y-37525000D01*
X136950496Y-37523796D01*
X136926227Y-37520196D01*
X136902429Y-37514235D01*
X136879329Y-37505970D01*
X136857151Y-37495480D01*
X136836107Y-37482867D01*
X136816402Y-37468253D01*
X136798223Y-37451777D01*
X136781747Y-37433598D01*
X136767133Y-37413893D01*
X136754520Y-37392849D01*
X136744030Y-37370671D01*
X136735765Y-37347571D01*
X136729804Y-37323773D01*
X136726204Y-37299504D01*
X136725000Y-37275000D01*
X136725000Y-36525000D01*
X136726204Y-36500496D01*
X136729804Y-36476227D01*
X136735765Y-36452429D01*
X136744030Y-36429329D01*
X136754520Y-36407151D01*
X136767133Y-36386107D01*
X136781747Y-36366402D01*
X136798223Y-36348223D01*
X136816402Y-36331747D01*
X136836107Y-36317133D01*
X136857151Y-36304520D01*
X136879329Y-36294030D01*
X136902429Y-36285765D01*
X136926227Y-36279804D01*
X136950496Y-36276204D01*
X136975000Y-36275000D01*
X138225000Y-36275000D01*
X138249504Y-36276204D01*
G37*
G04 #@! TD.AperFunction*
G04 #@! TA.AperFunction,SMDPad,CuDef*
G36*
X156549504Y-41176204D02*
G01*
X156573773Y-41179804D01*
X156597571Y-41185765D01*
X156620671Y-41194030D01*
X156642849Y-41204520D01*
X156663893Y-41217133D01*
X156683598Y-41231747D01*
X156701777Y-41248223D01*
X156718253Y-41266402D01*
X156732867Y-41286107D01*
X156745480Y-41307151D01*
X156755970Y-41329329D01*
X156764235Y-41352429D01*
X156770196Y-41376227D01*
X156773796Y-41400496D01*
X156775000Y-41425000D01*
X156775000Y-42175000D01*
X156773796Y-42199504D01*
X156770196Y-42223773D01*
X156764235Y-42247571D01*
X156755970Y-42270671D01*
X156745480Y-42292849D01*
X156732867Y-42313893D01*
X156718253Y-42333598D01*
X156701777Y-42351777D01*
X156683598Y-42368253D01*
X156663893Y-42382867D01*
X156642849Y-42395480D01*
X156620671Y-42405970D01*
X156597571Y-42414235D01*
X156573773Y-42420196D01*
X156549504Y-42423796D01*
X156525000Y-42425000D01*
X155275000Y-42425000D01*
X155250496Y-42423796D01*
X155226227Y-42420196D01*
X155202429Y-42414235D01*
X155179329Y-42405970D01*
X155157151Y-42395480D01*
X155136107Y-42382867D01*
X155116402Y-42368253D01*
X155098223Y-42351777D01*
X155081747Y-42333598D01*
X155067133Y-42313893D01*
X155054520Y-42292849D01*
X155044030Y-42270671D01*
X155035765Y-42247571D01*
X155029804Y-42223773D01*
X155026204Y-42199504D01*
X155025000Y-42175000D01*
X155025000Y-41425000D01*
X155026204Y-41400496D01*
X155029804Y-41376227D01*
X155035765Y-41352429D01*
X155044030Y-41329329D01*
X155054520Y-41307151D01*
X155067133Y-41286107D01*
X155081747Y-41266402D01*
X155098223Y-41248223D01*
X155116402Y-41231747D01*
X155136107Y-41217133D01*
X155157151Y-41204520D01*
X155179329Y-41194030D01*
X155202429Y-41185765D01*
X155226227Y-41179804D01*
X155250496Y-41176204D01*
X155275000Y-41175000D01*
X156525000Y-41175000D01*
X156549504Y-41176204D01*
G37*
G04 #@! TD.AperFunction*
G04 #@! TA.AperFunction,SMDPad,CuDef*
G36*
X156549504Y-38376204D02*
G01*
X156573773Y-38379804D01*
X156597571Y-38385765D01*
X156620671Y-38394030D01*
X156642849Y-38404520D01*
X156663893Y-38417133D01*
X156683598Y-38431747D01*
X156701777Y-38448223D01*
X156718253Y-38466402D01*
X156732867Y-38486107D01*
X156745480Y-38507151D01*
X156755970Y-38529329D01*
X156764235Y-38552429D01*
X156770196Y-38576227D01*
X156773796Y-38600496D01*
X156775000Y-38625000D01*
X156775000Y-39375000D01*
X156773796Y-39399504D01*
X156770196Y-39423773D01*
X156764235Y-39447571D01*
X156755970Y-39470671D01*
X156745480Y-39492849D01*
X156732867Y-39513893D01*
X156718253Y-39533598D01*
X156701777Y-39551777D01*
X156683598Y-39568253D01*
X156663893Y-39582867D01*
X156642849Y-39595480D01*
X156620671Y-39605970D01*
X156597571Y-39614235D01*
X156573773Y-39620196D01*
X156549504Y-39623796D01*
X156525000Y-39625000D01*
X155275000Y-39625000D01*
X155250496Y-39623796D01*
X155226227Y-39620196D01*
X155202429Y-39614235D01*
X155179329Y-39605970D01*
X155157151Y-39595480D01*
X155136107Y-39582867D01*
X155116402Y-39568253D01*
X155098223Y-39551777D01*
X155081747Y-39533598D01*
X155067133Y-39513893D01*
X155054520Y-39492849D01*
X155044030Y-39470671D01*
X155035765Y-39447571D01*
X155029804Y-39423773D01*
X155026204Y-39399504D01*
X155025000Y-39375000D01*
X155025000Y-38625000D01*
X155026204Y-38600496D01*
X155029804Y-38576227D01*
X155035765Y-38552429D01*
X155044030Y-38529329D01*
X155054520Y-38507151D01*
X155067133Y-38486107D01*
X155081747Y-38466402D01*
X155098223Y-38448223D01*
X155116402Y-38431747D01*
X155136107Y-38417133D01*
X155157151Y-38404520D01*
X155179329Y-38394030D01*
X155202429Y-38385765D01*
X155226227Y-38379804D01*
X155250496Y-38376204D01*
X155275000Y-38375000D01*
X156525000Y-38375000D01*
X156549504Y-38376204D01*
G37*
G04 #@! TD.AperFunction*
G04 #@! TA.AperFunction,SMDPad,CuDef*
G36*
X159049504Y-41176204D02*
G01*
X159073773Y-41179804D01*
X159097571Y-41185765D01*
X159120671Y-41194030D01*
X159142849Y-41204520D01*
X159163893Y-41217133D01*
X159183598Y-41231747D01*
X159201777Y-41248223D01*
X159218253Y-41266402D01*
X159232867Y-41286107D01*
X159245480Y-41307151D01*
X159255970Y-41329329D01*
X159264235Y-41352429D01*
X159270196Y-41376227D01*
X159273796Y-41400496D01*
X159275000Y-41425000D01*
X159275000Y-42175000D01*
X159273796Y-42199504D01*
X159270196Y-42223773D01*
X159264235Y-42247571D01*
X159255970Y-42270671D01*
X159245480Y-42292849D01*
X159232867Y-42313893D01*
X159218253Y-42333598D01*
X159201777Y-42351777D01*
X159183598Y-42368253D01*
X159163893Y-42382867D01*
X159142849Y-42395480D01*
X159120671Y-42405970D01*
X159097571Y-42414235D01*
X159073773Y-42420196D01*
X159049504Y-42423796D01*
X159025000Y-42425000D01*
X157775000Y-42425000D01*
X157750496Y-42423796D01*
X157726227Y-42420196D01*
X157702429Y-42414235D01*
X157679329Y-42405970D01*
X157657151Y-42395480D01*
X157636107Y-42382867D01*
X157616402Y-42368253D01*
X157598223Y-42351777D01*
X157581747Y-42333598D01*
X157567133Y-42313893D01*
X157554520Y-42292849D01*
X157544030Y-42270671D01*
X157535765Y-42247571D01*
X157529804Y-42223773D01*
X157526204Y-42199504D01*
X157525000Y-42175000D01*
X157525000Y-41425000D01*
X157526204Y-41400496D01*
X157529804Y-41376227D01*
X157535765Y-41352429D01*
X157544030Y-41329329D01*
X157554520Y-41307151D01*
X157567133Y-41286107D01*
X157581747Y-41266402D01*
X157598223Y-41248223D01*
X157616402Y-41231747D01*
X157636107Y-41217133D01*
X157657151Y-41204520D01*
X157679329Y-41194030D01*
X157702429Y-41185765D01*
X157726227Y-41179804D01*
X157750496Y-41176204D01*
X157775000Y-41175000D01*
X159025000Y-41175000D01*
X159049504Y-41176204D01*
G37*
G04 #@! TD.AperFunction*
G04 #@! TA.AperFunction,SMDPad,CuDef*
G36*
X159049504Y-38376204D02*
G01*
X159073773Y-38379804D01*
X159097571Y-38385765D01*
X159120671Y-38394030D01*
X159142849Y-38404520D01*
X159163893Y-38417133D01*
X159183598Y-38431747D01*
X159201777Y-38448223D01*
X159218253Y-38466402D01*
X159232867Y-38486107D01*
X159245480Y-38507151D01*
X159255970Y-38529329D01*
X159264235Y-38552429D01*
X159270196Y-38576227D01*
X159273796Y-38600496D01*
X159275000Y-38625000D01*
X159275000Y-39375000D01*
X159273796Y-39399504D01*
X159270196Y-39423773D01*
X159264235Y-39447571D01*
X159255970Y-39470671D01*
X159245480Y-39492849D01*
X159232867Y-39513893D01*
X159218253Y-39533598D01*
X159201777Y-39551777D01*
X159183598Y-39568253D01*
X159163893Y-39582867D01*
X159142849Y-39595480D01*
X159120671Y-39605970D01*
X159097571Y-39614235D01*
X159073773Y-39620196D01*
X159049504Y-39623796D01*
X159025000Y-39625000D01*
X157775000Y-39625000D01*
X157750496Y-39623796D01*
X157726227Y-39620196D01*
X157702429Y-39614235D01*
X157679329Y-39605970D01*
X157657151Y-39595480D01*
X157636107Y-39582867D01*
X157616402Y-39568253D01*
X157598223Y-39551777D01*
X157581747Y-39533598D01*
X157567133Y-39513893D01*
X157554520Y-39492849D01*
X157544030Y-39470671D01*
X157535765Y-39447571D01*
X157529804Y-39423773D01*
X157526204Y-39399504D01*
X157525000Y-39375000D01*
X157525000Y-38625000D01*
X157526204Y-38600496D01*
X157529804Y-38576227D01*
X157535765Y-38552429D01*
X157544030Y-38529329D01*
X157554520Y-38507151D01*
X157567133Y-38486107D01*
X157581747Y-38466402D01*
X157598223Y-38448223D01*
X157616402Y-38431747D01*
X157636107Y-38417133D01*
X157657151Y-38404520D01*
X157679329Y-38394030D01*
X157702429Y-38385765D01*
X157726227Y-38379804D01*
X157750496Y-38376204D01*
X157775000Y-38375000D01*
X159025000Y-38375000D01*
X159049504Y-38376204D01*
G37*
G04 #@! TD.AperFunction*
D11*
X134000000Y-34700000D03*
X134000000Y-39000000D03*
G04 #@! TA.AperFunction,ComponentPad*
D10*
G36*
X124449505Y-34101204D02*
G01*
X124473773Y-34104804D01*
X124497572Y-34110765D01*
X124520671Y-34119030D01*
X124542850Y-34129520D01*
X124563893Y-34142132D01*
X124583599Y-34156747D01*
X124601777Y-34173223D01*
X124618253Y-34191401D01*
X124632868Y-34211107D01*
X124645480Y-34232150D01*
X124655970Y-34254329D01*
X124664235Y-34277428D01*
X124670196Y-34301227D01*
X124673796Y-34325495D01*
X124675000Y-34349999D01*
X124675000Y-35050001D01*
X124673796Y-35074505D01*
X124670196Y-35098773D01*
X124664235Y-35122572D01*
X124655970Y-35145671D01*
X124645480Y-35167850D01*
X124632868Y-35188893D01*
X124618253Y-35208599D01*
X124601777Y-35226777D01*
X124583599Y-35243253D01*
X124563893Y-35257868D01*
X124542850Y-35270480D01*
X124520671Y-35280970D01*
X124497572Y-35289235D01*
X124473773Y-35295196D01*
X124449505Y-35298796D01*
X124425001Y-35300000D01*
X123174999Y-35300000D01*
X123150495Y-35298796D01*
X123126227Y-35295196D01*
X123102428Y-35289235D01*
X123079329Y-35280970D01*
X123057150Y-35270480D01*
X123036107Y-35257868D01*
X123016401Y-35243253D01*
X122998223Y-35226777D01*
X122981747Y-35208599D01*
X122967132Y-35188893D01*
X122954520Y-35167850D01*
X122944030Y-35145671D01*
X122935765Y-35122572D01*
X122929804Y-35098773D01*
X122926204Y-35074505D01*
X122925000Y-35050001D01*
X122925000Y-34349999D01*
X122926204Y-34325495D01*
X122929804Y-34301227D01*
X122935765Y-34277428D01*
X122944030Y-34254329D01*
X122954520Y-34232150D01*
X122967132Y-34211107D01*
X122981747Y-34191401D01*
X122998223Y-34173223D01*
X123016401Y-34156747D01*
X123036107Y-34142132D01*
X123057150Y-34129520D01*
X123079329Y-34119030D01*
X123102428Y-34110765D01*
X123126227Y-34104804D01*
X123150495Y-34101204D01*
X123174999Y-34100000D01*
X124425001Y-34100000D01*
X124449505Y-34101204D01*
G37*
G04 #@! TD.AperFunction*
D12*
X123800000Y-36700000D03*
X123800000Y-46700000D03*
G04 #@! TA.AperFunction,ComponentPad*
D10*
G36*
X124449505Y-44101204D02*
G01*
X124473773Y-44104804D01*
X124497572Y-44110765D01*
X124520671Y-44119030D01*
X124542850Y-44129520D01*
X124563893Y-44142132D01*
X124583599Y-44156747D01*
X124601777Y-44173223D01*
X124618253Y-44191401D01*
X124632868Y-44211107D01*
X124645480Y-44232150D01*
X124655970Y-44254329D01*
X124664235Y-44277428D01*
X124670196Y-44301227D01*
X124673796Y-44325495D01*
X124675000Y-44349999D01*
X124675000Y-45050001D01*
X124673796Y-45074505D01*
X124670196Y-45098773D01*
X124664235Y-45122572D01*
X124655970Y-45145671D01*
X124645480Y-45167850D01*
X124632868Y-45188893D01*
X124618253Y-45208599D01*
X124601777Y-45226777D01*
X124583599Y-45243253D01*
X124563893Y-45257868D01*
X124542850Y-45270480D01*
X124520671Y-45280970D01*
X124497572Y-45289235D01*
X124473773Y-45295196D01*
X124449505Y-45298796D01*
X124425001Y-45300000D01*
X123174999Y-45300000D01*
X123150495Y-45298796D01*
X123126227Y-45295196D01*
X123102428Y-45289235D01*
X123079329Y-45280970D01*
X123057150Y-45270480D01*
X123036107Y-45257868D01*
X123016401Y-45243253D01*
X122998223Y-45226777D01*
X122981747Y-45208599D01*
X122967132Y-45188893D01*
X122954520Y-45167850D01*
X122944030Y-45145671D01*
X122935765Y-45122572D01*
X122929804Y-45098773D01*
X122926204Y-45074505D01*
X122925000Y-45050001D01*
X122925000Y-44349999D01*
X122926204Y-44325495D01*
X122929804Y-44301227D01*
X122935765Y-44277428D01*
X122944030Y-44254329D01*
X122954520Y-44232150D01*
X122967132Y-44211107D01*
X122981747Y-44191401D01*
X122998223Y-44173223D01*
X123016401Y-44156747D01*
X123036107Y-44142132D01*
X123057150Y-44129520D01*
X123079329Y-44119030D01*
X123102428Y-44110765D01*
X123126227Y-44104804D01*
X123150495Y-44101204D01*
X123174999Y-44100000D01*
X124425001Y-44100000D01*
X124449505Y-44101204D01*
G37*
G04 #@! TD.AperFunction*
D13*
X157200000Y-35000000D03*
X157100000Y-46000000D03*
D14*
X152850000Y-46000000D03*
X143150000Y-46000000D03*
G04 #@! TA.AperFunction,SMDPad,CuDef*
D10*
G36*
X132399504Y-43826204D02*
G01*
X132423773Y-43829804D01*
X132447571Y-43835765D01*
X132470671Y-43844030D01*
X132492849Y-43854520D01*
X132513893Y-43867133D01*
X132533598Y-43881747D01*
X132551777Y-43898223D01*
X132568253Y-43916402D01*
X132582867Y-43936107D01*
X132595480Y-43957151D01*
X132605970Y-43979329D01*
X132614235Y-44002429D01*
X132620196Y-44026227D01*
X132623796Y-44050496D01*
X132625000Y-44075000D01*
X132625000Y-45325000D01*
X132623796Y-45349504D01*
X132620196Y-45373773D01*
X132614235Y-45397571D01*
X132605970Y-45420671D01*
X132595480Y-45442849D01*
X132582867Y-45463893D01*
X132568253Y-45483598D01*
X132551777Y-45501777D01*
X132533598Y-45518253D01*
X132513893Y-45532867D01*
X132492849Y-45545480D01*
X132470671Y-45555970D01*
X132447571Y-45564235D01*
X132423773Y-45570196D01*
X132399504Y-45573796D01*
X132375000Y-45575000D01*
X131625000Y-45575000D01*
X131600496Y-45573796D01*
X131576227Y-45570196D01*
X131552429Y-45564235D01*
X131529329Y-45555970D01*
X131507151Y-45545480D01*
X131486107Y-45532867D01*
X131466402Y-45518253D01*
X131448223Y-45501777D01*
X131431747Y-45483598D01*
X131417133Y-45463893D01*
X131404520Y-45442849D01*
X131394030Y-45420671D01*
X131385765Y-45397571D01*
X131379804Y-45373773D01*
X131376204Y-45349504D01*
X131375000Y-45325000D01*
X131375000Y-44075000D01*
X131376204Y-44050496D01*
X131379804Y-44026227D01*
X131385765Y-44002429D01*
X131394030Y-43979329D01*
X131404520Y-43957151D01*
X131417133Y-43936107D01*
X131431747Y-43916402D01*
X131448223Y-43898223D01*
X131466402Y-43881747D01*
X131486107Y-43867133D01*
X131507151Y-43854520D01*
X131529329Y-43844030D01*
X131552429Y-43835765D01*
X131576227Y-43829804D01*
X131600496Y-43826204D01*
X131625000Y-43825000D01*
X132375000Y-43825000D01*
X132399504Y-43826204D01*
G37*
G04 #@! TD.AperFunction*
G04 #@! TA.AperFunction,SMDPad,CuDef*
G36*
X129599504Y-43826204D02*
G01*
X129623773Y-43829804D01*
X129647571Y-43835765D01*
X129670671Y-43844030D01*
X129692849Y-43854520D01*
X129713893Y-43867133D01*
X129733598Y-43881747D01*
X129751777Y-43898223D01*
X129768253Y-43916402D01*
X129782867Y-43936107D01*
X129795480Y-43957151D01*
X129805970Y-43979329D01*
X129814235Y-44002429D01*
X129820196Y-44026227D01*
X129823796Y-44050496D01*
X129825000Y-44075000D01*
X129825000Y-45325000D01*
X129823796Y-45349504D01*
X129820196Y-45373773D01*
X129814235Y-45397571D01*
X129805970Y-45420671D01*
X129795480Y-45442849D01*
X129782867Y-45463893D01*
X129768253Y-45483598D01*
X129751777Y-45501777D01*
X129733598Y-45518253D01*
X129713893Y-45532867D01*
X129692849Y-45545480D01*
X129670671Y-45555970D01*
X129647571Y-45564235D01*
X129623773Y-45570196D01*
X129599504Y-45573796D01*
X129575000Y-45575000D01*
X128825000Y-45575000D01*
X128800496Y-45573796D01*
X128776227Y-45570196D01*
X128752429Y-45564235D01*
X128729329Y-45555970D01*
X128707151Y-45545480D01*
X128686107Y-45532867D01*
X128666402Y-45518253D01*
X128648223Y-45501777D01*
X128631747Y-45483598D01*
X128617133Y-45463893D01*
X128604520Y-45442849D01*
X128594030Y-45420671D01*
X128585765Y-45397571D01*
X128579804Y-45373773D01*
X128576204Y-45349504D01*
X128575000Y-45325000D01*
X128575000Y-44075000D01*
X128576204Y-44050496D01*
X128579804Y-44026227D01*
X128585765Y-44002429D01*
X128594030Y-43979329D01*
X128604520Y-43957151D01*
X128617133Y-43936107D01*
X128631747Y-43916402D01*
X128648223Y-43898223D01*
X128666402Y-43881747D01*
X128686107Y-43867133D01*
X128707151Y-43854520D01*
X128729329Y-43844030D01*
X128752429Y-43835765D01*
X128776227Y-43829804D01*
X128800496Y-43826204D01*
X128825000Y-43825000D01*
X129575000Y-43825000D01*
X129599504Y-43826204D01*
G37*
G04 #@! TD.AperFunction*
G04 #@! TA.AperFunction,SMDPad,CuDef*
G36*
X147599504Y-30726204D02*
G01*
X147623773Y-30729804D01*
X147647571Y-30735765D01*
X147670671Y-30744030D01*
X147692849Y-30754520D01*
X147713893Y-30767133D01*
X147733598Y-30781747D01*
X147751777Y-30798223D01*
X147768253Y-30816402D01*
X147782867Y-30836107D01*
X147795480Y-30857151D01*
X147805970Y-30879329D01*
X147814235Y-30902429D01*
X147820196Y-30926227D01*
X147823796Y-30950496D01*
X147825000Y-30975000D01*
X147825000Y-32225000D01*
X147823796Y-32249504D01*
X147820196Y-32273773D01*
X147814235Y-32297571D01*
X147805970Y-32320671D01*
X147795480Y-32342849D01*
X147782867Y-32363893D01*
X147768253Y-32383598D01*
X147751777Y-32401777D01*
X147733598Y-32418253D01*
X147713893Y-32432867D01*
X147692849Y-32445480D01*
X147670671Y-32455970D01*
X147647571Y-32464235D01*
X147623773Y-32470196D01*
X147599504Y-32473796D01*
X147575000Y-32475000D01*
X146825000Y-32475000D01*
X146800496Y-32473796D01*
X146776227Y-32470196D01*
X146752429Y-32464235D01*
X146729329Y-32455970D01*
X146707151Y-32445480D01*
X146686107Y-32432867D01*
X146666402Y-32418253D01*
X146648223Y-32401777D01*
X146631747Y-32383598D01*
X146617133Y-32363893D01*
X146604520Y-32342849D01*
X146594030Y-32320671D01*
X146585765Y-32297571D01*
X146579804Y-32273773D01*
X146576204Y-32249504D01*
X146575000Y-32225000D01*
X146575000Y-30975000D01*
X146576204Y-30950496D01*
X146579804Y-30926227D01*
X146585765Y-30902429D01*
X146594030Y-30879329D01*
X146604520Y-30857151D01*
X146617133Y-30836107D01*
X146631747Y-30816402D01*
X146648223Y-30798223D01*
X146666402Y-30781747D01*
X146686107Y-30767133D01*
X146707151Y-30754520D01*
X146729329Y-30744030D01*
X146752429Y-30735765D01*
X146776227Y-30729804D01*
X146800496Y-30726204D01*
X146825000Y-30725000D01*
X147575000Y-30725000D01*
X147599504Y-30726204D01*
G37*
G04 #@! TD.AperFunction*
G04 #@! TA.AperFunction,SMDPad,CuDef*
G36*
X144799504Y-30726204D02*
G01*
X144823773Y-30729804D01*
X144847571Y-30735765D01*
X144870671Y-30744030D01*
X144892849Y-30754520D01*
X144913893Y-30767133D01*
X144933598Y-30781747D01*
X144951777Y-30798223D01*
X144968253Y-30816402D01*
X144982867Y-30836107D01*
X144995480Y-30857151D01*
X145005970Y-30879329D01*
X145014235Y-30902429D01*
X145020196Y-30926227D01*
X145023796Y-30950496D01*
X145025000Y-30975000D01*
X145025000Y-32225000D01*
X145023796Y-32249504D01*
X145020196Y-32273773D01*
X145014235Y-32297571D01*
X145005970Y-32320671D01*
X144995480Y-32342849D01*
X144982867Y-32363893D01*
X144968253Y-32383598D01*
X144951777Y-32401777D01*
X144933598Y-32418253D01*
X144913893Y-32432867D01*
X144892849Y-32445480D01*
X144870671Y-32455970D01*
X144847571Y-32464235D01*
X144823773Y-32470196D01*
X144799504Y-32473796D01*
X144775000Y-32475000D01*
X144025000Y-32475000D01*
X144000496Y-32473796D01*
X143976227Y-32470196D01*
X143952429Y-32464235D01*
X143929329Y-32455970D01*
X143907151Y-32445480D01*
X143886107Y-32432867D01*
X143866402Y-32418253D01*
X143848223Y-32401777D01*
X143831747Y-32383598D01*
X143817133Y-32363893D01*
X143804520Y-32342849D01*
X143794030Y-32320671D01*
X143785765Y-32297571D01*
X143779804Y-32273773D01*
X143776204Y-32249504D01*
X143775000Y-32225000D01*
X143775000Y-30975000D01*
X143776204Y-30950496D01*
X143779804Y-30926227D01*
X143785765Y-30902429D01*
X143794030Y-30879329D01*
X143804520Y-30857151D01*
X143817133Y-30836107D01*
X143831747Y-30816402D01*
X143848223Y-30798223D01*
X143866402Y-30781747D01*
X143886107Y-30767133D01*
X143907151Y-30754520D01*
X143929329Y-30744030D01*
X143952429Y-30735765D01*
X143976227Y-30729804D01*
X144000496Y-30726204D01*
X144025000Y-30725000D01*
X144775000Y-30725000D01*
X144799504Y-30726204D01*
G37*
G04 #@! TD.AperFunction*
D15*
X130700000Y-48200000D03*
X127500000Y-51100000D03*
X137300000Y-50000000D03*
G04 #@! TA.AperFunction,SMDPad,CuDef*
D10*
G36*
X146979506Y-34451204D02*
G01*
X147003774Y-34454804D01*
X147027573Y-34460765D01*
X147050672Y-34469030D01*
X147072850Y-34479519D01*
X147093893Y-34492132D01*
X147113599Y-34506747D01*
X147131777Y-34523223D01*
X147148253Y-34541401D01*
X147162868Y-34561107D01*
X147175481Y-34582150D01*
X147185970Y-34604328D01*
X147194235Y-34627427D01*
X147200196Y-34651226D01*
X147203796Y-34675494D01*
X147205000Y-34699998D01*
X147205000Y-37300002D01*
X147203796Y-37324506D01*
X147200196Y-37348774D01*
X147194235Y-37372573D01*
X147185970Y-37395672D01*
X147175481Y-37417850D01*
X147162868Y-37438893D01*
X147148253Y-37458599D01*
X147131777Y-37476777D01*
X147113599Y-37493253D01*
X147093893Y-37507868D01*
X147072850Y-37520481D01*
X147050672Y-37530970D01*
X147027573Y-37539235D01*
X147003774Y-37545196D01*
X146979506Y-37548796D01*
X146955002Y-37550000D01*
X145044998Y-37550000D01*
X145020494Y-37548796D01*
X144996226Y-37545196D01*
X144972427Y-37539235D01*
X144949328Y-37530970D01*
X144927150Y-37520481D01*
X144906107Y-37507868D01*
X144886401Y-37493253D01*
X144868223Y-37476777D01*
X144851747Y-37458599D01*
X144837132Y-37438893D01*
X144824519Y-37417850D01*
X144814030Y-37395672D01*
X144805765Y-37372573D01*
X144799804Y-37348774D01*
X144796204Y-37324506D01*
X144795000Y-37300002D01*
X144795000Y-34699998D01*
X144796204Y-34675494D01*
X144799804Y-34651226D01*
X144805765Y-34627427D01*
X144814030Y-34604328D01*
X144824519Y-34582150D01*
X144837132Y-34561107D01*
X144851747Y-34541401D01*
X144868223Y-34523223D01*
X144886401Y-34506747D01*
X144906107Y-34492132D01*
X144927150Y-34479519D01*
X144949328Y-34469030D01*
X144972427Y-34460765D01*
X144996226Y-34454804D01*
X145020494Y-34451204D01*
X145044998Y-34450000D01*
X146955002Y-34450000D01*
X146979506Y-34451204D01*
G37*
G04 #@! TD.AperFunction*
D16*
X146955000Y-37300000D03*
X145045000Y-37300000D03*
X146955000Y-36000000D03*
X145045000Y-36000000D03*
X146955000Y-34700000D03*
X145045000Y-34700000D03*
G04 #@! TA.AperFunction,SMDPad,CuDef*
D10*
G36*
X149314703Y-37605722D02*
G01*
X149329264Y-37607882D01*
X149343543Y-37611459D01*
X149357403Y-37616418D01*
X149370710Y-37622712D01*
X149383336Y-37630280D01*
X149395159Y-37639048D01*
X149406066Y-37648934D01*
X149415952Y-37659841D01*
X149424720Y-37671664D01*
X149432288Y-37684290D01*
X149438582Y-37697597D01*
X149443541Y-37711457D01*
X149447118Y-37725736D01*
X149449278Y-37740297D01*
X149450000Y-37755000D01*
X149450000Y-38055000D01*
X149449278Y-38069703D01*
X149447118Y-38084264D01*
X149443541Y-38098543D01*
X149438582Y-38112403D01*
X149432288Y-38125710D01*
X149424720Y-38138336D01*
X149415952Y-38150159D01*
X149406066Y-38161066D01*
X149395159Y-38170952D01*
X149383336Y-38179720D01*
X149370710Y-38187288D01*
X149357403Y-38193582D01*
X149343543Y-38198541D01*
X149329264Y-38202118D01*
X149314703Y-38204278D01*
X149300000Y-38205000D01*
X148000000Y-38205000D01*
X147985297Y-38204278D01*
X147970736Y-38202118D01*
X147956457Y-38198541D01*
X147942597Y-38193582D01*
X147929290Y-38187288D01*
X147916664Y-38179720D01*
X147904841Y-38170952D01*
X147893934Y-38161066D01*
X147884048Y-38150159D01*
X147875280Y-38138336D01*
X147867712Y-38125710D01*
X147861418Y-38112403D01*
X147856459Y-38098543D01*
X147852882Y-38084264D01*
X147850722Y-38069703D01*
X147850000Y-38055000D01*
X147850000Y-37755000D01*
X147850722Y-37740297D01*
X147852882Y-37725736D01*
X147856459Y-37711457D01*
X147861418Y-37697597D01*
X147867712Y-37684290D01*
X147875280Y-37671664D01*
X147884048Y-37659841D01*
X147893934Y-37648934D01*
X147904841Y-37639048D01*
X147916664Y-37630280D01*
X147929290Y-37622712D01*
X147942597Y-37616418D01*
X147956457Y-37611459D01*
X147970736Y-37607882D01*
X147985297Y-37605722D01*
X148000000Y-37605000D01*
X149300000Y-37605000D01*
X149314703Y-37605722D01*
G37*
G04 #@! TD.AperFunction*
G04 #@! TA.AperFunction,SMDPad,CuDef*
G36*
X149314703Y-36335722D02*
G01*
X149329264Y-36337882D01*
X149343543Y-36341459D01*
X149357403Y-36346418D01*
X149370710Y-36352712D01*
X149383336Y-36360280D01*
X149395159Y-36369048D01*
X149406066Y-36378934D01*
X149415952Y-36389841D01*
X149424720Y-36401664D01*
X149432288Y-36414290D01*
X149438582Y-36427597D01*
X149443541Y-36441457D01*
X149447118Y-36455736D01*
X149449278Y-36470297D01*
X149450000Y-36485000D01*
X149450000Y-36785000D01*
X149449278Y-36799703D01*
X149447118Y-36814264D01*
X149443541Y-36828543D01*
X149438582Y-36842403D01*
X149432288Y-36855710D01*
X149424720Y-36868336D01*
X149415952Y-36880159D01*
X149406066Y-36891066D01*
X149395159Y-36900952D01*
X149383336Y-36909720D01*
X149370710Y-36917288D01*
X149357403Y-36923582D01*
X149343543Y-36928541D01*
X149329264Y-36932118D01*
X149314703Y-36934278D01*
X149300000Y-36935000D01*
X148000000Y-36935000D01*
X147985297Y-36934278D01*
X147970736Y-36932118D01*
X147956457Y-36928541D01*
X147942597Y-36923582D01*
X147929290Y-36917288D01*
X147916664Y-36909720D01*
X147904841Y-36900952D01*
X147893934Y-36891066D01*
X147884048Y-36880159D01*
X147875280Y-36868336D01*
X147867712Y-36855710D01*
X147861418Y-36842403D01*
X147856459Y-36828543D01*
X147852882Y-36814264D01*
X147850722Y-36799703D01*
X147850000Y-36785000D01*
X147850000Y-36485000D01*
X147850722Y-36470297D01*
X147852882Y-36455736D01*
X147856459Y-36441457D01*
X147861418Y-36427597D01*
X147867712Y-36414290D01*
X147875280Y-36401664D01*
X147884048Y-36389841D01*
X147893934Y-36378934D01*
X147904841Y-36369048D01*
X147916664Y-36360280D01*
X147929290Y-36352712D01*
X147942597Y-36346418D01*
X147956457Y-36341459D01*
X147970736Y-36337882D01*
X147985297Y-36335722D01*
X148000000Y-36335000D01*
X149300000Y-36335000D01*
X149314703Y-36335722D01*
G37*
G04 #@! TD.AperFunction*
G04 #@! TA.AperFunction,SMDPad,CuDef*
G36*
X149314703Y-35065722D02*
G01*
X149329264Y-35067882D01*
X149343543Y-35071459D01*
X149357403Y-35076418D01*
X149370710Y-35082712D01*
X149383336Y-35090280D01*
X149395159Y-35099048D01*
X149406066Y-35108934D01*
X149415952Y-35119841D01*
X149424720Y-35131664D01*
X149432288Y-35144290D01*
X149438582Y-35157597D01*
X149443541Y-35171457D01*
X149447118Y-35185736D01*
X149449278Y-35200297D01*
X149450000Y-35215000D01*
X149450000Y-35515000D01*
X149449278Y-35529703D01*
X149447118Y-35544264D01*
X149443541Y-35558543D01*
X149438582Y-35572403D01*
X149432288Y-35585710D01*
X149424720Y-35598336D01*
X149415952Y-35610159D01*
X149406066Y-35621066D01*
X149395159Y-35630952D01*
X149383336Y-35639720D01*
X149370710Y-35647288D01*
X149357403Y-35653582D01*
X149343543Y-35658541D01*
X149329264Y-35662118D01*
X149314703Y-35664278D01*
X149300000Y-35665000D01*
X148000000Y-35665000D01*
X147985297Y-35664278D01*
X147970736Y-35662118D01*
X147956457Y-35658541D01*
X147942597Y-35653582D01*
X147929290Y-35647288D01*
X147916664Y-35639720D01*
X147904841Y-35630952D01*
X147893934Y-35621066D01*
X147884048Y-35610159D01*
X147875280Y-35598336D01*
X147867712Y-35585710D01*
X147861418Y-35572403D01*
X147856459Y-35558543D01*
X147852882Y-35544264D01*
X147850722Y-35529703D01*
X147850000Y-35515000D01*
X147850000Y-35215000D01*
X147850722Y-35200297D01*
X147852882Y-35185736D01*
X147856459Y-35171457D01*
X147861418Y-35157597D01*
X147867712Y-35144290D01*
X147875280Y-35131664D01*
X147884048Y-35119841D01*
X147893934Y-35108934D01*
X147904841Y-35099048D01*
X147916664Y-35090280D01*
X147929290Y-35082712D01*
X147942597Y-35076418D01*
X147956457Y-35071459D01*
X147970736Y-35067882D01*
X147985297Y-35065722D01*
X148000000Y-35065000D01*
X149300000Y-35065000D01*
X149314703Y-35065722D01*
G37*
G04 #@! TD.AperFunction*
G04 #@! TA.AperFunction,SMDPad,CuDef*
G36*
X149314703Y-33795722D02*
G01*
X149329264Y-33797882D01*
X149343543Y-33801459D01*
X149357403Y-33806418D01*
X149370710Y-33812712D01*
X149383336Y-33820280D01*
X149395159Y-33829048D01*
X149406066Y-33838934D01*
X149415952Y-33849841D01*
X149424720Y-33861664D01*
X149432288Y-33874290D01*
X149438582Y-33887597D01*
X149443541Y-33901457D01*
X149447118Y-33915736D01*
X149449278Y-33930297D01*
X149450000Y-33945000D01*
X149450000Y-34245000D01*
X149449278Y-34259703D01*
X149447118Y-34274264D01*
X149443541Y-34288543D01*
X149438582Y-34302403D01*
X149432288Y-34315710D01*
X149424720Y-34328336D01*
X149415952Y-34340159D01*
X149406066Y-34351066D01*
X149395159Y-34360952D01*
X149383336Y-34369720D01*
X149370710Y-34377288D01*
X149357403Y-34383582D01*
X149343543Y-34388541D01*
X149329264Y-34392118D01*
X149314703Y-34394278D01*
X149300000Y-34395000D01*
X148000000Y-34395000D01*
X147985297Y-34394278D01*
X147970736Y-34392118D01*
X147956457Y-34388541D01*
X147942597Y-34383582D01*
X147929290Y-34377288D01*
X147916664Y-34369720D01*
X147904841Y-34360952D01*
X147893934Y-34351066D01*
X147884048Y-34340159D01*
X147875280Y-34328336D01*
X147867712Y-34315710D01*
X147861418Y-34302403D01*
X147856459Y-34288543D01*
X147852882Y-34274264D01*
X147850722Y-34259703D01*
X147850000Y-34245000D01*
X147850000Y-33945000D01*
X147850722Y-33930297D01*
X147852882Y-33915736D01*
X147856459Y-33901457D01*
X147861418Y-33887597D01*
X147867712Y-33874290D01*
X147875280Y-33861664D01*
X147884048Y-33849841D01*
X147893934Y-33838934D01*
X147904841Y-33829048D01*
X147916664Y-33820280D01*
X147929290Y-33812712D01*
X147942597Y-33806418D01*
X147956457Y-33801459D01*
X147970736Y-33797882D01*
X147985297Y-33795722D01*
X148000000Y-33795000D01*
X149300000Y-33795000D01*
X149314703Y-33795722D01*
G37*
G04 #@! TD.AperFunction*
G04 #@! TA.AperFunction,SMDPad,CuDef*
G36*
X144014703Y-33795722D02*
G01*
X144029264Y-33797882D01*
X144043543Y-33801459D01*
X144057403Y-33806418D01*
X144070710Y-33812712D01*
X144083336Y-33820280D01*
X144095159Y-33829048D01*
X144106066Y-33838934D01*
X144115952Y-33849841D01*
X144124720Y-33861664D01*
X144132288Y-33874290D01*
X144138582Y-33887597D01*
X144143541Y-33901457D01*
X144147118Y-33915736D01*
X144149278Y-33930297D01*
X144150000Y-33945000D01*
X144150000Y-34245000D01*
X144149278Y-34259703D01*
X144147118Y-34274264D01*
X144143541Y-34288543D01*
X144138582Y-34302403D01*
X144132288Y-34315710D01*
X144124720Y-34328336D01*
X144115952Y-34340159D01*
X144106066Y-34351066D01*
X144095159Y-34360952D01*
X144083336Y-34369720D01*
X144070710Y-34377288D01*
X144057403Y-34383582D01*
X144043543Y-34388541D01*
X144029264Y-34392118D01*
X144014703Y-34394278D01*
X144000000Y-34395000D01*
X142700000Y-34395000D01*
X142685297Y-34394278D01*
X142670736Y-34392118D01*
X142656457Y-34388541D01*
X142642597Y-34383582D01*
X142629290Y-34377288D01*
X142616664Y-34369720D01*
X142604841Y-34360952D01*
X142593934Y-34351066D01*
X142584048Y-34340159D01*
X142575280Y-34328336D01*
X142567712Y-34315710D01*
X142561418Y-34302403D01*
X142556459Y-34288543D01*
X142552882Y-34274264D01*
X142550722Y-34259703D01*
X142550000Y-34245000D01*
X142550000Y-33945000D01*
X142550722Y-33930297D01*
X142552882Y-33915736D01*
X142556459Y-33901457D01*
X142561418Y-33887597D01*
X142567712Y-33874290D01*
X142575280Y-33861664D01*
X142584048Y-33849841D01*
X142593934Y-33838934D01*
X142604841Y-33829048D01*
X142616664Y-33820280D01*
X142629290Y-33812712D01*
X142642597Y-33806418D01*
X142656457Y-33801459D01*
X142670736Y-33797882D01*
X142685297Y-33795722D01*
X142700000Y-33795000D01*
X144000000Y-33795000D01*
X144014703Y-33795722D01*
G37*
G04 #@! TD.AperFunction*
G04 #@! TA.AperFunction,SMDPad,CuDef*
G36*
X144014703Y-35065722D02*
G01*
X144029264Y-35067882D01*
X144043543Y-35071459D01*
X144057403Y-35076418D01*
X144070710Y-35082712D01*
X144083336Y-35090280D01*
X144095159Y-35099048D01*
X144106066Y-35108934D01*
X144115952Y-35119841D01*
X144124720Y-35131664D01*
X144132288Y-35144290D01*
X144138582Y-35157597D01*
X144143541Y-35171457D01*
X144147118Y-35185736D01*
X144149278Y-35200297D01*
X144150000Y-35215000D01*
X144150000Y-35515000D01*
X144149278Y-35529703D01*
X144147118Y-35544264D01*
X144143541Y-35558543D01*
X144138582Y-35572403D01*
X144132288Y-35585710D01*
X144124720Y-35598336D01*
X144115952Y-35610159D01*
X144106066Y-35621066D01*
X144095159Y-35630952D01*
X144083336Y-35639720D01*
X144070710Y-35647288D01*
X144057403Y-35653582D01*
X144043543Y-35658541D01*
X144029264Y-35662118D01*
X144014703Y-35664278D01*
X144000000Y-35665000D01*
X142700000Y-35665000D01*
X142685297Y-35664278D01*
X142670736Y-35662118D01*
X142656457Y-35658541D01*
X142642597Y-35653582D01*
X142629290Y-35647288D01*
X142616664Y-35639720D01*
X142604841Y-35630952D01*
X142593934Y-35621066D01*
X142584048Y-35610159D01*
X142575280Y-35598336D01*
X142567712Y-35585710D01*
X142561418Y-35572403D01*
X142556459Y-35558543D01*
X142552882Y-35544264D01*
X142550722Y-35529703D01*
X142550000Y-35515000D01*
X142550000Y-35215000D01*
X142550722Y-35200297D01*
X142552882Y-35185736D01*
X142556459Y-35171457D01*
X142561418Y-35157597D01*
X142567712Y-35144290D01*
X142575280Y-35131664D01*
X142584048Y-35119841D01*
X142593934Y-35108934D01*
X142604841Y-35099048D01*
X142616664Y-35090280D01*
X142629290Y-35082712D01*
X142642597Y-35076418D01*
X142656457Y-35071459D01*
X142670736Y-35067882D01*
X142685297Y-35065722D01*
X142700000Y-35065000D01*
X144000000Y-35065000D01*
X144014703Y-35065722D01*
G37*
G04 #@! TD.AperFunction*
G04 #@! TA.AperFunction,SMDPad,CuDef*
G36*
X144014703Y-36335722D02*
G01*
X144029264Y-36337882D01*
X144043543Y-36341459D01*
X144057403Y-36346418D01*
X144070710Y-36352712D01*
X144083336Y-36360280D01*
X144095159Y-36369048D01*
X144106066Y-36378934D01*
X144115952Y-36389841D01*
X144124720Y-36401664D01*
X144132288Y-36414290D01*
X144138582Y-36427597D01*
X144143541Y-36441457D01*
X144147118Y-36455736D01*
X144149278Y-36470297D01*
X144150000Y-36485000D01*
X144150000Y-36785000D01*
X144149278Y-36799703D01*
X144147118Y-36814264D01*
X144143541Y-36828543D01*
X144138582Y-36842403D01*
X144132288Y-36855710D01*
X144124720Y-36868336D01*
X144115952Y-36880159D01*
X144106066Y-36891066D01*
X144095159Y-36900952D01*
X144083336Y-36909720D01*
X144070710Y-36917288D01*
X144057403Y-36923582D01*
X144043543Y-36928541D01*
X144029264Y-36932118D01*
X144014703Y-36934278D01*
X144000000Y-36935000D01*
X142700000Y-36935000D01*
X142685297Y-36934278D01*
X142670736Y-36932118D01*
X142656457Y-36928541D01*
X142642597Y-36923582D01*
X142629290Y-36917288D01*
X142616664Y-36909720D01*
X142604841Y-36900952D01*
X142593934Y-36891066D01*
X142584048Y-36880159D01*
X142575280Y-36868336D01*
X142567712Y-36855710D01*
X142561418Y-36842403D01*
X142556459Y-36828543D01*
X142552882Y-36814264D01*
X142550722Y-36799703D01*
X142550000Y-36785000D01*
X142550000Y-36485000D01*
X142550722Y-36470297D01*
X142552882Y-36455736D01*
X142556459Y-36441457D01*
X142561418Y-36427597D01*
X142567712Y-36414290D01*
X142575280Y-36401664D01*
X142584048Y-36389841D01*
X142593934Y-36378934D01*
X142604841Y-36369048D01*
X142616664Y-36360280D01*
X142629290Y-36352712D01*
X142642597Y-36346418D01*
X142656457Y-36341459D01*
X142670736Y-36337882D01*
X142685297Y-36335722D01*
X142700000Y-36335000D01*
X144000000Y-36335000D01*
X144014703Y-36335722D01*
G37*
G04 #@! TD.AperFunction*
G04 #@! TA.AperFunction,SMDPad,CuDef*
G36*
X144014703Y-37605722D02*
G01*
X144029264Y-37607882D01*
X144043543Y-37611459D01*
X144057403Y-37616418D01*
X144070710Y-37622712D01*
X144083336Y-37630280D01*
X144095159Y-37639048D01*
X144106066Y-37648934D01*
X144115952Y-37659841D01*
X144124720Y-37671664D01*
X144132288Y-37684290D01*
X144138582Y-37697597D01*
X144143541Y-37711457D01*
X144147118Y-37725736D01*
X144149278Y-37740297D01*
X144150000Y-37755000D01*
X144150000Y-38055000D01*
X144149278Y-38069703D01*
X144147118Y-38084264D01*
X144143541Y-38098543D01*
X144138582Y-38112403D01*
X144132288Y-38125710D01*
X144124720Y-38138336D01*
X144115952Y-38150159D01*
X144106066Y-38161066D01*
X144095159Y-38170952D01*
X144083336Y-38179720D01*
X144070710Y-38187288D01*
X144057403Y-38193582D01*
X144043543Y-38198541D01*
X144029264Y-38202118D01*
X144014703Y-38204278D01*
X144000000Y-38205000D01*
X142700000Y-38205000D01*
X142685297Y-38204278D01*
X142670736Y-38202118D01*
X142656457Y-38198541D01*
X142642597Y-38193582D01*
X142629290Y-38187288D01*
X142616664Y-38179720D01*
X142604841Y-38170952D01*
X142593934Y-38161066D01*
X142584048Y-38150159D01*
X142575280Y-38138336D01*
X142567712Y-38125710D01*
X142561418Y-38112403D01*
X142556459Y-38098543D01*
X142552882Y-38084264D01*
X142550722Y-38069703D01*
X142550000Y-38055000D01*
X142550000Y-37755000D01*
X142550722Y-37740297D01*
X142552882Y-37725736D01*
X142556459Y-37711457D01*
X142561418Y-37697597D01*
X142567712Y-37684290D01*
X142575280Y-37671664D01*
X142584048Y-37659841D01*
X142593934Y-37648934D01*
X142604841Y-37639048D01*
X142616664Y-37630280D01*
X142629290Y-37622712D01*
X142642597Y-37616418D01*
X142656457Y-37611459D01*
X142670736Y-37607882D01*
X142685297Y-37605722D01*
X142700000Y-37605000D01*
X144000000Y-37605000D01*
X144014703Y-37605722D01*
G37*
G04 #@! TD.AperFunction*
D17*
X137600000Y-38200000D03*
X140100000Y-38200000D03*
X138800000Y-38200000D03*
X127700000Y-38800000D03*
X130100000Y-38800000D03*
X128900000Y-38800000D03*
X150550000Y-38800000D03*
X151700000Y-38800000D03*
X153050000Y-38800000D03*
X153050000Y-37600000D03*
X151750000Y-37600000D03*
X150550000Y-37600000D03*
X150550000Y-36650000D03*
X151750000Y-36650000D03*
X153050000Y-36650000D03*
X141800000Y-34100000D03*
X133000000Y-44700000D03*
D18*
X143350000Y-35365000D02*
X137865000Y-35365000D01*
X137600000Y-35100000D02*
X137600000Y-34100000D01*
X137865000Y-35365000D02*
X137600000Y-35100000D01*
D19*
X123800000Y-34700000D02*
X121000000Y-34700000D01*
X121000000Y-34700000D02*
X120300000Y-35400000D01*
X120300000Y-35400000D02*
X120300000Y-51700000D01*
X120300000Y-51700000D02*
X121500000Y-52900000D01*
X125700000Y-52900000D02*
X127500000Y-51100000D01*
X121500000Y-52900000D02*
X125700000Y-52900000D01*
D18*
X130100000Y-37500000D02*
X130100000Y-38800000D01*
X127700000Y-37500000D02*
X127700000Y-38800000D01*
D20*
X137600000Y-36900000D02*
X137600000Y-38200000D01*
X140100000Y-36900000D02*
X140100000Y-38200000D01*
X138800000Y-38200000D02*
X140100000Y-38200000D01*
X137600000Y-38200000D02*
X138800000Y-38200000D01*
X127700000Y-38800000D02*
X128900000Y-38800000D01*
D21*
X148650000Y-37905000D02*
X149655000Y-37905000D01*
X149655000Y-37905000D02*
X150550000Y-38800000D01*
X151700000Y-38800000D02*
X153050000Y-38800000D01*
X153050000Y-37600000D02*
X151750000Y-37600000D01*
X150550000Y-37600000D02*
X150550000Y-36650000D01*
X151750000Y-36650000D02*
X153050000Y-36650000D01*
D18*
X140105000Y-34095000D02*
X140100000Y-34100000D01*
X141505000Y-34095000D02*
X140105000Y-34095000D01*
X141505000Y-34095000D02*
X141500000Y-34100000D01*
X143350000Y-34095000D02*
X141505000Y-34095000D01*
X141505000Y-34095000D02*
X141795000Y-34095000D01*
X141795000Y-34095000D02*
X141800000Y-34100000D01*
X132000000Y-44700000D02*
X133000000Y-44700000D01*
X123800000Y-44700000D02*
X129200000Y-44700000D01*
D21*
X130700000Y-48200000D02*
X130700000Y-45200000D01*
X130200000Y-44700000D02*
X129200000Y-44700000D01*
X130700000Y-45200000D02*
X130200000Y-44700000D01*
D22*
G36*
X145673000Y-32973000D02*
G01*
X138700000Y-32973000D01*
X138675224Y-32975440D01*
X138651399Y-32982667D01*
X138629443Y-32994403D01*
X138610197Y-33010197D01*
X138594403Y-33029443D01*
X138582667Y-33051399D01*
X138575440Y-33075224D01*
X138573000Y-33100000D01*
X138573000Y-33106584D01*
X138549689Y-33099513D01*
X138475000Y-33092157D01*
X137822250Y-33094000D01*
X137727000Y-33189250D01*
X137727000Y-33973000D01*
X137747000Y-33973000D01*
X137747000Y-34227000D01*
X137727000Y-34227000D01*
X137727000Y-34247000D01*
X137473000Y-34247000D01*
X137473000Y-34227000D01*
X136439250Y-34227000D01*
X136344000Y-34322250D01*
X136342157Y-34725000D01*
X136349513Y-34799689D01*
X136371299Y-34871508D01*
X136372097Y-34873000D01*
X136100000Y-34873000D01*
X136075224Y-34875440D01*
X136051399Y-34882667D01*
X136029443Y-34894403D01*
X136010197Y-34910197D01*
X135994403Y-34929443D01*
X135982667Y-34951399D01*
X135975440Y-34975224D01*
X135973000Y-35000000D01*
X135973000Y-36373000D01*
X132027000Y-36373000D01*
X132027000Y-35950000D01*
X132467157Y-35950000D01*
X132474513Y-36024689D01*
X132496299Y-36096508D01*
X132531678Y-36162696D01*
X132579289Y-36220711D01*
X132637304Y-36268322D01*
X132703492Y-36303701D01*
X132775311Y-36325487D01*
X132850000Y-36332843D01*
X133777750Y-36331000D01*
X133873000Y-36235750D01*
X133873000Y-34827000D01*
X134127000Y-34827000D01*
X134127000Y-36235750D01*
X134222250Y-36331000D01*
X135150000Y-36332843D01*
X135224689Y-36325487D01*
X135296508Y-36303701D01*
X135362696Y-36268322D01*
X135420711Y-36220711D01*
X135468322Y-36162696D01*
X135503701Y-36096508D01*
X135525487Y-36024689D01*
X135532843Y-35950000D01*
X135531000Y-34922250D01*
X135435750Y-34827000D01*
X134127000Y-34827000D01*
X133873000Y-34827000D01*
X132564250Y-34827000D01*
X132469000Y-34922250D01*
X132467157Y-35950000D01*
X132027000Y-35950000D01*
X132027000Y-35900000D01*
X132024560Y-35875224D01*
X132017333Y-35851399D01*
X132005597Y-35829443D01*
X131989803Y-35810197D01*
X131970557Y-35794403D01*
X131948601Y-35782667D01*
X131924776Y-35775440D01*
X131900000Y-35773000D01*
X126742333Y-35773000D01*
X126376200Y-35498400D01*
X126354915Y-35485486D01*
X126331519Y-35476973D01*
X126300000Y-35473000D01*
X125014540Y-35473000D01*
X125028701Y-35446508D01*
X125050487Y-35374689D01*
X125055380Y-35325000D01*
X126442157Y-35325000D01*
X126449513Y-35399689D01*
X126471299Y-35471508D01*
X126506678Y-35537696D01*
X126554289Y-35595711D01*
X126612304Y-35643322D01*
X126678492Y-35678701D01*
X126750311Y-35700487D01*
X126825000Y-35707843D01*
X127477750Y-35706000D01*
X127573000Y-35610750D01*
X127573000Y-34827000D01*
X127827000Y-34827000D01*
X127827000Y-35610750D01*
X127922250Y-35706000D01*
X128575000Y-35707843D01*
X128649689Y-35700487D01*
X128721508Y-35678701D01*
X128787696Y-35643322D01*
X128845711Y-35595711D01*
X128893322Y-35537696D01*
X128900000Y-35525203D01*
X128906678Y-35537696D01*
X128954289Y-35595711D01*
X129012304Y-35643322D01*
X129078492Y-35678701D01*
X129150311Y-35700487D01*
X129225000Y-35707843D01*
X129877750Y-35706000D01*
X129973000Y-35610750D01*
X129973000Y-34827000D01*
X130227000Y-34827000D01*
X130227000Y-35610750D01*
X130322250Y-35706000D01*
X130975000Y-35707843D01*
X131049689Y-35700487D01*
X131121508Y-35678701D01*
X131187696Y-35643322D01*
X131245711Y-35595711D01*
X131293322Y-35537696D01*
X131328701Y-35471508D01*
X131350487Y-35399689D01*
X131357843Y-35325000D01*
X131356000Y-34922250D01*
X131260750Y-34827000D01*
X130227000Y-34827000D01*
X129973000Y-34827000D01*
X128939250Y-34827000D01*
X128900000Y-34866250D01*
X128860750Y-34827000D01*
X127827000Y-34827000D01*
X127573000Y-34827000D01*
X126539250Y-34827000D01*
X126444000Y-34922250D01*
X126442157Y-35325000D01*
X125055380Y-35325000D01*
X125057843Y-35300000D01*
X125056000Y-34922250D01*
X124960750Y-34827000D01*
X123927000Y-34827000D01*
X123927000Y-34847000D01*
X123673000Y-34847000D01*
X123673000Y-34827000D01*
X123653000Y-34827000D01*
X123653000Y-34573000D01*
X123673000Y-34573000D01*
X123673000Y-33814250D01*
X123927000Y-33814250D01*
X123927000Y-34573000D01*
X124960750Y-34573000D01*
X125056000Y-34477750D01*
X125057843Y-34100000D01*
X125055381Y-34075000D01*
X126442157Y-34075000D01*
X126444000Y-34477750D01*
X126539250Y-34573000D01*
X127573000Y-34573000D01*
X127573000Y-33789250D01*
X127827000Y-33789250D01*
X127827000Y-34573000D01*
X128860750Y-34573000D01*
X128900000Y-34533750D01*
X128939250Y-34573000D01*
X129973000Y-34573000D01*
X129973000Y-33789250D01*
X130227000Y-33789250D01*
X130227000Y-34573000D01*
X131260750Y-34573000D01*
X131356000Y-34477750D01*
X131357843Y-34075000D01*
X131350487Y-34000311D01*
X131328701Y-33928492D01*
X131293322Y-33862304D01*
X131245711Y-33804289D01*
X131187696Y-33756678D01*
X131121508Y-33721299D01*
X131049689Y-33699513D01*
X130975000Y-33692157D01*
X130322250Y-33694000D01*
X130227000Y-33789250D01*
X129973000Y-33789250D01*
X129877750Y-33694000D01*
X129225000Y-33692157D01*
X129150311Y-33699513D01*
X129078492Y-33721299D01*
X129012304Y-33756678D01*
X128954289Y-33804289D01*
X128906678Y-33862304D01*
X128900000Y-33874797D01*
X128893322Y-33862304D01*
X128845711Y-33804289D01*
X128787696Y-33756678D01*
X128721508Y-33721299D01*
X128649689Y-33699513D01*
X128575000Y-33692157D01*
X127922250Y-33694000D01*
X127827000Y-33789250D01*
X127573000Y-33789250D01*
X127477750Y-33694000D01*
X126825000Y-33692157D01*
X126750311Y-33699513D01*
X126678492Y-33721299D01*
X126612304Y-33756678D01*
X126554289Y-33804289D01*
X126506678Y-33862304D01*
X126471299Y-33928492D01*
X126449513Y-34000311D01*
X126442157Y-34075000D01*
X125055381Y-34075000D01*
X125050487Y-34025311D01*
X125028701Y-33953492D01*
X124993322Y-33887304D01*
X124945711Y-33829289D01*
X124887696Y-33781678D01*
X124821508Y-33746299D01*
X124749689Y-33724513D01*
X124675000Y-33717157D01*
X124022250Y-33719000D01*
X123927000Y-33814250D01*
X123673000Y-33814250D01*
X123577750Y-33719000D01*
X122925000Y-33717157D01*
X122850311Y-33724513D01*
X122778492Y-33746299D01*
X122712304Y-33781678D01*
X122654289Y-33829289D01*
X122627000Y-33862541D01*
X122627000Y-33450000D01*
X132467157Y-33450000D01*
X132469000Y-34477750D01*
X132564250Y-34573000D01*
X133873000Y-34573000D01*
X133873000Y-33164250D01*
X134127000Y-33164250D01*
X134127000Y-34573000D01*
X135435750Y-34573000D01*
X135531000Y-34477750D01*
X135532798Y-33475000D01*
X136342157Y-33475000D01*
X136344000Y-33877750D01*
X136439250Y-33973000D01*
X137473000Y-33973000D01*
X137473000Y-33189250D01*
X137377750Y-33094000D01*
X136725000Y-33092157D01*
X136650311Y-33099513D01*
X136578492Y-33121299D01*
X136512304Y-33156678D01*
X136454289Y-33204289D01*
X136406678Y-33262304D01*
X136371299Y-33328492D01*
X136349513Y-33400311D01*
X136342157Y-33475000D01*
X135532798Y-33475000D01*
X135532843Y-33450000D01*
X135525487Y-33375311D01*
X135503701Y-33303492D01*
X135468322Y-33237304D01*
X135420711Y-33179289D01*
X135362696Y-33131678D01*
X135296508Y-33096299D01*
X135224689Y-33074513D01*
X135150000Y-33067157D01*
X134222250Y-33069000D01*
X134127000Y-33164250D01*
X133873000Y-33164250D01*
X133777750Y-33069000D01*
X132850000Y-33067157D01*
X132775311Y-33074513D01*
X132703492Y-33096299D01*
X132637304Y-33131678D01*
X132579289Y-33179289D01*
X132531678Y-33237304D01*
X132496299Y-33303492D01*
X132474513Y-33375311D01*
X132467157Y-33450000D01*
X122627000Y-33450000D01*
X122627000Y-32475000D01*
X143392157Y-32475000D01*
X143399513Y-32549689D01*
X143421299Y-32621508D01*
X143456678Y-32687696D01*
X143504289Y-32745711D01*
X143562304Y-32793322D01*
X143628492Y-32828701D01*
X143700311Y-32850487D01*
X143775000Y-32857843D01*
X144177750Y-32856000D01*
X144273000Y-32760750D01*
X144273000Y-31727000D01*
X144527000Y-31727000D01*
X144527000Y-32760750D01*
X144622250Y-32856000D01*
X145025000Y-32857843D01*
X145099689Y-32850487D01*
X145171508Y-32828701D01*
X145237696Y-32793322D01*
X145295711Y-32745711D01*
X145343322Y-32687696D01*
X145378701Y-32621508D01*
X145400487Y-32549689D01*
X145407843Y-32475000D01*
X145406000Y-31822250D01*
X145310750Y-31727000D01*
X144527000Y-31727000D01*
X144273000Y-31727000D01*
X143489250Y-31727000D01*
X143394000Y-31822250D01*
X143392157Y-32475000D01*
X122627000Y-32475000D01*
X122627000Y-30725000D01*
X143392157Y-30725000D01*
X143394000Y-31377750D01*
X143489250Y-31473000D01*
X144273000Y-31473000D01*
X144273000Y-30439250D01*
X144527000Y-30439250D01*
X144527000Y-31473000D01*
X145310750Y-31473000D01*
X145406000Y-31377750D01*
X145407843Y-30725000D01*
X145400487Y-30650311D01*
X145378701Y-30578492D01*
X145343322Y-30512304D01*
X145295711Y-30454289D01*
X145237696Y-30406678D01*
X145171508Y-30371299D01*
X145099689Y-30349513D01*
X145025000Y-30342157D01*
X144622250Y-30344000D01*
X144527000Y-30439250D01*
X144273000Y-30439250D01*
X144177750Y-30344000D01*
X143775000Y-30342157D01*
X143700311Y-30349513D01*
X143628492Y-30371299D01*
X143562304Y-30406678D01*
X143504289Y-30454289D01*
X143456678Y-30512304D01*
X143421299Y-30578492D01*
X143399513Y-30650311D01*
X143392157Y-30725000D01*
X122627000Y-30725000D01*
X122627000Y-30127000D01*
X145673000Y-30127000D01*
X145673000Y-32973000D01*
G37*
X145673000Y-32973000D02*
X138700000Y-32973000D01*
X138675224Y-32975440D01*
X138651399Y-32982667D01*
X138629443Y-32994403D01*
X138610197Y-33010197D01*
X138594403Y-33029443D01*
X138582667Y-33051399D01*
X138575440Y-33075224D01*
X138573000Y-33100000D01*
X138573000Y-33106584D01*
X138549689Y-33099513D01*
X138475000Y-33092157D01*
X137822250Y-33094000D01*
X137727000Y-33189250D01*
X137727000Y-33973000D01*
X137747000Y-33973000D01*
X137747000Y-34227000D01*
X137727000Y-34227000D01*
X137727000Y-34247000D01*
X137473000Y-34247000D01*
X137473000Y-34227000D01*
X136439250Y-34227000D01*
X136344000Y-34322250D01*
X136342157Y-34725000D01*
X136349513Y-34799689D01*
X136371299Y-34871508D01*
X136372097Y-34873000D01*
X136100000Y-34873000D01*
X136075224Y-34875440D01*
X136051399Y-34882667D01*
X136029443Y-34894403D01*
X136010197Y-34910197D01*
X135994403Y-34929443D01*
X135982667Y-34951399D01*
X135975440Y-34975224D01*
X135973000Y-35000000D01*
X135973000Y-36373000D01*
X132027000Y-36373000D01*
X132027000Y-35950000D01*
X132467157Y-35950000D01*
X132474513Y-36024689D01*
X132496299Y-36096508D01*
X132531678Y-36162696D01*
X132579289Y-36220711D01*
X132637304Y-36268322D01*
X132703492Y-36303701D01*
X132775311Y-36325487D01*
X132850000Y-36332843D01*
X133777750Y-36331000D01*
X133873000Y-36235750D01*
X133873000Y-34827000D01*
X134127000Y-34827000D01*
X134127000Y-36235750D01*
X134222250Y-36331000D01*
X135150000Y-36332843D01*
X135224689Y-36325487D01*
X135296508Y-36303701D01*
X135362696Y-36268322D01*
X135420711Y-36220711D01*
X135468322Y-36162696D01*
X135503701Y-36096508D01*
X135525487Y-36024689D01*
X135532843Y-35950000D01*
X135531000Y-34922250D01*
X135435750Y-34827000D01*
X134127000Y-34827000D01*
X133873000Y-34827000D01*
X132564250Y-34827000D01*
X132469000Y-34922250D01*
X132467157Y-35950000D01*
X132027000Y-35950000D01*
X132027000Y-35900000D01*
X132024560Y-35875224D01*
X132017333Y-35851399D01*
X132005597Y-35829443D01*
X131989803Y-35810197D01*
X131970557Y-35794403D01*
X131948601Y-35782667D01*
X131924776Y-35775440D01*
X131900000Y-35773000D01*
X126742333Y-35773000D01*
X126376200Y-35498400D01*
X126354915Y-35485486D01*
X126331519Y-35476973D01*
X126300000Y-35473000D01*
X125014540Y-35473000D01*
X125028701Y-35446508D01*
X125050487Y-35374689D01*
X125055380Y-35325000D01*
X126442157Y-35325000D01*
X126449513Y-35399689D01*
X126471299Y-35471508D01*
X126506678Y-35537696D01*
X126554289Y-35595711D01*
X126612304Y-35643322D01*
X126678492Y-35678701D01*
X126750311Y-35700487D01*
X126825000Y-35707843D01*
X127477750Y-35706000D01*
X127573000Y-35610750D01*
X127573000Y-34827000D01*
X127827000Y-34827000D01*
X127827000Y-35610750D01*
X127922250Y-35706000D01*
X128575000Y-35707843D01*
X128649689Y-35700487D01*
X128721508Y-35678701D01*
X128787696Y-35643322D01*
X128845711Y-35595711D01*
X128893322Y-35537696D01*
X128900000Y-35525203D01*
X128906678Y-35537696D01*
X128954289Y-35595711D01*
X129012304Y-35643322D01*
X129078492Y-35678701D01*
X129150311Y-35700487D01*
X129225000Y-35707843D01*
X129877750Y-35706000D01*
X129973000Y-35610750D01*
X129973000Y-34827000D01*
X130227000Y-34827000D01*
X130227000Y-35610750D01*
X130322250Y-35706000D01*
X130975000Y-35707843D01*
X131049689Y-35700487D01*
X131121508Y-35678701D01*
X131187696Y-35643322D01*
X131245711Y-35595711D01*
X131293322Y-35537696D01*
X131328701Y-35471508D01*
X131350487Y-35399689D01*
X131357843Y-35325000D01*
X131356000Y-34922250D01*
X131260750Y-34827000D01*
X130227000Y-34827000D01*
X129973000Y-34827000D01*
X128939250Y-34827000D01*
X128900000Y-34866250D01*
X128860750Y-34827000D01*
X127827000Y-34827000D01*
X127573000Y-34827000D01*
X126539250Y-34827000D01*
X126444000Y-34922250D01*
X126442157Y-35325000D01*
X125055380Y-35325000D01*
X125057843Y-35300000D01*
X125056000Y-34922250D01*
X124960750Y-34827000D01*
X123927000Y-34827000D01*
X123927000Y-34847000D01*
X123673000Y-34847000D01*
X123673000Y-34827000D01*
X123653000Y-34827000D01*
X123653000Y-34573000D01*
X123673000Y-34573000D01*
X123673000Y-33814250D01*
X123927000Y-33814250D01*
X123927000Y-34573000D01*
X124960750Y-34573000D01*
X125056000Y-34477750D01*
X125057843Y-34100000D01*
X125055381Y-34075000D01*
X126442157Y-34075000D01*
X126444000Y-34477750D01*
X126539250Y-34573000D01*
X127573000Y-34573000D01*
X127573000Y-33789250D01*
X127827000Y-33789250D01*
X127827000Y-34573000D01*
X128860750Y-34573000D01*
X128900000Y-34533750D01*
X128939250Y-34573000D01*
X129973000Y-34573000D01*
X129973000Y-33789250D01*
X130227000Y-33789250D01*
X130227000Y-34573000D01*
X131260750Y-34573000D01*
X131356000Y-34477750D01*
X131357843Y-34075000D01*
X131350487Y-34000311D01*
X131328701Y-33928492D01*
X131293322Y-33862304D01*
X131245711Y-33804289D01*
X131187696Y-33756678D01*
X131121508Y-33721299D01*
X131049689Y-33699513D01*
X130975000Y-33692157D01*
X130322250Y-33694000D01*
X130227000Y-33789250D01*
X129973000Y-33789250D01*
X129877750Y-33694000D01*
X129225000Y-33692157D01*
X129150311Y-33699513D01*
X129078492Y-33721299D01*
X129012304Y-33756678D01*
X128954289Y-33804289D01*
X128906678Y-33862304D01*
X128900000Y-33874797D01*
X128893322Y-33862304D01*
X128845711Y-33804289D01*
X128787696Y-33756678D01*
X128721508Y-33721299D01*
X128649689Y-33699513D01*
X128575000Y-33692157D01*
X127922250Y-33694000D01*
X127827000Y-33789250D01*
X127573000Y-33789250D01*
X127477750Y-33694000D01*
X126825000Y-33692157D01*
X126750311Y-33699513D01*
X126678492Y-33721299D01*
X126612304Y-33756678D01*
X126554289Y-33804289D01*
X126506678Y-33862304D01*
X126471299Y-33928492D01*
X126449513Y-34000311D01*
X126442157Y-34075000D01*
X125055381Y-34075000D01*
X125050487Y-34025311D01*
X125028701Y-33953492D01*
X124993322Y-33887304D01*
X124945711Y-33829289D01*
X124887696Y-33781678D01*
X124821508Y-33746299D01*
X124749689Y-33724513D01*
X124675000Y-33717157D01*
X124022250Y-33719000D01*
X123927000Y-33814250D01*
X123673000Y-33814250D01*
X123577750Y-33719000D01*
X122925000Y-33717157D01*
X122850311Y-33724513D01*
X122778492Y-33746299D01*
X122712304Y-33781678D01*
X122654289Y-33829289D01*
X122627000Y-33862541D01*
X122627000Y-33450000D01*
X132467157Y-33450000D01*
X132469000Y-34477750D01*
X132564250Y-34573000D01*
X133873000Y-34573000D01*
X133873000Y-33164250D01*
X134127000Y-33164250D01*
X134127000Y-34573000D01*
X135435750Y-34573000D01*
X135531000Y-34477750D01*
X135532798Y-33475000D01*
X136342157Y-33475000D01*
X136344000Y-33877750D01*
X136439250Y-33973000D01*
X137473000Y-33973000D01*
X137473000Y-33189250D01*
X137377750Y-33094000D01*
X136725000Y-33092157D01*
X136650311Y-33099513D01*
X136578492Y-33121299D01*
X136512304Y-33156678D01*
X136454289Y-33204289D01*
X136406678Y-33262304D01*
X136371299Y-33328492D01*
X136349513Y-33400311D01*
X136342157Y-33475000D01*
X135532798Y-33475000D01*
X135532843Y-33450000D01*
X135525487Y-33375311D01*
X135503701Y-33303492D01*
X135468322Y-33237304D01*
X135420711Y-33179289D01*
X135362696Y-33131678D01*
X135296508Y-33096299D01*
X135224689Y-33074513D01*
X135150000Y-33067157D01*
X134222250Y-33069000D01*
X134127000Y-33164250D01*
X133873000Y-33164250D01*
X133777750Y-33069000D01*
X132850000Y-33067157D01*
X132775311Y-33074513D01*
X132703492Y-33096299D01*
X132637304Y-33131678D01*
X132579289Y-33179289D01*
X132531678Y-33237304D01*
X132496299Y-33303492D01*
X132474513Y-33375311D01*
X132467157Y-33450000D01*
X122627000Y-33450000D01*
X122627000Y-32475000D01*
X143392157Y-32475000D01*
X143399513Y-32549689D01*
X143421299Y-32621508D01*
X143456678Y-32687696D01*
X143504289Y-32745711D01*
X143562304Y-32793322D01*
X143628492Y-32828701D01*
X143700311Y-32850487D01*
X143775000Y-32857843D01*
X144177750Y-32856000D01*
X144273000Y-32760750D01*
X144273000Y-31727000D01*
X144527000Y-31727000D01*
X144527000Y-32760750D01*
X144622250Y-32856000D01*
X145025000Y-32857843D01*
X145099689Y-32850487D01*
X145171508Y-32828701D01*
X145237696Y-32793322D01*
X145295711Y-32745711D01*
X145343322Y-32687696D01*
X145378701Y-32621508D01*
X145400487Y-32549689D01*
X145407843Y-32475000D01*
X145406000Y-31822250D01*
X145310750Y-31727000D01*
X144527000Y-31727000D01*
X144273000Y-31727000D01*
X143489250Y-31727000D01*
X143394000Y-31822250D01*
X143392157Y-32475000D01*
X122627000Y-32475000D01*
X122627000Y-30725000D01*
X143392157Y-30725000D01*
X143394000Y-31377750D01*
X143489250Y-31473000D01*
X144273000Y-31473000D01*
X144273000Y-30439250D01*
X144527000Y-30439250D01*
X144527000Y-31473000D01*
X145310750Y-31473000D01*
X145406000Y-31377750D01*
X145407843Y-30725000D01*
X145400487Y-30650311D01*
X145378701Y-30578492D01*
X145343322Y-30512304D01*
X145295711Y-30454289D01*
X145237696Y-30406678D01*
X145171508Y-30371299D01*
X145099689Y-30349513D01*
X145025000Y-30342157D01*
X144622250Y-30344000D01*
X144527000Y-30439250D01*
X144273000Y-30439250D01*
X144177750Y-30344000D01*
X143775000Y-30342157D01*
X143700311Y-30349513D01*
X143628492Y-30371299D01*
X143562304Y-30406678D01*
X143504289Y-30454289D01*
X143456678Y-30512304D01*
X143421299Y-30578492D01*
X143399513Y-30650311D01*
X143392157Y-30725000D01*
X122627000Y-30725000D01*
X122627000Y-30127000D01*
X145673000Y-30127000D01*
X145673000Y-32973000D01*
G36*
X160873000Y-49373000D02*
G01*
X150827000Y-49373000D01*
X150827000Y-48700000D01*
X151017157Y-48700000D01*
X151024513Y-48774689D01*
X151046299Y-48846508D01*
X151081678Y-48912696D01*
X151129289Y-48970711D01*
X151187304Y-49018322D01*
X151253492Y-49053701D01*
X151325311Y-49075487D01*
X151400000Y-49082843D01*
X152627750Y-49081000D01*
X152723000Y-48985750D01*
X152723000Y-46127000D01*
X152977000Y-46127000D01*
X152977000Y-48985750D01*
X153072250Y-49081000D01*
X154300000Y-49082843D01*
X154374689Y-49075487D01*
X154446508Y-49053701D01*
X154512696Y-49018322D01*
X154570711Y-48970711D01*
X154618322Y-48912696D01*
X154653701Y-48846508D01*
X154675487Y-48774689D01*
X154682843Y-48700000D01*
X154682108Y-47711734D01*
X155567871Y-47711734D01*
X155798440Y-48007510D01*
X156215095Y-48222859D01*
X156665756Y-48352783D01*
X157133105Y-48392292D01*
X157599183Y-48339867D01*
X158046076Y-48197521D01*
X158401560Y-48007510D01*
X158632129Y-47711734D01*
X157100000Y-46179605D01*
X155567871Y-47711734D01*
X154682108Y-47711734D01*
X154681000Y-46222250D01*
X154585750Y-46127000D01*
X152977000Y-46127000D01*
X152723000Y-46127000D01*
X151114250Y-46127000D01*
X151019000Y-46222250D01*
X151017157Y-48700000D01*
X150827000Y-48700000D01*
X150827000Y-46033105D01*
X154707708Y-46033105D01*
X154760133Y-46499183D01*
X154902479Y-46946076D01*
X155092490Y-47301560D01*
X155388266Y-47532129D01*
X156920395Y-46000000D01*
X157279605Y-46000000D01*
X158811734Y-47532129D01*
X159107510Y-47301560D01*
X159322859Y-46884905D01*
X159452783Y-46434244D01*
X159492292Y-45966895D01*
X159439867Y-45500817D01*
X159297521Y-45053924D01*
X159107510Y-44698440D01*
X158811734Y-44467871D01*
X157279605Y-46000000D01*
X156920395Y-46000000D01*
X155388266Y-44467871D01*
X155092490Y-44698440D01*
X154877141Y-45115095D01*
X154747217Y-45565756D01*
X154707708Y-46033105D01*
X150827000Y-46033105D01*
X150827000Y-43300000D01*
X151017157Y-43300000D01*
X151019000Y-45777750D01*
X151114250Y-45873000D01*
X152723000Y-45873000D01*
X152723000Y-43014250D01*
X152977000Y-43014250D01*
X152977000Y-45873000D01*
X154585750Y-45873000D01*
X154681000Y-45777750D01*
X154682107Y-44288266D01*
X155567871Y-44288266D01*
X157100000Y-45820395D01*
X158632129Y-44288266D01*
X158401560Y-43992490D01*
X157984905Y-43777141D01*
X157534244Y-43647217D01*
X157066895Y-43607708D01*
X156600817Y-43660133D01*
X156153924Y-43802479D01*
X155798440Y-43992490D01*
X155567871Y-44288266D01*
X154682107Y-44288266D01*
X154682843Y-43300000D01*
X154675487Y-43225311D01*
X154653701Y-43153492D01*
X154618322Y-43087304D01*
X154570711Y-43029289D01*
X154512696Y-42981678D01*
X154446508Y-42946299D01*
X154374689Y-42924513D01*
X154300000Y-42917157D01*
X153072250Y-42919000D01*
X152977000Y-43014250D01*
X152723000Y-43014250D01*
X152627750Y-42919000D01*
X151400000Y-42917157D01*
X151325311Y-42924513D01*
X151253492Y-42946299D01*
X151187304Y-42981678D01*
X151129289Y-43029289D01*
X151081678Y-43087304D01*
X151046299Y-43153492D01*
X151024513Y-43225311D01*
X151017157Y-43300000D01*
X150827000Y-43300000D01*
X150827000Y-42425000D01*
X154642157Y-42425000D01*
X154649513Y-42499689D01*
X154671299Y-42571508D01*
X154706678Y-42637696D01*
X154754289Y-42695711D01*
X154812304Y-42743322D01*
X154878492Y-42778701D01*
X154950311Y-42800487D01*
X155025000Y-42807843D01*
X155677750Y-42806000D01*
X155773000Y-42710750D01*
X155773000Y-41927000D01*
X156027000Y-41927000D01*
X156027000Y-42710750D01*
X156122250Y-42806000D01*
X156775000Y-42807843D01*
X156849689Y-42800487D01*
X156921508Y-42778701D01*
X156987696Y-42743322D01*
X157045711Y-42695711D01*
X157093322Y-42637696D01*
X157128701Y-42571508D01*
X157150000Y-42501294D01*
X157171299Y-42571508D01*
X157206678Y-42637696D01*
X157254289Y-42695711D01*
X157312304Y-42743322D01*
X157378492Y-42778701D01*
X157450311Y-42800487D01*
X157525000Y-42807843D01*
X158177750Y-42806000D01*
X158273000Y-42710750D01*
X158273000Y-41927000D01*
X158527000Y-41927000D01*
X158527000Y-42710750D01*
X158622250Y-42806000D01*
X159275000Y-42807843D01*
X159349689Y-42800487D01*
X159421508Y-42778701D01*
X159487696Y-42743322D01*
X159545711Y-42695711D01*
X159593322Y-42637696D01*
X159628701Y-42571508D01*
X159650487Y-42499689D01*
X159657843Y-42425000D01*
X159656000Y-42022250D01*
X159560750Y-41927000D01*
X158527000Y-41927000D01*
X158273000Y-41927000D01*
X157239250Y-41927000D01*
X157150000Y-42016250D01*
X157060750Y-41927000D01*
X156027000Y-41927000D01*
X155773000Y-41927000D01*
X154739250Y-41927000D01*
X154644000Y-42022250D01*
X154642157Y-42425000D01*
X150827000Y-42425000D01*
X150827000Y-41175000D01*
X154642157Y-41175000D01*
X154644000Y-41577750D01*
X154739250Y-41673000D01*
X155773000Y-41673000D01*
X155773000Y-40889250D01*
X156027000Y-40889250D01*
X156027000Y-41673000D01*
X157060750Y-41673000D01*
X157150000Y-41583750D01*
X157239250Y-41673000D01*
X158273000Y-41673000D01*
X158273000Y-40889250D01*
X158527000Y-40889250D01*
X158527000Y-41673000D01*
X159560750Y-41673000D01*
X159656000Y-41577750D01*
X159657843Y-41175000D01*
X159650487Y-41100311D01*
X159628701Y-41028492D01*
X159593322Y-40962304D01*
X159545711Y-40904289D01*
X159487696Y-40856678D01*
X159421508Y-40821299D01*
X159349689Y-40799513D01*
X159275000Y-40792157D01*
X158622250Y-40794000D01*
X158527000Y-40889250D01*
X158273000Y-40889250D01*
X158177750Y-40794000D01*
X157525000Y-40792157D01*
X157450311Y-40799513D01*
X157378492Y-40821299D01*
X157312304Y-40856678D01*
X157254289Y-40904289D01*
X157206678Y-40962304D01*
X157171299Y-41028492D01*
X157150000Y-41098706D01*
X157128701Y-41028492D01*
X157093322Y-40962304D01*
X157045711Y-40904289D01*
X156987696Y-40856678D01*
X156921508Y-40821299D01*
X156849689Y-40799513D01*
X156775000Y-40792157D01*
X156122250Y-40794000D01*
X156027000Y-40889250D01*
X155773000Y-40889250D01*
X155677750Y-40794000D01*
X155025000Y-40792157D01*
X154950311Y-40799513D01*
X154878492Y-40821299D01*
X154812304Y-40856678D01*
X154754289Y-40904289D01*
X154706678Y-40962304D01*
X154671299Y-41028492D01*
X154649513Y-41100311D01*
X154642157Y-41175000D01*
X150827000Y-41175000D01*
X150827000Y-40627000D01*
X160873000Y-40627000D01*
X160873000Y-49373000D01*
G37*
X160873000Y-49373000D02*
X150827000Y-49373000D01*
X150827000Y-48700000D01*
X151017157Y-48700000D01*
X151024513Y-48774689D01*
X151046299Y-48846508D01*
X151081678Y-48912696D01*
X151129289Y-48970711D01*
X151187304Y-49018322D01*
X151253492Y-49053701D01*
X151325311Y-49075487D01*
X151400000Y-49082843D01*
X152627750Y-49081000D01*
X152723000Y-48985750D01*
X152723000Y-46127000D01*
X152977000Y-46127000D01*
X152977000Y-48985750D01*
X153072250Y-49081000D01*
X154300000Y-49082843D01*
X154374689Y-49075487D01*
X154446508Y-49053701D01*
X154512696Y-49018322D01*
X154570711Y-48970711D01*
X154618322Y-48912696D01*
X154653701Y-48846508D01*
X154675487Y-48774689D01*
X154682843Y-48700000D01*
X154682108Y-47711734D01*
X155567871Y-47711734D01*
X155798440Y-48007510D01*
X156215095Y-48222859D01*
X156665756Y-48352783D01*
X157133105Y-48392292D01*
X157599183Y-48339867D01*
X158046076Y-48197521D01*
X158401560Y-48007510D01*
X158632129Y-47711734D01*
X157100000Y-46179605D01*
X155567871Y-47711734D01*
X154682108Y-47711734D01*
X154681000Y-46222250D01*
X154585750Y-46127000D01*
X152977000Y-46127000D01*
X152723000Y-46127000D01*
X151114250Y-46127000D01*
X151019000Y-46222250D01*
X151017157Y-48700000D01*
X150827000Y-48700000D01*
X150827000Y-46033105D01*
X154707708Y-46033105D01*
X154760133Y-46499183D01*
X154902479Y-46946076D01*
X155092490Y-47301560D01*
X155388266Y-47532129D01*
X156920395Y-46000000D01*
X157279605Y-46000000D01*
X158811734Y-47532129D01*
X159107510Y-47301560D01*
X159322859Y-46884905D01*
X159452783Y-46434244D01*
X159492292Y-45966895D01*
X159439867Y-45500817D01*
X159297521Y-45053924D01*
X159107510Y-44698440D01*
X158811734Y-44467871D01*
X157279605Y-46000000D01*
X156920395Y-46000000D01*
X155388266Y-44467871D01*
X155092490Y-44698440D01*
X154877141Y-45115095D01*
X154747217Y-45565756D01*
X154707708Y-46033105D01*
X150827000Y-46033105D01*
X150827000Y-43300000D01*
X151017157Y-43300000D01*
X151019000Y-45777750D01*
X151114250Y-45873000D01*
X152723000Y-45873000D01*
X152723000Y-43014250D01*
X152977000Y-43014250D01*
X152977000Y-45873000D01*
X154585750Y-45873000D01*
X154681000Y-45777750D01*
X154682107Y-44288266D01*
X155567871Y-44288266D01*
X157100000Y-45820395D01*
X158632129Y-44288266D01*
X158401560Y-43992490D01*
X157984905Y-43777141D01*
X157534244Y-43647217D01*
X157066895Y-43607708D01*
X156600817Y-43660133D01*
X156153924Y-43802479D01*
X155798440Y-43992490D01*
X155567871Y-44288266D01*
X154682107Y-44288266D01*
X154682843Y-43300000D01*
X154675487Y-43225311D01*
X154653701Y-43153492D01*
X154618322Y-43087304D01*
X154570711Y-43029289D01*
X154512696Y-42981678D01*
X154446508Y-42946299D01*
X154374689Y-42924513D01*
X154300000Y-42917157D01*
X153072250Y-42919000D01*
X152977000Y-43014250D01*
X152723000Y-43014250D01*
X152627750Y-42919000D01*
X151400000Y-42917157D01*
X151325311Y-42924513D01*
X151253492Y-42946299D01*
X151187304Y-42981678D01*
X151129289Y-43029289D01*
X151081678Y-43087304D01*
X151046299Y-43153492D01*
X151024513Y-43225311D01*
X151017157Y-43300000D01*
X150827000Y-43300000D01*
X150827000Y-42425000D01*
X154642157Y-42425000D01*
X154649513Y-42499689D01*
X154671299Y-42571508D01*
X154706678Y-42637696D01*
X154754289Y-42695711D01*
X154812304Y-42743322D01*
X154878492Y-42778701D01*
X154950311Y-42800487D01*
X155025000Y-42807843D01*
X155677750Y-42806000D01*
X155773000Y-42710750D01*
X155773000Y-41927000D01*
X156027000Y-41927000D01*
X156027000Y-42710750D01*
X156122250Y-42806000D01*
X156775000Y-42807843D01*
X156849689Y-42800487D01*
X156921508Y-42778701D01*
X156987696Y-42743322D01*
X157045711Y-42695711D01*
X157093322Y-42637696D01*
X157128701Y-42571508D01*
X157150000Y-42501294D01*
X157171299Y-42571508D01*
X157206678Y-42637696D01*
X157254289Y-42695711D01*
X157312304Y-42743322D01*
X157378492Y-42778701D01*
X157450311Y-42800487D01*
X157525000Y-42807843D01*
X158177750Y-42806000D01*
X158273000Y-42710750D01*
X158273000Y-41927000D01*
X158527000Y-41927000D01*
X158527000Y-42710750D01*
X158622250Y-42806000D01*
X159275000Y-42807843D01*
X159349689Y-42800487D01*
X159421508Y-42778701D01*
X159487696Y-42743322D01*
X159545711Y-42695711D01*
X159593322Y-42637696D01*
X159628701Y-42571508D01*
X159650487Y-42499689D01*
X159657843Y-42425000D01*
X159656000Y-42022250D01*
X159560750Y-41927000D01*
X158527000Y-41927000D01*
X158273000Y-41927000D01*
X157239250Y-41927000D01*
X157150000Y-42016250D01*
X157060750Y-41927000D01*
X156027000Y-41927000D01*
X155773000Y-41927000D01*
X154739250Y-41927000D01*
X154644000Y-42022250D01*
X154642157Y-42425000D01*
X150827000Y-42425000D01*
X150827000Y-41175000D01*
X154642157Y-41175000D01*
X154644000Y-41577750D01*
X154739250Y-41673000D01*
X155773000Y-41673000D01*
X155773000Y-40889250D01*
X156027000Y-40889250D01*
X156027000Y-41673000D01*
X157060750Y-41673000D01*
X157150000Y-41583750D01*
X157239250Y-41673000D01*
X158273000Y-41673000D01*
X158273000Y-40889250D01*
X158527000Y-40889250D01*
X158527000Y-41673000D01*
X159560750Y-41673000D01*
X159656000Y-41577750D01*
X159657843Y-41175000D01*
X159650487Y-41100311D01*
X159628701Y-41028492D01*
X159593322Y-40962304D01*
X159545711Y-40904289D01*
X159487696Y-40856678D01*
X159421508Y-40821299D01*
X159349689Y-40799513D01*
X159275000Y-40792157D01*
X158622250Y-40794000D01*
X158527000Y-40889250D01*
X158273000Y-40889250D01*
X158177750Y-40794000D01*
X157525000Y-40792157D01*
X157450311Y-40799513D01*
X157378492Y-40821299D01*
X157312304Y-40856678D01*
X157254289Y-40904289D01*
X157206678Y-40962304D01*
X157171299Y-41028492D01*
X157150000Y-41098706D01*
X157128701Y-41028492D01*
X157093322Y-40962304D01*
X157045711Y-40904289D01*
X156987696Y-40856678D01*
X156921508Y-40821299D01*
X156849689Y-40799513D01*
X156775000Y-40792157D01*
X156122250Y-40794000D01*
X156027000Y-40889250D01*
X155773000Y-40889250D01*
X155677750Y-40794000D01*
X155025000Y-40792157D01*
X154950311Y-40799513D01*
X154878492Y-40821299D01*
X154812304Y-40856678D01*
X154754289Y-40904289D01*
X154706678Y-40962304D01*
X154671299Y-41028492D01*
X154649513Y-41100311D01*
X154642157Y-41175000D01*
X150827000Y-41175000D01*
X150827000Y-40627000D01*
X160873000Y-40627000D01*
X160873000Y-49373000D01*
G36*
X142403968Y-35958043D02*
G01*
X142431552Y-35972787D01*
X142403492Y-35981299D01*
X142337304Y-36016678D01*
X142279289Y-36064289D01*
X142231678Y-36122304D01*
X142196299Y-36188492D01*
X142174513Y-36260311D01*
X142167157Y-36335000D01*
X142169000Y-36412750D01*
X142264250Y-36508000D01*
X143223000Y-36508000D01*
X143223000Y-36488000D01*
X143477000Y-36488000D01*
X143477000Y-36508000D01*
X143497000Y-36508000D01*
X143497000Y-36762000D01*
X143477000Y-36762000D01*
X143477000Y-37220750D01*
X143526250Y-37270000D01*
X143477000Y-37319250D01*
X143477000Y-37778000D01*
X143497000Y-37778000D01*
X143497000Y-38032000D01*
X143477000Y-38032000D01*
X143477000Y-38490750D01*
X143572250Y-38586000D01*
X144150000Y-38587843D01*
X144224689Y-38580487D01*
X144296508Y-38558701D01*
X144362696Y-38523322D01*
X144373000Y-38514866D01*
X144373000Y-40000000D01*
X144375440Y-40024776D01*
X144382667Y-40048601D01*
X144394403Y-40070557D01*
X144410197Y-40089803D01*
X144429443Y-40105597D01*
X144451399Y-40117333D01*
X144475224Y-40124560D01*
X144500000Y-40127000D01*
X145773000Y-40127000D01*
X145773000Y-49373000D01*
X140327000Y-49373000D01*
X140327000Y-48700000D01*
X141317157Y-48700000D01*
X141324513Y-48774689D01*
X141346299Y-48846508D01*
X141381678Y-48912696D01*
X141429289Y-48970711D01*
X141487304Y-49018322D01*
X141553492Y-49053701D01*
X141625311Y-49075487D01*
X141700000Y-49082843D01*
X142927750Y-49081000D01*
X143023000Y-48985750D01*
X143023000Y-46127000D01*
X143277000Y-46127000D01*
X143277000Y-48985750D01*
X143372250Y-49081000D01*
X144600000Y-49082843D01*
X144674689Y-49075487D01*
X144746508Y-49053701D01*
X144812696Y-49018322D01*
X144870711Y-48970711D01*
X144918322Y-48912696D01*
X144953701Y-48846508D01*
X144975487Y-48774689D01*
X144982843Y-48700000D01*
X144981000Y-46222250D01*
X144885750Y-46127000D01*
X143277000Y-46127000D01*
X143023000Y-46127000D01*
X141414250Y-46127000D01*
X141319000Y-46222250D01*
X141317157Y-48700000D01*
X140327000Y-48700000D01*
X140327000Y-46200000D01*
X140324560Y-46175224D01*
X140317333Y-46151399D01*
X140305597Y-46129443D01*
X140289803Y-46110197D01*
X140270557Y-46094403D01*
X140248601Y-46082667D01*
X140224776Y-46075440D01*
X140200000Y-46073000D01*
X133727000Y-46073000D01*
X133727000Y-44985718D01*
X133750987Y-44927809D01*
X133781000Y-44776922D01*
X133781000Y-44623078D01*
X133750987Y-44472191D01*
X133727000Y-44414282D01*
X133727000Y-43300000D01*
X141317157Y-43300000D01*
X141319000Y-45777750D01*
X141414250Y-45873000D01*
X143023000Y-45873000D01*
X143023000Y-43014250D01*
X143277000Y-43014250D01*
X143277000Y-45873000D01*
X144885750Y-45873000D01*
X144981000Y-45777750D01*
X144982843Y-43300000D01*
X144975487Y-43225311D01*
X144953701Y-43153492D01*
X144918322Y-43087304D01*
X144870711Y-43029289D01*
X144812696Y-42981678D01*
X144746508Y-42946299D01*
X144674689Y-42924513D01*
X144600000Y-42917157D01*
X143372250Y-42919000D01*
X143277000Y-43014250D01*
X143023000Y-43014250D01*
X142927750Y-42919000D01*
X141700000Y-42917157D01*
X141625311Y-42924513D01*
X141553492Y-42946299D01*
X141487304Y-42981678D01*
X141429289Y-43029289D01*
X141381678Y-43087304D01*
X141346299Y-43153492D01*
X141324513Y-43225311D01*
X141317157Y-43300000D01*
X133727000Y-43300000D01*
X133727000Y-42400000D01*
X133724560Y-42375224D01*
X133717333Y-42351399D01*
X133705597Y-42329443D01*
X133689803Y-42310197D01*
X133670557Y-42294403D01*
X133648601Y-42282667D01*
X133624776Y-42275440D01*
X133600000Y-42273000D01*
X131427000Y-42273000D01*
X131427000Y-40250000D01*
X132467157Y-40250000D01*
X132474513Y-40324689D01*
X132496299Y-40396508D01*
X132531678Y-40462696D01*
X132579289Y-40520711D01*
X132637304Y-40568322D01*
X132703492Y-40603701D01*
X132775311Y-40625487D01*
X132850000Y-40632843D01*
X133777750Y-40631000D01*
X133873000Y-40535750D01*
X133873000Y-39127000D01*
X134127000Y-39127000D01*
X134127000Y-40535750D01*
X134222250Y-40631000D01*
X135150000Y-40632843D01*
X135224689Y-40625487D01*
X135296508Y-40603701D01*
X135362696Y-40568322D01*
X135420711Y-40520711D01*
X135468322Y-40462696D01*
X135503701Y-40396508D01*
X135525487Y-40324689D01*
X135532843Y-40250000D01*
X135531000Y-39222250D01*
X135435750Y-39127000D01*
X134127000Y-39127000D01*
X133873000Y-39127000D01*
X132564250Y-39127000D01*
X132469000Y-39222250D01*
X132467157Y-40250000D01*
X131427000Y-40250000D01*
X131427000Y-37750000D01*
X132467157Y-37750000D01*
X132469000Y-38777750D01*
X132564250Y-38873000D01*
X133873000Y-38873000D01*
X133873000Y-37464250D01*
X134127000Y-37464250D01*
X134127000Y-38873000D01*
X135435750Y-38873000D01*
X135531000Y-38777750D01*
X135532843Y-37750000D01*
X135525487Y-37675311D01*
X135503701Y-37603492D01*
X135468322Y-37537304D01*
X135420711Y-37479289D01*
X135362696Y-37431678D01*
X135296508Y-37396299D01*
X135224689Y-37374513D01*
X135150000Y-37367157D01*
X134222250Y-37369000D01*
X134127000Y-37464250D01*
X133873000Y-37464250D01*
X133777750Y-37369000D01*
X132850000Y-37367157D01*
X132775311Y-37374513D01*
X132703492Y-37396299D01*
X132637304Y-37431678D01*
X132579289Y-37479289D01*
X132531678Y-37537304D01*
X132496299Y-37603492D01*
X132474513Y-37675311D01*
X132467157Y-37750000D01*
X131427000Y-37750000D01*
X131427000Y-36927000D01*
X135873000Y-36927000D01*
X135873000Y-38700000D01*
X135875440Y-38724776D01*
X135882667Y-38748601D01*
X135894403Y-38770557D01*
X135910197Y-38789803D01*
X135929443Y-38805597D01*
X135951399Y-38817333D01*
X135975224Y-38824560D01*
X136000000Y-38827000D01*
X137132609Y-38827000D01*
X137230058Y-38892113D01*
X137372191Y-38950987D01*
X137523078Y-38981000D01*
X137676922Y-38981000D01*
X137827809Y-38950987D01*
X137969942Y-38892113D01*
X138061405Y-38831000D01*
X138338595Y-38831000D01*
X138430058Y-38892113D01*
X138572191Y-38950987D01*
X138723078Y-38981000D01*
X138876922Y-38981000D01*
X139027809Y-38950987D01*
X139169942Y-38892113D01*
X139261405Y-38831000D01*
X139638595Y-38831000D01*
X139730058Y-38892113D01*
X139872191Y-38950987D01*
X140023078Y-38981000D01*
X140176922Y-38981000D01*
X140327809Y-38950987D01*
X140469942Y-38892113D01*
X140567391Y-38827000D01*
X141400000Y-38827000D01*
X141424776Y-38824560D01*
X141448601Y-38817333D01*
X141470557Y-38805597D01*
X141489803Y-38789803D01*
X141505597Y-38770557D01*
X141517333Y-38748601D01*
X141524560Y-38724776D01*
X141527000Y-38700000D01*
X141527000Y-38205000D01*
X142167157Y-38205000D01*
X142174513Y-38279689D01*
X142196299Y-38351508D01*
X142231678Y-38417696D01*
X142279289Y-38475711D01*
X142337304Y-38523322D01*
X142403492Y-38558701D01*
X142475311Y-38580487D01*
X142550000Y-38587843D01*
X143127750Y-38586000D01*
X143223000Y-38490750D01*
X143223000Y-38032000D01*
X142264250Y-38032000D01*
X142169000Y-38127250D01*
X142167157Y-38205000D01*
X141527000Y-38205000D01*
X141527000Y-36935000D01*
X142167157Y-36935000D01*
X142174513Y-37009689D01*
X142196299Y-37081508D01*
X142231678Y-37147696D01*
X142279289Y-37205711D01*
X142337304Y-37253322D01*
X142368506Y-37270000D01*
X142337304Y-37286678D01*
X142279289Y-37334289D01*
X142231678Y-37392304D01*
X142196299Y-37458492D01*
X142174513Y-37530311D01*
X142167157Y-37605000D01*
X142169000Y-37682750D01*
X142264250Y-37778000D01*
X143223000Y-37778000D01*
X143223000Y-37319250D01*
X143173750Y-37270000D01*
X143223000Y-37220750D01*
X143223000Y-36762000D01*
X142264250Y-36762000D01*
X142169000Y-36857250D01*
X142167157Y-36935000D01*
X141527000Y-36935000D01*
X141527000Y-35927000D01*
X142366142Y-35927000D01*
X142403968Y-35958043D01*
G37*
X142403968Y-35958043D02*
X142431552Y-35972787D01*
X142403492Y-35981299D01*
X142337304Y-36016678D01*
X142279289Y-36064289D01*
X142231678Y-36122304D01*
X142196299Y-36188492D01*
X142174513Y-36260311D01*
X142167157Y-36335000D01*
X142169000Y-36412750D01*
X142264250Y-36508000D01*
X143223000Y-36508000D01*
X143223000Y-36488000D01*
X143477000Y-36488000D01*
X143477000Y-36508000D01*
X143497000Y-36508000D01*
X143497000Y-36762000D01*
X143477000Y-36762000D01*
X143477000Y-37220750D01*
X143526250Y-37270000D01*
X143477000Y-37319250D01*
X143477000Y-37778000D01*
X143497000Y-37778000D01*
X143497000Y-38032000D01*
X143477000Y-38032000D01*
X143477000Y-38490750D01*
X143572250Y-38586000D01*
X144150000Y-38587843D01*
X144224689Y-38580487D01*
X144296508Y-38558701D01*
X144362696Y-38523322D01*
X144373000Y-38514866D01*
X144373000Y-40000000D01*
X144375440Y-40024776D01*
X144382667Y-40048601D01*
X144394403Y-40070557D01*
X144410197Y-40089803D01*
X144429443Y-40105597D01*
X144451399Y-40117333D01*
X144475224Y-40124560D01*
X144500000Y-40127000D01*
X145773000Y-40127000D01*
X145773000Y-49373000D01*
X140327000Y-49373000D01*
X140327000Y-48700000D01*
X141317157Y-48700000D01*
X141324513Y-48774689D01*
X141346299Y-48846508D01*
X141381678Y-48912696D01*
X141429289Y-48970711D01*
X141487304Y-49018322D01*
X141553492Y-49053701D01*
X141625311Y-49075487D01*
X141700000Y-49082843D01*
X142927750Y-49081000D01*
X143023000Y-48985750D01*
X143023000Y-46127000D01*
X143277000Y-46127000D01*
X143277000Y-48985750D01*
X143372250Y-49081000D01*
X144600000Y-49082843D01*
X144674689Y-49075487D01*
X144746508Y-49053701D01*
X144812696Y-49018322D01*
X144870711Y-48970711D01*
X144918322Y-48912696D01*
X144953701Y-48846508D01*
X144975487Y-48774689D01*
X144982843Y-48700000D01*
X144981000Y-46222250D01*
X144885750Y-46127000D01*
X143277000Y-46127000D01*
X143023000Y-46127000D01*
X141414250Y-46127000D01*
X141319000Y-46222250D01*
X141317157Y-48700000D01*
X140327000Y-48700000D01*
X140327000Y-46200000D01*
X140324560Y-46175224D01*
X140317333Y-46151399D01*
X140305597Y-46129443D01*
X140289803Y-46110197D01*
X140270557Y-46094403D01*
X140248601Y-46082667D01*
X140224776Y-46075440D01*
X140200000Y-46073000D01*
X133727000Y-46073000D01*
X133727000Y-44985718D01*
X133750987Y-44927809D01*
X133781000Y-44776922D01*
X133781000Y-44623078D01*
X133750987Y-44472191D01*
X133727000Y-44414282D01*
X133727000Y-43300000D01*
X141317157Y-43300000D01*
X141319000Y-45777750D01*
X141414250Y-45873000D01*
X143023000Y-45873000D01*
X143023000Y-43014250D01*
X143277000Y-43014250D01*
X143277000Y-45873000D01*
X144885750Y-45873000D01*
X144981000Y-45777750D01*
X144982843Y-43300000D01*
X144975487Y-43225311D01*
X144953701Y-43153492D01*
X144918322Y-43087304D01*
X144870711Y-43029289D01*
X144812696Y-42981678D01*
X144746508Y-42946299D01*
X144674689Y-42924513D01*
X144600000Y-42917157D01*
X143372250Y-42919000D01*
X143277000Y-43014250D01*
X143023000Y-43014250D01*
X142927750Y-42919000D01*
X141700000Y-42917157D01*
X141625311Y-42924513D01*
X141553492Y-42946299D01*
X141487304Y-42981678D01*
X141429289Y-43029289D01*
X141381678Y-43087304D01*
X141346299Y-43153492D01*
X141324513Y-43225311D01*
X141317157Y-43300000D01*
X133727000Y-43300000D01*
X133727000Y-42400000D01*
X133724560Y-42375224D01*
X133717333Y-42351399D01*
X133705597Y-42329443D01*
X133689803Y-42310197D01*
X133670557Y-42294403D01*
X133648601Y-42282667D01*
X133624776Y-42275440D01*
X133600000Y-42273000D01*
X131427000Y-42273000D01*
X131427000Y-40250000D01*
X132467157Y-40250000D01*
X132474513Y-40324689D01*
X132496299Y-40396508D01*
X132531678Y-40462696D01*
X132579289Y-40520711D01*
X132637304Y-40568322D01*
X132703492Y-40603701D01*
X132775311Y-40625487D01*
X132850000Y-40632843D01*
X133777750Y-40631000D01*
X133873000Y-40535750D01*
X133873000Y-39127000D01*
X134127000Y-39127000D01*
X134127000Y-40535750D01*
X134222250Y-40631000D01*
X135150000Y-40632843D01*
X135224689Y-40625487D01*
X135296508Y-40603701D01*
X135362696Y-40568322D01*
X135420711Y-40520711D01*
X135468322Y-40462696D01*
X135503701Y-40396508D01*
X135525487Y-40324689D01*
X135532843Y-40250000D01*
X135531000Y-39222250D01*
X135435750Y-39127000D01*
X134127000Y-39127000D01*
X133873000Y-39127000D01*
X132564250Y-39127000D01*
X132469000Y-39222250D01*
X132467157Y-40250000D01*
X131427000Y-40250000D01*
X131427000Y-37750000D01*
X132467157Y-37750000D01*
X132469000Y-38777750D01*
X132564250Y-38873000D01*
X133873000Y-38873000D01*
X133873000Y-37464250D01*
X134127000Y-37464250D01*
X134127000Y-38873000D01*
X135435750Y-38873000D01*
X135531000Y-38777750D01*
X135532843Y-37750000D01*
X135525487Y-37675311D01*
X135503701Y-37603492D01*
X135468322Y-37537304D01*
X135420711Y-37479289D01*
X135362696Y-37431678D01*
X135296508Y-37396299D01*
X135224689Y-37374513D01*
X135150000Y-37367157D01*
X134222250Y-37369000D01*
X134127000Y-37464250D01*
X133873000Y-37464250D01*
X133777750Y-37369000D01*
X132850000Y-37367157D01*
X132775311Y-37374513D01*
X132703492Y-37396299D01*
X132637304Y-37431678D01*
X132579289Y-37479289D01*
X132531678Y-37537304D01*
X132496299Y-37603492D01*
X132474513Y-37675311D01*
X132467157Y-37750000D01*
X131427000Y-37750000D01*
X131427000Y-36927000D01*
X135873000Y-36927000D01*
X135873000Y-38700000D01*
X135875440Y-38724776D01*
X135882667Y-38748601D01*
X135894403Y-38770557D01*
X135910197Y-38789803D01*
X135929443Y-38805597D01*
X135951399Y-38817333D01*
X135975224Y-38824560D01*
X136000000Y-38827000D01*
X137132609Y-38827000D01*
X137230058Y-38892113D01*
X137372191Y-38950987D01*
X137523078Y-38981000D01*
X137676922Y-38981000D01*
X137827809Y-38950987D01*
X137969942Y-38892113D01*
X138061405Y-38831000D01*
X138338595Y-38831000D01*
X138430058Y-38892113D01*
X138572191Y-38950987D01*
X138723078Y-38981000D01*
X138876922Y-38981000D01*
X139027809Y-38950987D01*
X139169942Y-38892113D01*
X139261405Y-38831000D01*
X139638595Y-38831000D01*
X139730058Y-38892113D01*
X139872191Y-38950987D01*
X140023078Y-38981000D01*
X140176922Y-38981000D01*
X140327809Y-38950987D01*
X140469942Y-38892113D01*
X140567391Y-38827000D01*
X141400000Y-38827000D01*
X141424776Y-38824560D01*
X141448601Y-38817333D01*
X141470557Y-38805597D01*
X141489803Y-38789803D01*
X141505597Y-38770557D01*
X141517333Y-38748601D01*
X141524560Y-38724776D01*
X141527000Y-38700000D01*
X141527000Y-38205000D01*
X142167157Y-38205000D01*
X142174513Y-38279689D01*
X142196299Y-38351508D01*
X142231678Y-38417696D01*
X142279289Y-38475711D01*
X142337304Y-38523322D01*
X142403492Y-38558701D01*
X142475311Y-38580487D01*
X142550000Y-38587843D01*
X143127750Y-38586000D01*
X143223000Y-38490750D01*
X143223000Y-38032000D01*
X142264250Y-38032000D01*
X142169000Y-38127250D01*
X142167157Y-38205000D01*
X141527000Y-38205000D01*
X141527000Y-36935000D01*
X142167157Y-36935000D01*
X142174513Y-37009689D01*
X142196299Y-37081508D01*
X142231678Y-37147696D01*
X142279289Y-37205711D01*
X142337304Y-37253322D01*
X142368506Y-37270000D01*
X142337304Y-37286678D01*
X142279289Y-37334289D01*
X142231678Y-37392304D01*
X142196299Y-37458492D01*
X142174513Y-37530311D01*
X142167157Y-37605000D01*
X142169000Y-37682750D01*
X142264250Y-37778000D01*
X143223000Y-37778000D01*
X143223000Y-37319250D01*
X143173750Y-37270000D01*
X143223000Y-37220750D01*
X143223000Y-36762000D01*
X142264250Y-36762000D01*
X142169000Y-36857250D01*
X142167157Y-36935000D01*
X141527000Y-36935000D01*
X141527000Y-35927000D01*
X142366142Y-35927000D01*
X142403968Y-35958043D01*
G36*
X160873000Y-40173000D02*
G01*
X154127000Y-40173000D01*
X154127000Y-39625000D01*
X154642157Y-39625000D01*
X154649513Y-39699689D01*
X154671299Y-39771508D01*
X154706678Y-39837696D01*
X154754289Y-39895711D01*
X154812304Y-39943322D01*
X154878492Y-39978701D01*
X154950311Y-40000487D01*
X155025000Y-40007843D01*
X155677750Y-40006000D01*
X155773000Y-39910750D01*
X155773000Y-39127000D01*
X156027000Y-39127000D01*
X156027000Y-39910750D01*
X156122250Y-40006000D01*
X156775000Y-40007843D01*
X156849689Y-40000487D01*
X156921508Y-39978701D01*
X156987696Y-39943322D01*
X157045711Y-39895711D01*
X157093322Y-39837696D01*
X157128701Y-39771508D01*
X157150000Y-39701294D01*
X157171299Y-39771508D01*
X157206678Y-39837696D01*
X157254289Y-39895711D01*
X157312304Y-39943322D01*
X157378492Y-39978701D01*
X157450311Y-40000487D01*
X157525000Y-40007843D01*
X158177750Y-40006000D01*
X158273000Y-39910750D01*
X158273000Y-39127000D01*
X158527000Y-39127000D01*
X158527000Y-39910750D01*
X158622250Y-40006000D01*
X159275000Y-40007843D01*
X159349689Y-40000487D01*
X159421508Y-39978701D01*
X159487696Y-39943322D01*
X159545711Y-39895711D01*
X159593322Y-39837696D01*
X159628701Y-39771508D01*
X159650487Y-39699689D01*
X159657843Y-39625000D01*
X159656000Y-39222250D01*
X159560750Y-39127000D01*
X158527000Y-39127000D01*
X158273000Y-39127000D01*
X157239250Y-39127000D01*
X157150000Y-39216250D01*
X157060750Y-39127000D01*
X156027000Y-39127000D01*
X155773000Y-39127000D01*
X154739250Y-39127000D01*
X154644000Y-39222250D01*
X154642157Y-39625000D01*
X154127000Y-39625000D01*
X154127000Y-38375000D01*
X154642157Y-38375000D01*
X154644000Y-38777750D01*
X154739250Y-38873000D01*
X155773000Y-38873000D01*
X155773000Y-38089250D01*
X156027000Y-38089250D01*
X156027000Y-38873000D01*
X157060750Y-38873000D01*
X157150000Y-38783750D01*
X157239250Y-38873000D01*
X158273000Y-38873000D01*
X158273000Y-38089250D01*
X158527000Y-38089250D01*
X158527000Y-38873000D01*
X159560750Y-38873000D01*
X159656000Y-38777750D01*
X159657843Y-38375000D01*
X159650487Y-38300311D01*
X159628701Y-38228492D01*
X159593322Y-38162304D01*
X159545711Y-38104289D01*
X159487696Y-38056678D01*
X159421508Y-38021299D01*
X159349689Y-37999513D01*
X159275000Y-37992157D01*
X158622250Y-37994000D01*
X158527000Y-38089250D01*
X158273000Y-38089250D01*
X158177750Y-37994000D01*
X157525000Y-37992157D01*
X157450311Y-37999513D01*
X157378492Y-38021299D01*
X157312304Y-38056678D01*
X157254289Y-38104289D01*
X157206678Y-38162304D01*
X157171299Y-38228492D01*
X157150000Y-38298706D01*
X157128701Y-38228492D01*
X157093322Y-38162304D01*
X157045711Y-38104289D01*
X156987696Y-38056678D01*
X156921508Y-38021299D01*
X156849689Y-37999513D01*
X156775000Y-37992157D01*
X156122250Y-37994000D01*
X156027000Y-38089250D01*
X155773000Y-38089250D01*
X155677750Y-37994000D01*
X155025000Y-37992157D01*
X154950311Y-37999513D01*
X154878492Y-38021299D01*
X154812304Y-38056678D01*
X154754289Y-38104289D01*
X154706678Y-38162304D01*
X154671299Y-38228492D01*
X154649513Y-38300311D01*
X154642157Y-38375000D01*
X154127000Y-38375000D01*
X154127000Y-36711734D01*
X155667871Y-36711734D01*
X155898440Y-37007510D01*
X156315095Y-37222859D01*
X156765756Y-37352783D01*
X157233105Y-37392292D01*
X157699183Y-37339867D01*
X158146076Y-37197521D01*
X158501560Y-37007510D01*
X158732129Y-36711734D01*
X157200000Y-35179605D01*
X155667871Y-36711734D01*
X154127000Y-36711734D01*
X154127000Y-36100000D01*
X154124560Y-36075224D01*
X154117333Y-36051399D01*
X154105597Y-36029443D01*
X154089803Y-36010197D01*
X154070557Y-35994403D01*
X154048601Y-35982667D01*
X154024776Y-35975440D01*
X154000000Y-35973000D01*
X153442560Y-35973000D01*
X153419942Y-35957887D01*
X153277809Y-35899013D01*
X153126922Y-35869000D01*
X152973078Y-35869000D01*
X152822191Y-35899013D01*
X152680058Y-35957887D01*
X152657440Y-35973000D01*
X152142560Y-35973000D01*
X152119942Y-35957887D01*
X151977809Y-35899013D01*
X151826922Y-35869000D01*
X151673078Y-35869000D01*
X151522191Y-35899013D01*
X151380058Y-35957887D01*
X151357440Y-35973000D01*
X150942560Y-35973000D01*
X150919942Y-35957887D01*
X150777809Y-35899013D01*
X150626922Y-35869000D01*
X150473078Y-35869000D01*
X150322191Y-35899013D01*
X150180058Y-35957887D01*
X150157440Y-35973000D01*
X149675274Y-35973000D01*
X149720711Y-35935711D01*
X149768322Y-35877696D01*
X149803701Y-35811508D01*
X149825487Y-35739689D01*
X149832843Y-35665000D01*
X149831000Y-35587250D01*
X149735750Y-35492000D01*
X148777000Y-35492000D01*
X148777000Y-35512000D01*
X148523000Y-35512000D01*
X148523000Y-35492000D01*
X148503000Y-35492000D01*
X148503000Y-35238000D01*
X148523000Y-35238000D01*
X148523000Y-35218000D01*
X148777000Y-35218000D01*
X148777000Y-35238000D01*
X149735750Y-35238000D01*
X149831000Y-35142750D01*
X149832843Y-35065000D01*
X149829702Y-35033105D01*
X154807708Y-35033105D01*
X154860133Y-35499183D01*
X155002479Y-35946076D01*
X155192490Y-36301560D01*
X155488266Y-36532129D01*
X157020395Y-35000000D01*
X157379605Y-35000000D01*
X158911734Y-36532129D01*
X159207510Y-36301560D01*
X159422859Y-35884905D01*
X159552783Y-35434244D01*
X159592292Y-34966895D01*
X159539867Y-34500817D01*
X159397521Y-34053924D01*
X159207510Y-33698440D01*
X158911734Y-33467871D01*
X157379605Y-35000000D01*
X157020395Y-35000000D01*
X155488266Y-33467871D01*
X155192490Y-33698440D01*
X154977141Y-34115095D01*
X154847217Y-34565756D01*
X154807708Y-35033105D01*
X149829702Y-35033105D01*
X149825487Y-34990311D01*
X149803701Y-34918492D01*
X149768322Y-34852304D01*
X149720711Y-34794289D01*
X149662696Y-34746678D01*
X149596508Y-34711299D01*
X149568448Y-34702787D01*
X149596032Y-34688043D01*
X149676777Y-34621777D01*
X149743043Y-34541032D01*
X149792283Y-34448910D01*
X149822605Y-34348953D01*
X149832843Y-34245000D01*
X149832843Y-33945000D01*
X149822605Y-33841047D01*
X149792283Y-33741090D01*
X149743043Y-33648968D01*
X149676777Y-33568223D01*
X149596032Y-33501957D01*
X149503910Y-33452717D01*
X149403953Y-33422395D01*
X149300000Y-33412157D01*
X148000000Y-33412157D01*
X147896047Y-33422395D01*
X147796090Y-33452717D01*
X147703968Y-33501957D01*
X147627000Y-33565123D01*
X147627000Y-33288266D01*
X155667871Y-33288266D01*
X157200000Y-34820395D01*
X158732129Y-33288266D01*
X158501560Y-32992490D01*
X158084905Y-32777141D01*
X157634244Y-32647217D01*
X157166895Y-32607708D01*
X156700817Y-32660133D01*
X156253924Y-32802479D01*
X155898440Y-32992490D01*
X155667871Y-33288266D01*
X147627000Y-33288266D01*
X147627000Y-33100000D01*
X147624560Y-33075224D01*
X147617333Y-33051399D01*
X147605597Y-33029443D01*
X147589803Y-33010197D01*
X147570557Y-32994403D01*
X147548601Y-32982667D01*
X147524776Y-32975440D01*
X147500000Y-32973000D01*
X146127000Y-32973000D01*
X146127000Y-32475000D01*
X146192157Y-32475000D01*
X146199513Y-32549689D01*
X146221299Y-32621508D01*
X146256678Y-32687696D01*
X146304289Y-32745711D01*
X146362304Y-32793322D01*
X146428492Y-32828701D01*
X146500311Y-32850487D01*
X146575000Y-32857843D01*
X146977750Y-32856000D01*
X147073000Y-32760750D01*
X147073000Y-31727000D01*
X147327000Y-31727000D01*
X147327000Y-32760750D01*
X147422250Y-32856000D01*
X147825000Y-32857843D01*
X147899689Y-32850487D01*
X147971508Y-32828701D01*
X148037696Y-32793322D01*
X148095711Y-32745711D01*
X148143322Y-32687696D01*
X148178701Y-32621508D01*
X148200487Y-32549689D01*
X148207843Y-32475000D01*
X148206000Y-31822250D01*
X148110750Y-31727000D01*
X147327000Y-31727000D01*
X147073000Y-31727000D01*
X146289250Y-31727000D01*
X146194000Y-31822250D01*
X146192157Y-32475000D01*
X146127000Y-32475000D01*
X146127000Y-30725000D01*
X146192157Y-30725000D01*
X146194000Y-31377750D01*
X146289250Y-31473000D01*
X147073000Y-31473000D01*
X147073000Y-30439250D01*
X147327000Y-30439250D01*
X147327000Y-31473000D01*
X148110750Y-31473000D01*
X148206000Y-31377750D01*
X148207843Y-30725000D01*
X148200487Y-30650311D01*
X148178701Y-30578492D01*
X148143322Y-30512304D01*
X148095711Y-30454289D01*
X148037696Y-30406678D01*
X147971508Y-30371299D01*
X147899689Y-30349513D01*
X147825000Y-30342157D01*
X147422250Y-30344000D01*
X147327000Y-30439250D01*
X147073000Y-30439250D01*
X146977750Y-30344000D01*
X146575000Y-30342157D01*
X146500311Y-30349513D01*
X146428492Y-30371299D01*
X146362304Y-30406678D01*
X146304289Y-30454289D01*
X146256678Y-30512304D01*
X146221299Y-30578492D01*
X146199513Y-30650311D01*
X146192157Y-30725000D01*
X146127000Y-30725000D01*
X146127000Y-30127000D01*
X160873000Y-30127000D01*
X160873000Y-40173000D01*
G37*
X160873000Y-40173000D02*
X154127000Y-40173000D01*
X154127000Y-39625000D01*
X154642157Y-39625000D01*
X154649513Y-39699689D01*
X154671299Y-39771508D01*
X154706678Y-39837696D01*
X154754289Y-39895711D01*
X154812304Y-39943322D01*
X154878492Y-39978701D01*
X154950311Y-40000487D01*
X155025000Y-40007843D01*
X155677750Y-40006000D01*
X155773000Y-39910750D01*
X155773000Y-39127000D01*
X156027000Y-39127000D01*
X156027000Y-39910750D01*
X156122250Y-40006000D01*
X156775000Y-40007843D01*
X156849689Y-40000487D01*
X156921508Y-39978701D01*
X156987696Y-39943322D01*
X157045711Y-39895711D01*
X157093322Y-39837696D01*
X157128701Y-39771508D01*
X157150000Y-39701294D01*
X157171299Y-39771508D01*
X157206678Y-39837696D01*
X157254289Y-39895711D01*
X157312304Y-39943322D01*
X157378492Y-39978701D01*
X157450311Y-40000487D01*
X157525000Y-40007843D01*
X158177750Y-40006000D01*
X158273000Y-39910750D01*
X158273000Y-39127000D01*
X158527000Y-39127000D01*
X158527000Y-39910750D01*
X158622250Y-40006000D01*
X159275000Y-40007843D01*
X159349689Y-40000487D01*
X159421508Y-39978701D01*
X159487696Y-39943322D01*
X159545711Y-39895711D01*
X159593322Y-39837696D01*
X159628701Y-39771508D01*
X159650487Y-39699689D01*
X159657843Y-39625000D01*
X159656000Y-39222250D01*
X159560750Y-39127000D01*
X158527000Y-39127000D01*
X158273000Y-39127000D01*
X157239250Y-39127000D01*
X157150000Y-39216250D01*
X157060750Y-39127000D01*
X156027000Y-39127000D01*
X155773000Y-39127000D01*
X154739250Y-39127000D01*
X154644000Y-39222250D01*
X154642157Y-39625000D01*
X154127000Y-39625000D01*
X154127000Y-38375000D01*
X154642157Y-38375000D01*
X154644000Y-38777750D01*
X154739250Y-38873000D01*
X155773000Y-38873000D01*
X155773000Y-38089250D01*
X156027000Y-38089250D01*
X156027000Y-38873000D01*
X157060750Y-38873000D01*
X157150000Y-38783750D01*
X157239250Y-38873000D01*
X158273000Y-38873000D01*
X158273000Y-38089250D01*
X158527000Y-38089250D01*
X158527000Y-38873000D01*
X159560750Y-38873000D01*
X159656000Y-38777750D01*
X159657843Y-38375000D01*
X159650487Y-38300311D01*
X159628701Y-38228492D01*
X159593322Y-38162304D01*
X159545711Y-38104289D01*
X159487696Y-38056678D01*
X159421508Y-38021299D01*
X159349689Y-37999513D01*
X159275000Y-37992157D01*
X158622250Y-37994000D01*
X158527000Y-38089250D01*
X158273000Y-38089250D01*
X158177750Y-37994000D01*
X157525000Y-37992157D01*
X157450311Y-37999513D01*
X157378492Y-38021299D01*
X157312304Y-38056678D01*
X157254289Y-38104289D01*
X157206678Y-38162304D01*
X157171299Y-38228492D01*
X157150000Y-38298706D01*
X157128701Y-38228492D01*
X157093322Y-38162304D01*
X157045711Y-38104289D01*
X156987696Y-38056678D01*
X156921508Y-38021299D01*
X156849689Y-37999513D01*
X156775000Y-37992157D01*
X156122250Y-37994000D01*
X156027000Y-38089250D01*
X155773000Y-38089250D01*
X155677750Y-37994000D01*
X155025000Y-37992157D01*
X154950311Y-37999513D01*
X154878492Y-38021299D01*
X154812304Y-38056678D01*
X154754289Y-38104289D01*
X154706678Y-38162304D01*
X154671299Y-38228492D01*
X154649513Y-38300311D01*
X154642157Y-38375000D01*
X154127000Y-38375000D01*
X154127000Y-36711734D01*
X155667871Y-36711734D01*
X155898440Y-37007510D01*
X156315095Y-37222859D01*
X156765756Y-37352783D01*
X157233105Y-37392292D01*
X157699183Y-37339867D01*
X158146076Y-37197521D01*
X158501560Y-37007510D01*
X158732129Y-36711734D01*
X157200000Y-35179605D01*
X155667871Y-36711734D01*
X154127000Y-36711734D01*
X154127000Y-36100000D01*
X154124560Y-36075224D01*
X154117333Y-36051399D01*
X154105597Y-36029443D01*
X154089803Y-36010197D01*
X154070557Y-35994403D01*
X154048601Y-35982667D01*
X154024776Y-35975440D01*
X154000000Y-35973000D01*
X153442560Y-35973000D01*
X153419942Y-35957887D01*
X153277809Y-35899013D01*
X153126922Y-35869000D01*
X152973078Y-35869000D01*
X152822191Y-35899013D01*
X152680058Y-35957887D01*
X152657440Y-35973000D01*
X152142560Y-35973000D01*
X152119942Y-35957887D01*
X151977809Y-35899013D01*
X151826922Y-35869000D01*
X151673078Y-35869000D01*
X151522191Y-35899013D01*
X151380058Y-35957887D01*
X151357440Y-35973000D01*
X150942560Y-35973000D01*
X150919942Y-35957887D01*
X150777809Y-35899013D01*
X150626922Y-35869000D01*
X150473078Y-35869000D01*
X150322191Y-35899013D01*
X150180058Y-35957887D01*
X150157440Y-35973000D01*
X149675274Y-35973000D01*
X149720711Y-35935711D01*
X149768322Y-35877696D01*
X149803701Y-35811508D01*
X149825487Y-35739689D01*
X149832843Y-35665000D01*
X149831000Y-35587250D01*
X149735750Y-35492000D01*
X148777000Y-35492000D01*
X148777000Y-35512000D01*
X148523000Y-35512000D01*
X148523000Y-35492000D01*
X148503000Y-35492000D01*
X148503000Y-35238000D01*
X148523000Y-35238000D01*
X148523000Y-35218000D01*
X148777000Y-35218000D01*
X148777000Y-35238000D01*
X149735750Y-35238000D01*
X149831000Y-35142750D01*
X149832843Y-35065000D01*
X149829702Y-35033105D01*
X154807708Y-35033105D01*
X154860133Y-35499183D01*
X155002479Y-35946076D01*
X155192490Y-36301560D01*
X155488266Y-36532129D01*
X157020395Y-35000000D01*
X157379605Y-35000000D01*
X158911734Y-36532129D01*
X159207510Y-36301560D01*
X159422859Y-35884905D01*
X159552783Y-35434244D01*
X159592292Y-34966895D01*
X159539867Y-34500817D01*
X159397521Y-34053924D01*
X159207510Y-33698440D01*
X158911734Y-33467871D01*
X157379605Y-35000000D01*
X157020395Y-35000000D01*
X155488266Y-33467871D01*
X155192490Y-33698440D01*
X154977141Y-34115095D01*
X154847217Y-34565756D01*
X154807708Y-35033105D01*
X149829702Y-35033105D01*
X149825487Y-34990311D01*
X149803701Y-34918492D01*
X149768322Y-34852304D01*
X149720711Y-34794289D01*
X149662696Y-34746678D01*
X149596508Y-34711299D01*
X149568448Y-34702787D01*
X149596032Y-34688043D01*
X149676777Y-34621777D01*
X149743043Y-34541032D01*
X149792283Y-34448910D01*
X149822605Y-34348953D01*
X149832843Y-34245000D01*
X149832843Y-33945000D01*
X149822605Y-33841047D01*
X149792283Y-33741090D01*
X149743043Y-33648968D01*
X149676777Y-33568223D01*
X149596032Y-33501957D01*
X149503910Y-33452717D01*
X149403953Y-33422395D01*
X149300000Y-33412157D01*
X148000000Y-33412157D01*
X147896047Y-33422395D01*
X147796090Y-33452717D01*
X147703968Y-33501957D01*
X147627000Y-33565123D01*
X147627000Y-33288266D01*
X155667871Y-33288266D01*
X157200000Y-34820395D01*
X158732129Y-33288266D01*
X158501560Y-32992490D01*
X158084905Y-32777141D01*
X157634244Y-32647217D01*
X157166895Y-32607708D01*
X156700817Y-32660133D01*
X156253924Y-32802479D01*
X155898440Y-32992490D01*
X155667871Y-33288266D01*
X147627000Y-33288266D01*
X147627000Y-33100000D01*
X147624560Y-33075224D01*
X147617333Y-33051399D01*
X147605597Y-33029443D01*
X147589803Y-33010197D01*
X147570557Y-32994403D01*
X147548601Y-32982667D01*
X147524776Y-32975440D01*
X147500000Y-32973000D01*
X146127000Y-32973000D01*
X146127000Y-32475000D01*
X146192157Y-32475000D01*
X146199513Y-32549689D01*
X146221299Y-32621508D01*
X146256678Y-32687696D01*
X146304289Y-32745711D01*
X146362304Y-32793322D01*
X146428492Y-32828701D01*
X146500311Y-32850487D01*
X146575000Y-32857843D01*
X146977750Y-32856000D01*
X147073000Y-32760750D01*
X147073000Y-31727000D01*
X147327000Y-31727000D01*
X147327000Y-32760750D01*
X147422250Y-32856000D01*
X147825000Y-32857843D01*
X147899689Y-32850487D01*
X147971508Y-32828701D01*
X148037696Y-32793322D01*
X148095711Y-32745711D01*
X148143322Y-32687696D01*
X148178701Y-32621508D01*
X148200487Y-32549689D01*
X148207843Y-32475000D01*
X148206000Y-31822250D01*
X148110750Y-31727000D01*
X147327000Y-31727000D01*
X147073000Y-31727000D01*
X146289250Y-31727000D01*
X146194000Y-31822250D01*
X146192157Y-32475000D01*
X146127000Y-32475000D01*
X146127000Y-30725000D01*
X146192157Y-30725000D01*
X146194000Y-31377750D01*
X146289250Y-31473000D01*
X147073000Y-31473000D01*
X147073000Y-30439250D01*
X147327000Y-30439250D01*
X147327000Y-31473000D01*
X148110750Y-31473000D01*
X148206000Y-31377750D01*
X148207843Y-30725000D01*
X148200487Y-30650311D01*
X148178701Y-30578492D01*
X148143322Y-30512304D01*
X148095711Y-30454289D01*
X148037696Y-30406678D01*
X147971508Y-30371299D01*
X147899689Y-30349513D01*
X147825000Y-30342157D01*
X147422250Y-30344000D01*
X147327000Y-30439250D01*
X147073000Y-30439250D01*
X146977750Y-30344000D01*
X146575000Y-30342157D01*
X146500311Y-30349513D01*
X146428492Y-30371299D01*
X146362304Y-30406678D01*
X146304289Y-30454289D01*
X146256678Y-30512304D01*
X146221299Y-30578492D01*
X146199513Y-30650311D01*
X146192157Y-30725000D01*
X146127000Y-30725000D01*
X146127000Y-30127000D01*
X160873000Y-30127000D01*
X160873000Y-40173000D01*
G36*
X161473000Y-53573000D02*
G01*
X125991615Y-53573000D01*
X126108086Y-53510744D01*
X126219395Y-53419395D01*
X126242282Y-53391507D01*
X126791345Y-52842445D01*
X126951333Y-52908714D01*
X127314738Y-52981000D01*
X127685262Y-52981000D01*
X128048667Y-52908714D01*
X128390987Y-52766920D01*
X128699067Y-52561068D01*
X128961068Y-52299067D01*
X129166920Y-51990987D01*
X129308714Y-51648667D01*
X129366974Y-51355773D01*
X136123833Y-51355773D01*
X136294283Y-51600316D01*
X136625814Y-51765772D01*
X136983253Y-51863371D01*
X137352865Y-51889361D01*
X137720445Y-51842744D01*
X138071868Y-51725311D01*
X138305717Y-51600316D01*
X138476167Y-51355773D01*
X137300000Y-50179605D01*
X136123833Y-51355773D01*
X129366974Y-51355773D01*
X129381000Y-51285262D01*
X129381000Y-50914738D01*
X129308714Y-50551333D01*
X129166920Y-50209013D01*
X128961068Y-49900933D01*
X128699067Y-49638932D01*
X128390987Y-49433080D01*
X128048667Y-49291286D01*
X127685262Y-49219000D01*
X127314738Y-49219000D01*
X126951333Y-49291286D01*
X126609013Y-49433080D01*
X126300933Y-49638932D01*
X126038932Y-49900933D01*
X125833080Y-50209013D01*
X125691286Y-50551333D01*
X125619000Y-50914738D01*
X125619000Y-51285262D01*
X125691286Y-51648667D01*
X125757555Y-51808655D01*
X125397211Y-52169000D01*
X121802790Y-52169000D01*
X121031000Y-51397211D01*
X121031000Y-46977607D01*
X122584098Y-46977607D01*
X122638771Y-47139418D01*
X122741526Y-47303869D01*
X122874389Y-47445114D01*
X123032255Y-47557725D01*
X123209057Y-47637374D01*
X123398000Y-47681000D01*
X123673000Y-47681000D01*
X123673000Y-46827000D01*
X123927000Y-46827000D01*
X123927000Y-47681000D01*
X124202000Y-47681000D01*
X124390943Y-47637374D01*
X124567745Y-47557725D01*
X124725611Y-47445114D01*
X124858474Y-47303869D01*
X124961229Y-47139418D01*
X125015902Y-46977607D01*
X124951598Y-46827000D01*
X123927000Y-46827000D01*
X123673000Y-46827000D01*
X122648402Y-46827000D01*
X122584098Y-46977607D01*
X121031000Y-46977607D01*
X121031000Y-46422393D01*
X122584098Y-46422393D01*
X122648402Y-46573000D01*
X123673000Y-46573000D01*
X123673000Y-45719000D01*
X123927000Y-45719000D01*
X123927000Y-46573000D01*
X124951598Y-46573000D01*
X125015902Y-46422393D01*
X124961229Y-46260582D01*
X124858474Y-46096131D01*
X124725611Y-45954886D01*
X124567745Y-45842275D01*
X124390943Y-45762626D01*
X124202000Y-45719000D01*
X123927000Y-45719000D01*
X123673000Y-45719000D01*
X123398000Y-45719000D01*
X123209057Y-45762626D01*
X123032255Y-45842275D01*
X122874389Y-45954886D01*
X122741526Y-46096131D01*
X122638771Y-46260582D01*
X122584098Y-46422393D01*
X121031000Y-46422393D01*
X121031000Y-36977607D01*
X122584098Y-36977607D01*
X122638771Y-37139418D01*
X122741526Y-37303869D01*
X122874389Y-37445114D01*
X123032255Y-37557725D01*
X123209057Y-37637374D01*
X123398000Y-37681000D01*
X123673000Y-37681000D01*
X123673000Y-36827000D01*
X123927000Y-36827000D01*
X123927000Y-37681000D01*
X124202000Y-37681000D01*
X124390943Y-37637374D01*
X124567745Y-37557725D01*
X124725611Y-37445114D01*
X124858474Y-37303869D01*
X124961229Y-37139418D01*
X125015902Y-36977607D01*
X124951598Y-36827000D01*
X123927000Y-36827000D01*
X123673000Y-36827000D01*
X122648402Y-36827000D01*
X122584098Y-36977607D01*
X121031000Y-36977607D01*
X121031000Y-35702789D01*
X121302790Y-35431000D01*
X122119000Y-35431000D01*
X122119000Y-35600000D01*
X122126321Y-35674329D01*
X122148002Y-35745802D01*
X122183210Y-35811672D01*
X122230592Y-35869408D01*
X122288328Y-35916790D01*
X122354198Y-35951998D01*
X122425671Y-35973679D01*
X122500000Y-35981000D01*
X122849825Y-35981000D01*
X122741526Y-36096131D01*
X122638771Y-36260582D01*
X122584098Y-36422393D01*
X122648402Y-36573000D01*
X123673000Y-36573000D01*
X123673000Y-36553000D01*
X123927000Y-36553000D01*
X123927000Y-36573000D01*
X124951598Y-36573000D01*
X125015902Y-36422393D01*
X124961229Y-36260582D01*
X124858474Y-36096131D01*
X124750175Y-35981000D01*
X126173000Y-35981000D01*
X126471400Y-36204800D01*
X126554198Y-36251998D01*
X126625671Y-36273679D01*
X126700000Y-36281000D01*
X131519000Y-36281000D01*
X131519000Y-36419000D01*
X131300000Y-36419000D01*
X131225671Y-36426321D01*
X131154198Y-36448002D01*
X131088328Y-36483210D01*
X131030592Y-36530592D01*
X130983210Y-36588328D01*
X130948002Y-36654198D01*
X130926321Y-36725671D01*
X130919000Y-36800000D01*
X130919000Y-42400000D01*
X130926321Y-42474329D01*
X130948002Y-42545802D01*
X130983210Y-42611672D01*
X131030592Y-42669408D01*
X131088328Y-42716790D01*
X131154198Y-42751998D01*
X131225671Y-42773679D01*
X131300000Y-42781000D01*
X133219000Y-42781000D01*
X133219000Y-43947261D01*
X133076922Y-43919000D01*
X132985813Y-43919000D01*
X132959671Y-43832821D01*
X132901190Y-43723411D01*
X132822488Y-43627512D01*
X132726589Y-43548810D01*
X132617179Y-43490329D01*
X132498462Y-43454317D01*
X132375000Y-43442157D01*
X131625000Y-43442157D01*
X131501538Y-43454317D01*
X131382821Y-43490329D01*
X131273411Y-43548810D01*
X131177512Y-43627512D01*
X131098810Y-43723411D01*
X131040329Y-43832821D01*
X131004317Y-43951538D01*
X130992157Y-44075000D01*
X130992157Y-44741209D01*
X130593921Y-44342975D01*
X130577290Y-44322710D01*
X130496435Y-44256354D01*
X130404188Y-44207047D01*
X130304094Y-44176683D01*
X130226084Y-44169000D01*
X130226074Y-44169000D01*
X130207843Y-44167204D01*
X130207843Y-44075000D01*
X130195683Y-43951538D01*
X130159671Y-43832821D01*
X130101190Y-43723411D01*
X130022488Y-43627512D01*
X129926589Y-43548810D01*
X129817179Y-43490329D01*
X129698462Y-43454317D01*
X129575000Y-43442157D01*
X128825000Y-43442157D01*
X128701538Y-43454317D01*
X128582821Y-43490329D01*
X128473411Y-43548810D01*
X128377512Y-43627512D01*
X128298810Y-43723411D01*
X128240329Y-43832821D01*
X128204317Y-43951538D01*
X128192157Y-44075000D01*
X128192157Y-44194000D01*
X125035813Y-44194000D01*
X125009671Y-44107821D01*
X124951190Y-43998411D01*
X124872488Y-43902512D01*
X124776589Y-43823810D01*
X124667179Y-43765329D01*
X124548462Y-43729317D01*
X124425001Y-43717157D01*
X123174999Y-43717157D01*
X123051538Y-43729317D01*
X122932821Y-43765329D01*
X122823411Y-43823810D01*
X122727512Y-43902512D01*
X122648810Y-43998411D01*
X122590329Y-44107821D01*
X122554317Y-44226538D01*
X122542157Y-44349999D01*
X122542157Y-45050001D01*
X122554317Y-45173462D01*
X122590329Y-45292179D01*
X122648810Y-45401589D01*
X122727512Y-45497488D01*
X122823411Y-45576190D01*
X122932821Y-45634671D01*
X123051538Y-45670683D01*
X123174999Y-45682843D01*
X124425001Y-45682843D01*
X124548462Y-45670683D01*
X124667179Y-45634671D01*
X124776589Y-45576190D01*
X124872488Y-45497488D01*
X124951190Y-45401589D01*
X125009671Y-45292179D01*
X125035813Y-45206000D01*
X128192157Y-45206000D01*
X128192157Y-45325000D01*
X128204317Y-45448462D01*
X128240329Y-45567179D01*
X128298810Y-45676589D01*
X128377512Y-45772488D01*
X128473411Y-45851190D01*
X128582821Y-45909671D01*
X128701538Y-45945683D01*
X128825000Y-45957843D01*
X129575000Y-45957843D01*
X129698462Y-45945683D01*
X129817179Y-45909671D01*
X129926589Y-45851190D01*
X130022488Y-45772488D01*
X130101190Y-45676589D01*
X130159671Y-45567179D01*
X130169001Y-45536422D01*
X130169001Y-46387772D01*
X130151333Y-46391286D01*
X129809013Y-46533080D01*
X129500933Y-46738932D01*
X129238932Y-47000933D01*
X129033080Y-47309013D01*
X128891286Y-47651333D01*
X128819000Y-48014738D01*
X128819000Y-48385262D01*
X128891286Y-48748667D01*
X129033080Y-49090987D01*
X129238932Y-49399067D01*
X129500933Y-49661068D01*
X129809013Y-49866920D01*
X130151333Y-50008714D01*
X130514738Y-50081000D01*
X130885262Y-50081000D01*
X131026705Y-50052865D01*
X135410639Y-50052865D01*
X135457256Y-50420445D01*
X135574689Y-50771868D01*
X135699684Y-51005717D01*
X135944227Y-51176167D01*
X137120395Y-50000000D01*
X137479605Y-50000000D01*
X138655773Y-51176167D01*
X138900316Y-51005717D01*
X139065772Y-50674186D01*
X139163371Y-50316747D01*
X139189361Y-49947135D01*
X139142744Y-49579555D01*
X139025311Y-49228132D01*
X138900316Y-48994283D01*
X138655773Y-48823833D01*
X137479605Y-50000000D01*
X137120395Y-50000000D01*
X135944227Y-48823833D01*
X135699684Y-48994283D01*
X135534228Y-49325814D01*
X135436629Y-49683253D01*
X135410639Y-50052865D01*
X131026705Y-50052865D01*
X131248667Y-50008714D01*
X131590987Y-49866920D01*
X131899067Y-49661068D01*
X132161068Y-49399067D01*
X132366920Y-49090987D01*
X132508714Y-48748667D01*
X132529488Y-48644227D01*
X136123833Y-48644227D01*
X137300000Y-49820395D01*
X138476167Y-48644227D01*
X138305717Y-48399684D01*
X137974186Y-48234228D01*
X137616747Y-48136629D01*
X137247135Y-48110639D01*
X136879555Y-48157256D01*
X136528132Y-48274689D01*
X136294283Y-48399684D01*
X136123833Y-48644227D01*
X132529488Y-48644227D01*
X132581000Y-48385262D01*
X132581000Y-48014738D01*
X132508714Y-47651333D01*
X132366920Y-47309013D01*
X132161068Y-47000933D01*
X131899067Y-46738932D01*
X131590987Y-46533080D01*
X131248667Y-46391286D01*
X131231000Y-46387772D01*
X131231000Y-45816384D01*
X131273411Y-45851190D01*
X131382821Y-45909671D01*
X131501538Y-45945683D01*
X131625000Y-45957843D01*
X132375000Y-45957843D01*
X132498462Y-45945683D01*
X132617179Y-45909671D01*
X132726589Y-45851190D01*
X132822488Y-45772488D01*
X132901190Y-45676589D01*
X132959671Y-45567179D01*
X132985813Y-45481000D01*
X133076922Y-45481000D01*
X133219000Y-45452739D01*
X133219000Y-46200000D01*
X133226321Y-46274329D01*
X133248002Y-46345802D01*
X133283210Y-46411672D01*
X133330592Y-46469408D01*
X133388328Y-46516790D01*
X133454198Y-46551998D01*
X133525671Y-46573679D01*
X133600000Y-46581000D01*
X139819000Y-46581000D01*
X139819000Y-49500000D01*
X139826321Y-49574329D01*
X139848002Y-49645802D01*
X139883210Y-49711672D01*
X139930592Y-49769408D01*
X139988328Y-49816790D01*
X140054198Y-49851998D01*
X140125671Y-49873679D01*
X140200000Y-49881000D01*
X145900000Y-49881000D01*
X145974329Y-49873679D01*
X146045802Y-49851998D01*
X146111672Y-49816790D01*
X146169408Y-49769408D01*
X146216790Y-49711672D01*
X146251998Y-49645802D01*
X146273679Y-49574329D01*
X146281000Y-49500000D01*
X146281000Y-40000000D01*
X146273679Y-39925671D01*
X146251998Y-39854198D01*
X146216790Y-39788328D01*
X146169408Y-39730592D01*
X146111672Y-39683210D01*
X146045802Y-39648002D01*
X145974329Y-39626321D01*
X145900000Y-39619000D01*
X144881000Y-39619000D01*
X144881000Y-37911046D01*
X144896291Y-37916368D01*
X145019396Y-37933537D01*
X145143484Y-37926358D01*
X145263789Y-37895110D01*
X145311098Y-37875513D01*
X145328957Y-37757905D01*
X146671043Y-37757905D01*
X146688902Y-37875513D01*
X146806291Y-37916368D01*
X146929396Y-37933537D01*
X147053484Y-37926358D01*
X147173789Y-37895110D01*
X147221098Y-37875513D01*
X147238957Y-37757905D01*
X146955000Y-37473948D01*
X146671043Y-37757905D01*
X145328957Y-37757905D01*
X145045000Y-37473948D01*
X145028029Y-37490919D01*
X144881000Y-37343890D01*
X144881000Y-37300000D01*
X145218948Y-37300000D01*
X145502905Y-37583957D01*
X145620513Y-37566098D01*
X145661368Y-37448709D01*
X145678537Y-37325604D01*
X145675575Y-37274396D01*
X146321463Y-37274396D01*
X146328642Y-37398484D01*
X146359890Y-37518789D01*
X146379487Y-37566098D01*
X146497095Y-37583957D01*
X146781052Y-37300000D01*
X147128948Y-37300000D01*
X147412905Y-37583957D01*
X147530513Y-37566098D01*
X147571368Y-37448709D01*
X147588537Y-37325604D01*
X147581358Y-37201516D01*
X147550110Y-37081211D01*
X147530513Y-37033902D01*
X147412905Y-37016043D01*
X147128948Y-37300000D01*
X146781052Y-37300000D01*
X146497095Y-37016043D01*
X146379487Y-37033902D01*
X146338632Y-37151291D01*
X146321463Y-37274396D01*
X145675575Y-37274396D01*
X145671358Y-37201516D01*
X145640110Y-37081211D01*
X145620513Y-37033902D01*
X145502905Y-37016043D01*
X145218948Y-37300000D01*
X144881000Y-37300000D01*
X144881000Y-37256110D01*
X145028029Y-37109081D01*
X145045000Y-37126052D01*
X145328957Y-36842095D01*
X146671043Y-36842095D01*
X146955000Y-37126052D01*
X147238957Y-36842095D01*
X147221098Y-36724487D01*
X147103709Y-36683632D01*
X146980604Y-36666463D01*
X146856516Y-36673642D01*
X146736211Y-36704890D01*
X146688902Y-36724487D01*
X146671043Y-36842095D01*
X145328957Y-36842095D01*
X145311098Y-36724487D01*
X145193709Y-36683632D01*
X145070604Y-36666463D01*
X144946516Y-36673642D01*
X144881000Y-36690659D01*
X144881000Y-36611046D01*
X144896291Y-36616368D01*
X145019396Y-36633537D01*
X145143484Y-36626358D01*
X145263789Y-36595110D01*
X145311098Y-36575513D01*
X145328957Y-36457905D01*
X145045000Y-36173948D01*
X145028029Y-36190919D01*
X144881000Y-36043890D01*
X144881000Y-36000000D01*
X145218948Y-36000000D01*
X145502905Y-36283957D01*
X145620513Y-36266098D01*
X145661368Y-36148709D01*
X145678537Y-36025604D01*
X145675575Y-35974396D01*
X146321463Y-35974396D01*
X146328642Y-36098484D01*
X146359890Y-36218789D01*
X146379487Y-36266098D01*
X146497095Y-36283957D01*
X146781052Y-36000000D01*
X146497095Y-35716043D01*
X146379487Y-35733902D01*
X146338632Y-35851291D01*
X146321463Y-35974396D01*
X145675575Y-35974396D01*
X145671358Y-35901516D01*
X145640110Y-35781211D01*
X145620513Y-35733902D01*
X145502905Y-35716043D01*
X145218948Y-36000000D01*
X144881000Y-36000000D01*
X144881000Y-35956110D01*
X145028029Y-35809081D01*
X145045000Y-35826052D01*
X145328957Y-35542095D01*
X145311098Y-35424487D01*
X145193709Y-35383632D01*
X145070604Y-35366463D01*
X144946516Y-35373642D01*
X144826211Y-35404890D01*
X144778902Y-35424487D01*
X144763523Y-35525762D01*
X144711672Y-35483210D01*
X144703393Y-35478785D01*
X144686895Y-35462287D01*
X144681890Y-35467292D01*
X144645802Y-35448002D01*
X144574329Y-35426321D01*
X144532843Y-35422235D01*
X144532843Y-35215000D01*
X144527220Y-35157905D01*
X144761043Y-35157905D01*
X144778902Y-35275513D01*
X144896291Y-35316368D01*
X145019396Y-35333537D01*
X145143484Y-35326358D01*
X145263789Y-35295110D01*
X145311098Y-35275513D01*
X145328957Y-35157905D01*
X145045000Y-34873948D01*
X144761043Y-35157905D01*
X144527220Y-35157905D01*
X144522605Y-35111047D01*
X144492283Y-35011090D01*
X144443043Y-34918968D01*
X144376777Y-34838223D01*
X144296032Y-34771957D01*
X144217536Y-34730000D01*
X144296032Y-34688043D01*
X144376777Y-34621777D01*
X144427405Y-34560086D01*
X144411463Y-34674396D01*
X144418642Y-34798484D01*
X144449890Y-34918789D01*
X144469487Y-34966098D01*
X144587095Y-34983957D01*
X144871052Y-34700000D01*
X145218948Y-34700000D01*
X145502905Y-34983957D01*
X145620513Y-34966098D01*
X145661368Y-34848709D01*
X145678537Y-34725604D01*
X145675575Y-34674396D01*
X146321463Y-34674396D01*
X146328642Y-34798484D01*
X146359890Y-34918789D01*
X146379487Y-34966098D01*
X146497095Y-34983957D01*
X146781052Y-34700000D01*
X146497095Y-34416043D01*
X146379487Y-34433902D01*
X146338632Y-34551291D01*
X146321463Y-34674396D01*
X145675575Y-34674396D01*
X145671358Y-34601516D01*
X145640110Y-34481211D01*
X145620513Y-34433902D01*
X145502905Y-34416043D01*
X145218948Y-34700000D01*
X144871052Y-34700000D01*
X144587095Y-34416043D01*
X144498156Y-34429549D01*
X144522605Y-34348953D01*
X144532843Y-34245000D01*
X144532843Y-34242095D01*
X144761043Y-34242095D01*
X145045000Y-34526052D01*
X145328957Y-34242095D01*
X145311098Y-34124487D01*
X145193709Y-34083632D01*
X145070604Y-34066463D01*
X144946516Y-34073642D01*
X144826211Y-34104890D01*
X144778902Y-34124487D01*
X144761043Y-34242095D01*
X144532843Y-34242095D01*
X144532843Y-33945000D01*
X144522605Y-33841047D01*
X144492283Y-33741090D01*
X144443043Y-33648968D01*
X144376777Y-33568223D01*
X144296032Y-33501957D01*
X144256824Y-33481000D01*
X145800000Y-33481000D01*
X145874329Y-33473679D01*
X145900000Y-33465892D01*
X145925671Y-33473679D01*
X146000000Y-33481000D01*
X147119000Y-33481000D01*
X147119000Y-34088954D01*
X147103709Y-34083632D01*
X146980604Y-34066463D01*
X146856516Y-34073642D01*
X146736211Y-34104890D01*
X146688902Y-34124487D01*
X146671043Y-34242095D01*
X146955000Y-34526052D01*
X146971971Y-34509081D01*
X147119000Y-34656110D01*
X147119000Y-34743890D01*
X146971971Y-34890919D01*
X146955000Y-34873948D01*
X146671043Y-35157905D01*
X146688902Y-35275513D01*
X146806291Y-35316368D01*
X146929396Y-35333537D01*
X147053484Y-35326358D01*
X147119000Y-35309341D01*
X147119000Y-35388954D01*
X147103709Y-35383632D01*
X146980604Y-35366463D01*
X146856516Y-35373642D01*
X146736211Y-35404890D01*
X146688902Y-35424487D01*
X146671043Y-35542095D01*
X146955000Y-35826052D01*
X146971971Y-35809081D01*
X147119000Y-35956110D01*
X147119000Y-36043890D01*
X146971971Y-36190919D01*
X146955000Y-36173948D01*
X146671043Y-36457905D01*
X146688902Y-36575513D01*
X146806291Y-36616368D01*
X146929396Y-36633537D01*
X147053484Y-36626358D01*
X147173789Y-36595110D01*
X147221098Y-36575513D01*
X147238211Y-36462819D01*
X147313105Y-36537713D01*
X147388435Y-36462383D01*
X147425671Y-36473679D01*
X147500000Y-36481000D01*
X153619000Y-36481000D01*
X153619000Y-40119000D01*
X150700000Y-40119000D01*
X150625671Y-40126321D01*
X150554198Y-40148002D01*
X150488328Y-40183210D01*
X150430592Y-40230592D01*
X150383210Y-40288328D01*
X150348002Y-40354198D01*
X150326321Y-40425671D01*
X150319000Y-40500000D01*
X150319000Y-49500000D01*
X150326321Y-49574329D01*
X150348002Y-49645802D01*
X150383210Y-49711672D01*
X150430592Y-49769408D01*
X150488328Y-49816790D01*
X150554198Y-49851998D01*
X150625671Y-49873679D01*
X150700000Y-49881000D01*
X161000000Y-49881000D01*
X161074329Y-49873679D01*
X161145802Y-49851998D01*
X161211672Y-49816790D01*
X161269408Y-49769408D01*
X161316790Y-49711672D01*
X161351998Y-49645802D01*
X161373679Y-49574329D01*
X161381000Y-49500000D01*
X161381000Y-40500000D01*
X161373679Y-40425671D01*
X161365892Y-40400000D01*
X161373679Y-40374329D01*
X161381000Y-40300000D01*
X161381000Y-30000000D01*
X161373679Y-29925671D01*
X161351998Y-29854198D01*
X161316790Y-29788328D01*
X161269408Y-29730592D01*
X161211672Y-29683210D01*
X161145802Y-29648002D01*
X161076567Y-29627000D01*
X161473000Y-29627000D01*
X161473000Y-53573000D01*
G37*
X161473000Y-53573000D02*
X125991615Y-53573000D01*
X126108086Y-53510744D01*
X126219395Y-53419395D01*
X126242282Y-53391507D01*
X126791345Y-52842445D01*
X126951333Y-52908714D01*
X127314738Y-52981000D01*
X127685262Y-52981000D01*
X128048667Y-52908714D01*
X128390987Y-52766920D01*
X128699067Y-52561068D01*
X128961068Y-52299067D01*
X129166920Y-51990987D01*
X129308714Y-51648667D01*
X129366974Y-51355773D01*
X136123833Y-51355773D01*
X136294283Y-51600316D01*
X136625814Y-51765772D01*
X136983253Y-51863371D01*
X137352865Y-51889361D01*
X137720445Y-51842744D01*
X138071868Y-51725311D01*
X138305717Y-51600316D01*
X138476167Y-51355773D01*
X137300000Y-50179605D01*
X136123833Y-51355773D01*
X129366974Y-51355773D01*
X129381000Y-51285262D01*
X129381000Y-50914738D01*
X129308714Y-50551333D01*
X129166920Y-50209013D01*
X128961068Y-49900933D01*
X128699067Y-49638932D01*
X128390987Y-49433080D01*
X128048667Y-49291286D01*
X127685262Y-49219000D01*
X127314738Y-49219000D01*
X126951333Y-49291286D01*
X126609013Y-49433080D01*
X126300933Y-49638932D01*
X126038932Y-49900933D01*
X125833080Y-50209013D01*
X125691286Y-50551333D01*
X125619000Y-50914738D01*
X125619000Y-51285262D01*
X125691286Y-51648667D01*
X125757555Y-51808655D01*
X125397211Y-52169000D01*
X121802790Y-52169000D01*
X121031000Y-51397211D01*
X121031000Y-46977607D01*
X122584098Y-46977607D01*
X122638771Y-47139418D01*
X122741526Y-47303869D01*
X122874389Y-47445114D01*
X123032255Y-47557725D01*
X123209057Y-47637374D01*
X123398000Y-47681000D01*
X123673000Y-47681000D01*
X123673000Y-46827000D01*
X123927000Y-46827000D01*
X123927000Y-47681000D01*
X124202000Y-47681000D01*
X124390943Y-47637374D01*
X124567745Y-47557725D01*
X124725611Y-47445114D01*
X124858474Y-47303869D01*
X124961229Y-47139418D01*
X125015902Y-46977607D01*
X124951598Y-46827000D01*
X123927000Y-46827000D01*
X123673000Y-46827000D01*
X122648402Y-46827000D01*
X122584098Y-46977607D01*
X121031000Y-46977607D01*
X121031000Y-46422393D01*
X122584098Y-46422393D01*
X122648402Y-46573000D01*
X123673000Y-46573000D01*
X123673000Y-45719000D01*
X123927000Y-45719000D01*
X123927000Y-46573000D01*
X124951598Y-46573000D01*
X125015902Y-46422393D01*
X124961229Y-46260582D01*
X124858474Y-46096131D01*
X124725611Y-45954886D01*
X124567745Y-45842275D01*
X124390943Y-45762626D01*
X124202000Y-45719000D01*
X123927000Y-45719000D01*
X123673000Y-45719000D01*
X123398000Y-45719000D01*
X123209057Y-45762626D01*
X123032255Y-45842275D01*
X122874389Y-45954886D01*
X122741526Y-46096131D01*
X122638771Y-46260582D01*
X122584098Y-46422393D01*
X121031000Y-46422393D01*
X121031000Y-36977607D01*
X122584098Y-36977607D01*
X122638771Y-37139418D01*
X122741526Y-37303869D01*
X122874389Y-37445114D01*
X123032255Y-37557725D01*
X123209057Y-37637374D01*
X123398000Y-37681000D01*
X123673000Y-37681000D01*
X123673000Y-36827000D01*
X123927000Y-36827000D01*
X123927000Y-37681000D01*
X124202000Y-37681000D01*
X124390943Y-37637374D01*
X124567745Y-37557725D01*
X124725611Y-37445114D01*
X124858474Y-37303869D01*
X124961229Y-37139418D01*
X125015902Y-36977607D01*
X124951598Y-36827000D01*
X123927000Y-36827000D01*
X123673000Y-36827000D01*
X122648402Y-36827000D01*
X122584098Y-36977607D01*
X121031000Y-36977607D01*
X121031000Y-35702789D01*
X121302790Y-35431000D01*
X122119000Y-35431000D01*
X122119000Y-35600000D01*
X122126321Y-35674329D01*
X122148002Y-35745802D01*
X122183210Y-35811672D01*
X122230592Y-35869408D01*
X122288328Y-35916790D01*
X122354198Y-35951998D01*
X122425671Y-35973679D01*
X122500000Y-35981000D01*
X122849825Y-35981000D01*
X122741526Y-36096131D01*
X122638771Y-36260582D01*
X122584098Y-36422393D01*
X122648402Y-36573000D01*
X123673000Y-36573000D01*
X123673000Y-36553000D01*
X123927000Y-36553000D01*
X123927000Y-36573000D01*
X124951598Y-36573000D01*
X125015902Y-36422393D01*
X124961229Y-36260582D01*
X124858474Y-36096131D01*
X124750175Y-35981000D01*
X126173000Y-35981000D01*
X126471400Y-36204800D01*
X126554198Y-36251998D01*
X126625671Y-36273679D01*
X126700000Y-36281000D01*
X131519000Y-36281000D01*
X131519000Y-36419000D01*
X131300000Y-36419000D01*
X131225671Y-36426321D01*
X131154198Y-36448002D01*
X131088328Y-36483210D01*
X131030592Y-36530592D01*
X130983210Y-36588328D01*
X130948002Y-36654198D01*
X130926321Y-36725671D01*
X130919000Y-36800000D01*
X130919000Y-42400000D01*
X130926321Y-42474329D01*
X130948002Y-42545802D01*
X130983210Y-42611672D01*
X131030592Y-42669408D01*
X131088328Y-42716790D01*
X131154198Y-42751998D01*
X131225671Y-42773679D01*
X131300000Y-42781000D01*
X133219000Y-42781000D01*
X133219000Y-43947261D01*
X133076922Y-43919000D01*
X132985813Y-43919000D01*
X132959671Y-43832821D01*
X132901190Y-43723411D01*
X132822488Y-43627512D01*
X132726589Y-43548810D01*
X132617179Y-43490329D01*
X132498462Y-43454317D01*
X132375000Y-43442157D01*
X131625000Y-43442157D01*
X131501538Y-43454317D01*
X131382821Y-43490329D01*
X131273411Y-43548810D01*
X131177512Y-43627512D01*
X131098810Y-43723411D01*
X131040329Y-43832821D01*
X131004317Y-43951538D01*
X130992157Y-44075000D01*
X130992157Y-44741209D01*
X130593921Y-44342975D01*
X130577290Y-44322710D01*
X130496435Y-44256354D01*
X130404188Y-44207047D01*
X130304094Y-44176683D01*
X130226084Y-44169000D01*
X130226074Y-44169000D01*
X130207843Y-44167204D01*
X130207843Y-44075000D01*
X130195683Y-43951538D01*
X130159671Y-43832821D01*
X130101190Y-43723411D01*
X130022488Y-43627512D01*
X129926589Y-43548810D01*
X129817179Y-43490329D01*
X129698462Y-43454317D01*
X129575000Y-43442157D01*
X128825000Y-43442157D01*
X128701538Y-43454317D01*
X128582821Y-43490329D01*
X128473411Y-43548810D01*
X128377512Y-43627512D01*
X128298810Y-43723411D01*
X128240329Y-43832821D01*
X128204317Y-43951538D01*
X128192157Y-44075000D01*
X128192157Y-44194000D01*
X125035813Y-44194000D01*
X125009671Y-44107821D01*
X124951190Y-43998411D01*
X124872488Y-43902512D01*
X124776589Y-43823810D01*
X124667179Y-43765329D01*
X124548462Y-43729317D01*
X124425001Y-43717157D01*
X123174999Y-43717157D01*
X123051538Y-43729317D01*
X122932821Y-43765329D01*
X122823411Y-43823810D01*
X122727512Y-43902512D01*
X122648810Y-43998411D01*
X122590329Y-44107821D01*
X122554317Y-44226538D01*
X122542157Y-44349999D01*
X122542157Y-45050001D01*
X122554317Y-45173462D01*
X122590329Y-45292179D01*
X122648810Y-45401589D01*
X122727512Y-45497488D01*
X122823411Y-45576190D01*
X122932821Y-45634671D01*
X123051538Y-45670683D01*
X123174999Y-45682843D01*
X124425001Y-45682843D01*
X124548462Y-45670683D01*
X124667179Y-45634671D01*
X124776589Y-45576190D01*
X124872488Y-45497488D01*
X124951190Y-45401589D01*
X125009671Y-45292179D01*
X125035813Y-45206000D01*
X128192157Y-45206000D01*
X128192157Y-45325000D01*
X128204317Y-45448462D01*
X128240329Y-45567179D01*
X128298810Y-45676589D01*
X128377512Y-45772488D01*
X128473411Y-45851190D01*
X128582821Y-45909671D01*
X128701538Y-45945683D01*
X128825000Y-45957843D01*
X129575000Y-45957843D01*
X129698462Y-45945683D01*
X129817179Y-45909671D01*
X129926589Y-45851190D01*
X130022488Y-45772488D01*
X130101190Y-45676589D01*
X130159671Y-45567179D01*
X130169001Y-45536422D01*
X130169001Y-46387772D01*
X130151333Y-46391286D01*
X129809013Y-46533080D01*
X129500933Y-46738932D01*
X129238932Y-47000933D01*
X129033080Y-47309013D01*
X128891286Y-47651333D01*
X128819000Y-48014738D01*
X128819000Y-48385262D01*
X128891286Y-48748667D01*
X129033080Y-49090987D01*
X129238932Y-49399067D01*
X129500933Y-49661068D01*
X129809013Y-49866920D01*
X130151333Y-50008714D01*
X130514738Y-50081000D01*
X130885262Y-50081000D01*
X131026705Y-50052865D01*
X135410639Y-50052865D01*
X135457256Y-50420445D01*
X135574689Y-50771868D01*
X135699684Y-51005717D01*
X135944227Y-51176167D01*
X137120395Y-50000000D01*
X137479605Y-50000000D01*
X138655773Y-51176167D01*
X138900316Y-51005717D01*
X139065772Y-50674186D01*
X139163371Y-50316747D01*
X139189361Y-49947135D01*
X139142744Y-49579555D01*
X139025311Y-49228132D01*
X138900316Y-48994283D01*
X138655773Y-48823833D01*
X137479605Y-50000000D01*
X137120395Y-50000000D01*
X135944227Y-48823833D01*
X135699684Y-48994283D01*
X135534228Y-49325814D01*
X135436629Y-49683253D01*
X135410639Y-50052865D01*
X131026705Y-50052865D01*
X131248667Y-50008714D01*
X131590987Y-49866920D01*
X131899067Y-49661068D01*
X132161068Y-49399067D01*
X132366920Y-49090987D01*
X132508714Y-48748667D01*
X132529488Y-48644227D01*
X136123833Y-48644227D01*
X137300000Y-49820395D01*
X138476167Y-48644227D01*
X138305717Y-48399684D01*
X137974186Y-48234228D01*
X137616747Y-48136629D01*
X137247135Y-48110639D01*
X136879555Y-48157256D01*
X136528132Y-48274689D01*
X136294283Y-48399684D01*
X136123833Y-48644227D01*
X132529488Y-48644227D01*
X132581000Y-48385262D01*
X132581000Y-48014738D01*
X132508714Y-47651333D01*
X132366920Y-47309013D01*
X132161068Y-47000933D01*
X131899067Y-46738932D01*
X131590987Y-46533080D01*
X131248667Y-46391286D01*
X131231000Y-46387772D01*
X131231000Y-45816384D01*
X131273411Y-45851190D01*
X131382821Y-45909671D01*
X131501538Y-45945683D01*
X131625000Y-45957843D01*
X132375000Y-45957843D01*
X132498462Y-45945683D01*
X132617179Y-45909671D01*
X132726589Y-45851190D01*
X132822488Y-45772488D01*
X132901190Y-45676589D01*
X132959671Y-45567179D01*
X132985813Y-45481000D01*
X133076922Y-45481000D01*
X133219000Y-45452739D01*
X133219000Y-46200000D01*
X133226321Y-46274329D01*
X133248002Y-46345802D01*
X133283210Y-46411672D01*
X133330592Y-46469408D01*
X133388328Y-46516790D01*
X133454198Y-46551998D01*
X133525671Y-46573679D01*
X133600000Y-46581000D01*
X139819000Y-46581000D01*
X139819000Y-49500000D01*
X139826321Y-49574329D01*
X139848002Y-49645802D01*
X139883210Y-49711672D01*
X139930592Y-49769408D01*
X139988328Y-49816790D01*
X140054198Y-49851998D01*
X140125671Y-49873679D01*
X140200000Y-49881000D01*
X145900000Y-49881000D01*
X145974329Y-49873679D01*
X146045802Y-49851998D01*
X146111672Y-49816790D01*
X146169408Y-49769408D01*
X146216790Y-49711672D01*
X146251998Y-49645802D01*
X146273679Y-49574329D01*
X146281000Y-49500000D01*
X146281000Y-40000000D01*
X146273679Y-39925671D01*
X146251998Y-39854198D01*
X146216790Y-39788328D01*
X146169408Y-39730592D01*
X146111672Y-39683210D01*
X146045802Y-39648002D01*
X145974329Y-39626321D01*
X145900000Y-39619000D01*
X144881000Y-39619000D01*
X144881000Y-37911046D01*
X144896291Y-37916368D01*
X145019396Y-37933537D01*
X145143484Y-37926358D01*
X145263789Y-37895110D01*
X145311098Y-37875513D01*
X145328957Y-37757905D01*
X146671043Y-37757905D01*
X146688902Y-37875513D01*
X146806291Y-37916368D01*
X146929396Y-37933537D01*
X147053484Y-37926358D01*
X147173789Y-37895110D01*
X147221098Y-37875513D01*
X147238957Y-37757905D01*
X146955000Y-37473948D01*
X146671043Y-37757905D01*
X145328957Y-37757905D01*
X145045000Y-37473948D01*
X145028029Y-37490919D01*
X144881000Y-37343890D01*
X144881000Y-37300000D01*
X145218948Y-37300000D01*
X145502905Y-37583957D01*
X145620513Y-37566098D01*
X145661368Y-37448709D01*
X145678537Y-37325604D01*
X145675575Y-37274396D01*
X146321463Y-37274396D01*
X146328642Y-37398484D01*
X146359890Y-37518789D01*
X146379487Y-37566098D01*
X146497095Y-37583957D01*
X146781052Y-37300000D01*
X147128948Y-37300000D01*
X147412905Y-37583957D01*
X147530513Y-37566098D01*
X147571368Y-37448709D01*
X147588537Y-37325604D01*
X147581358Y-37201516D01*
X147550110Y-37081211D01*
X147530513Y-37033902D01*
X147412905Y-37016043D01*
X147128948Y-37300000D01*
X146781052Y-37300000D01*
X146497095Y-37016043D01*
X146379487Y-37033902D01*
X146338632Y-37151291D01*
X146321463Y-37274396D01*
X145675575Y-37274396D01*
X145671358Y-37201516D01*
X145640110Y-37081211D01*
X145620513Y-37033902D01*
X145502905Y-37016043D01*
X145218948Y-37300000D01*
X144881000Y-37300000D01*
X144881000Y-37256110D01*
X145028029Y-37109081D01*
X145045000Y-37126052D01*
X145328957Y-36842095D01*
X146671043Y-36842095D01*
X146955000Y-37126052D01*
X147238957Y-36842095D01*
X147221098Y-36724487D01*
X147103709Y-36683632D01*
X146980604Y-36666463D01*
X146856516Y-36673642D01*
X146736211Y-36704890D01*
X146688902Y-36724487D01*
X146671043Y-36842095D01*
X145328957Y-36842095D01*
X145311098Y-36724487D01*
X145193709Y-36683632D01*
X145070604Y-36666463D01*
X144946516Y-36673642D01*
X144881000Y-36690659D01*
X144881000Y-36611046D01*
X144896291Y-36616368D01*
X145019396Y-36633537D01*
X145143484Y-36626358D01*
X145263789Y-36595110D01*
X145311098Y-36575513D01*
X145328957Y-36457905D01*
X145045000Y-36173948D01*
X145028029Y-36190919D01*
X144881000Y-36043890D01*
X144881000Y-36000000D01*
X145218948Y-36000000D01*
X145502905Y-36283957D01*
X145620513Y-36266098D01*
X145661368Y-36148709D01*
X145678537Y-36025604D01*
X145675575Y-35974396D01*
X146321463Y-35974396D01*
X146328642Y-36098484D01*
X146359890Y-36218789D01*
X146379487Y-36266098D01*
X146497095Y-36283957D01*
X146781052Y-36000000D01*
X146497095Y-35716043D01*
X146379487Y-35733902D01*
X146338632Y-35851291D01*
X146321463Y-35974396D01*
X145675575Y-35974396D01*
X145671358Y-35901516D01*
X145640110Y-35781211D01*
X145620513Y-35733902D01*
X145502905Y-35716043D01*
X145218948Y-36000000D01*
X144881000Y-36000000D01*
X144881000Y-35956110D01*
X145028029Y-35809081D01*
X145045000Y-35826052D01*
X145328957Y-35542095D01*
X145311098Y-35424487D01*
X145193709Y-35383632D01*
X145070604Y-35366463D01*
X144946516Y-35373642D01*
X144826211Y-35404890D01*
X144778902Y-35424487D01*
X144763523Y-35525762D01*
X144711672Y-35483210D01*
X144703393Y-35478785D01*
X144686895Y-35462287D01*
X144681890Y-35467292D01*
X144645802Y-35448002D01*
X144574329Y-35426321D01*
X144532843Y-35422235D01*
X144532843Y-35215000D01*
X144527220Y-35157905D01*
X144761043Y-35157905D01*
X144778902Y-35275513D01*
X144896291Y-35316368D01*
X145019396Y-35333537D01*
X145143484Y-35326358D01*
X145263789Y-35295110D01*
X145311098Y-35275513D01*
X145328957Y-35157905D01*
X145045000Y-34873948D01*
X144761043Y-35157905D01*
X144527220Y-35157905D01*
X144522605Y-35111047D01*
X144492283Y-35011090D01*
X144443043Y-34918968D01*
X144376777Y-34838223D01*
X144296032Y-34771957D01*
X144217536Y-34730000D01*
X144296032Y-34688043D01*
X144376777Y-34621777D01*
X144427405Y-34560086D01*
X144411463Y-34674396D01*
X144418642Y-34798484D01*
X144449890Y-34918789D01*
X144469487Y-34966098D01*
X144587095Y-34983957D01*
X144871052Y-34700000D01*
X145218948Y-34700000D01*
X145502905Y-34983957D01*
X145620513Y-34966098D01*
X145661368Y-34848709D01*
X145678537Y-34725604D01*
X145675575Y-34674396D01*
X146321463Y-34674396D01*
X146328642Y-34798484D01*
X146359890Y-34918789D01*
X146379487Y-34966098D01*
X146497095Y-34983957D01*
X146781052Y-34700000D01*
X146497095Y-34416043D01*
X146379487Y-34433902D01*
X146338632Y-34551291D01*
X146321463Y-34674396D01*
X145675575Y-34674396D01*
X145671358Y-34601516D01*
X145640110Y-34481211D01*
X145620513Y-34433902D01*
X145502905Y-34416043D01*
X145218948Y-34700000D01*
X144871052Y-34700000D01*
X144587095Y-34416043D01*
X144498156Y-34429549D01*
X144522605Y-34348953D01*
X144532843Y-34245000D01*
X144532843Y-34242095D01*
X144761043Y-34242095D01*
X145045000Y-34526052D01*
X145328957Y-34242095D01*
X145311098Y-34124487D01*
X145193709Y-34083632D01*
X145070604Y-34066463D01*
X144946516Y-34073642D01*
X144826211Y-34104890D01*
X144778902Y-34124487D01*
X144761043Y-34242095D01*
X144532843Y-34242095D01*
X144532843Y-33945000D01*
X144522605Y-33841047D01*
X144492283Y-33741090D01*
X144443043Y-33648968D01*
X144376777Y-33568223D01*
X144296032Y-33501957D01*
X144256824Y-33481000D01*
X145800000Y-33481000D01*
X145874329Y-33473679D01*
X145900000Y-33465892D01*
X145925671Y-33473679D01*
X146000000Y-33481000D01*
X147119000Y-33481000D01*
X147119000Y-34088954D01*
X147103709Y-34083632D01*
X146980604Y-34066463D01*
X146856516Y-34073642D01*
X146736211Y-34104890D01*
X146688902Y-34124487D01*
X146671043Y-34242095D01*
X146955000Y-34526052D01*
X146971971Y-34509081D01*
X147119000Y-34656110D01*
X147119000Y-34743890D01*
X146971971Y-34890919D01*
X146955000Y-34873948D01*
X146671043Y-35157905D01*
X146688902Y-35275513D01*
X146806291Y-35316368D01*
X146929396Y-35333537D01*
X147053484Y-35326358D01*
X147119000Y-35309341D01*
X147119000Y-35388954D01*
X147103709Y-35383632D01*
X146980604Y-35366463D01*
X146856516Y-35373642D01*
X146736211Y-35404890D01*
X146688902Y-35424487D01*
X146671043Y-35542095D01*
X146955000Y-35826052D01*
X146971971Y-35809081D01*
X147119000Y-35956110D01*
X147119000Y-36043890D01*
X146971971Y-36190919D01*
X146955000Y-36173948D01*
X146671043Y-36457905D01*
X146688902Y-36575513D01*
X146806291Y-36616368D01*
X146929396Y-36633537D01*
X147053484Y-36626358D01*
X147173789Y-36595110D01*
X147221098Y-36575513D01*
X147238211Y-36462819D01*
X147313105Y-36537713D01*
X147388435Y-36462383D01*
X147425671Y-36473679D01*
X147500000Y-36481000D01*
X153619000Y-36481000D01*
X153619000Y-40119000D01*
X150700000Y-40119000D01*
X150625671Y-40126321D01*
X150554198Y-40148002D01*
X150488328Y-40183210D01*
X150430592Y-40230592D01*
X150383210Y-40288328D01*
X150348002Y-40354198D01*
X150326321Y-40425671D01*
X150319000Y-40500000D01*
X150319000Y-49500000D01*
X150326321Y-49574329D01*
X150348002Y-49645802D01*
X150383210Y-49711672D01*
X150430592Y-49769408D01*
X150488328Y-49816790D01*
X150554198Y-49851998D01*
X150625671Y-49873679D01*
X150700000Y-49881000D01*
X161000000Y-49881000D01*
X161074329Y-49873679D01*
X161145802Y-49851998D01*
X161211672Y-49816790D01*
X161269408Y-49769408D01*
X161316790Y-49711672D01*
X161351998Y-49645802D01*
X161373679Y-49574329D01*
X161381000Y-49500000D01*
X161381000Y-40500000D01*
X161373679Y-40425671D01*
X161365892Y-40400000D01*
X161373679Y-40374329D01*
X161381000Y-40300000D01*
X161381000Y-30000000D01*
X161373679Y-29925671D01*
X161351998Y-29854198D01*
X161316790Y-29788328D01*
X161269408Y-29730592D01*
X161211672Y-29683210D01*
X161145802Y-29648002D01*
X161076567Y-29627000D01*
X161473000Y-29627000D01*
X161473000Y-53573000D01*
G36*
X137177241Y-35382479D02*
G01*
X137240473Y-35459527D01*
X137259785Y-35475376D01*
X137489624Y-35705215D01*
X137505473Y-35724527D01*
X137582521Y-35787759D01*
X137654162Y-35826052D01*
X137670425Y-35834745D01*
X137765807Y-35863678D01*
X137865000Y-35873448D01*
X137889854Y-35871000D01*
X141019000Y-35871000D01*
X141019000Y-38319000D01*
X136381000Y-38319000D01*
X136381000Y-36800000D01*
X136377068Y-36760075D01*
X136416790Y-36711672D01*
X136451998Y-36645802D01*
X136473679Y-36574329D01*
X136481000Y-36500000D01*
X136481000Y-35381000D01*
X137176450Y-35381000D01*
X137177241Y-35382479D01*
G37*
X137177241Y-35382479D02*
X137240473Y-35459527D01*
X137259785Y-35475376D01*
X137489624Y-35705215D01*
X137505473Y-35724527D01*
X137582521Y-35787759D01*
X137654162Y-35826052D01*
X137670425Y-35834745D01*
X137765807Y-35863678D01*
X137865000Y-35873448D01*
X137889854Y-35871000D01*
X141019000Y-35871000D01*
X141019000Y-38319000D01*
X136381000Y-38319000D01*
X136381000Y-36800000D01*
X136377068Y-36760075D01*
X136416790Y-36711672D01*
X136451998Y-36645802D01*
X136473679Y-36574329D01*
X136481000Y-36500000D01*
X136481000Y-35381000D01*
X137176450Y-35381000D01*
X137177241Y-35382479D01*
M02*
