G04 #@! TF.GenerationSoftware,KiCad,Pcbnew,(5.1.5)-3*
G04 #@! TF.CreationDate,2020-10-29T10:50:42+02:00*
G04 #@! TF.ProjectId,al8843,616c3838-3433-42e6-9b69-6361645f7063,rev?*
G04 #@! TF.SameCoordinates,Original*
G04 #@! TF.FileFunction,Paste,Top*
G04 #@! TF.FilePolarity,Positive*
%FSLAX46Y46*%
G04 Gerber Fmt 4.6, Leading zero omitted, Abs format (unit mm)*
G04 Created by KiCad (PCBNEW (5.1.5)-3) date 2020-10-29 10:50:42*
%MOMM*%
%LPD*%
G04 APERTURE LIST*
%ADD10C,0.100000*%
%ADD11R,2.300000X2.500000*%
%ADD12R,2.900000X5.400000*%
G04 APERTURE END LIST*
D10*
G36*
X130749504Y-34076204D02*
G01*
X130773773Y-34079804D01*
X130797571Y-34085765D01*
X130820671Y-34094030D01*
X130842849Y-34104520D01*
X130863893Y-34117133D01*
X130883598Y-34131747D01*
X130901777Y-34148223D01*
X130918253Y-34166402D01*
X130932867Y-34186107D01*
X130945480Y-34207151D01*
X130955970Y-34229329D01*
X130964235Y-34252429D01*
X130970196Y-34276227D01*
X130973796Y-34300496D01*
X130975000Y-34325000D01*
X130975000Y-35075000D01*
X130973796Y-35099504D01*
X130970196Y-35123773D01*
X130964235Y-35147571D01*
X130955970Y-35170671D01*
X130945480Y-35192849D01*
X130932867Y-35213893D01*
X130918253Y-35233598D01*
X130901777Y-35251777D01*
X130883598Y-35268253D01*
X130863893Y-35282867D01*
X130842849Y-35295480D01*
X130820671Y-35305970D01*
X130797571Y-35314235D01*
X130773773Y-35320196D01*
X130749504Y-35323796D01*
X130725000Y-35325000D01*
X129475000Y-35325000D01*
X129450496Y-35323796D01*
X129426227Y-35320196D01*
X129402429Y-35314235D01*
X129379329Y-35305970D01*
X129357151Y-35295480D01*
X129336107Y-35282867D01*
X129316402Y-35268253D01*
X129298223Y-35251777D01*
X129281747Y-35233598D01*
X129267133Y-35213893D01*
X129254520Y-35192849D01*
X129244030Y-35170671D01*
X129235765Y-35147571D01*
X129229804Y-35123773D01*
X129226204Y-35099504D01*
X129225000Y-35075000D01*
X129225000Y-34325000D01*
X129226204Y-34300496D01*
X129229804Y-34276227D01*
X129235765Y-34252429D01*
X129244030Y-34229329D01*
X129254520Y-34207151D01*
X129267133Y-34186107D01*
X129281747Y-34166402D01*
X129298223Y-34148223D01*
X129316402Y-34131747D01*
X129336107Y-34117133D01*
X129357151Y-34104520D01*
X129379329Y-34094030D01*
X129402429Y-34085765D01*
X129426227Y-34079804D01*
X129450496Y-34076204D01*
X129475000Y-34075000D01*
X130725000Y-34075000D01*
X130749504Y-34076204D01*
G37*
G36*
X130749504Y-36876204D02*
G01*
X130773773Y-36879804D01*
X130797571Y-36885765D01*
X130820671Y-36894030D01*
X130842849Y-36904520D01*
X130863893Y-36917133D01*
X130883598Y-36931747D01*
X130901777Y-36948223D01*
X130918253Y-36966402D01*
X130932867Y-36986107D01*
X130945480Y-37007151D01*
X130955970Y-37029329D01*
X130964235Y-37052429D01*
X130970196Y-37076227D01*
X130973796Y-37100496D01*
X130975000Y-37125000D01*
X130975000Y-37875000D01*
X130973796Y-37899504D01*
X130970196Y-37923773D01*
X130964235Y-37947571D01*
X130955970Y-37970671D01*
X130945480Y-37992849D01*
X130932867Y-38013893D01*
X130918253Y-38033598D01*
X130901777Y-38051777D01*
X130883598Y-38068253D01*
X130863893Y-38082867D01*
X130842849Y-38095480D01*
X130820671Y-38105970D01*
X130797571Y-38114235D01*
X130773773Y-38120196D01*
X130749504Y-38123796D01*
X130725000Y-38125000D01*
X129475000Y-38125000D01*
X129450496Y-38123796D01*
X129426227Y-38120196D01*
X129402429Y-38114235D01*
X129379329Y-38105970D01*
X129357151Y-38095480D01*
X129336107Y-38082867D01*
X129316402Y-38068253D01*
X129298223Y-38051777D01*
X129281747Y-38033598D01*
X129267133Y-38013893D01*
X129254520Y-37992849D01*
X129244030Y-37970671D01*
X129235765Y-37947571D01*
X129229804Y-37923773D01*
X129226204Y-37899504D01*
X129225000Y-37875000D01*
X129225000Y-37125000D01*
X129226204Y-37100496D01*
X129229804Y-37076227D01*
X129235765Y-37052429D01*
X129244030Y-37029329D01*
X129254520Y-37007151D01*
X129267133Y-36986107D01*
X129281747Y-36966402D01*
X129298223Y-36948223D01*
X129316402Y-36931747D01*
X129336107Y-36917133D01*
X129357151Y-36904520D01*
X129379329Y-36894030D01*
X129402429Y-36885765D01*
X129426227Y-36879804D01*
X129450496Y-36876204D01*
X129475000Y-36875000D01*
X130725000Y-36875000D01*
X130749504Y-36876204D01*
G37*
G36*
X128349504Y-36876204D02*
G01*
X128373773Y-36879804D01*
X128397571Y-36885765D01*
X128420671Y-36894030D01*
X128442849Y-36904520D01*
X128463893Y-36917133D01*
X128483598Y-36931747D01*
X128501777Y-36948223D01*
X128518253Y-36966402D01*
X128532867Y-36986107D01*
X128545480Y-37007151D01*
X128555970Y-37029329D01*
X128564235Y-37052429D01*
X128570196Y-37076227D01*
X128573796Y-37100496D01*
X128575000Y-37125000D01*
X128575000Y-37875000D01*
X128573796Y-37899504D01*
X128570196Y-37923773D01*
X128564235Y-37947571D01*
X128555970Y-37970671D01*
X128545480Y-37992849D01*
X128532867Y-38013893D01*
X128518253Y-38033598D01*
X128501777Y-38051777D01*
X128483598Y-38068253D01*
X128463893Y-38082867D01*
X128442849Y-38095480D01*
X128420671Y-38105970D01*
X128397571Y-38114235D01*
X128373773Y-38120196D01*
X128349504Y-38123796D01*
X128325000Y-38125000D01*
X127075000Y-38125000D01*
X127050496Y-38123796D01*
X127026227Y-38120196D01*
X127002429Y-38114235D01*
X126979329Y-38105970D01*
X126957151Y-38095480D01*
X126936107Y-38082867D01*
X126916402Y-38068253D01*
X126898223Y-38051777D01*
X126881747Y-38033598D01*
X126867133Y-38013893D01*
X126854520Y-37992849D01*
X126844030Y-37970671D01*
X126835765Y-37947571D01*
X126829804Y-37923773D01*
X126826204Y-37899504D01*
X126825000Y-37875000D01*
X126825000Y-37125000D01*
X126826204Y-37100496D01*
X126829804Y-37076227D01*
X126835765Y-37052429D01*
X126844030Y-37029329D01*
X126854520Y-37007151D01*
X126867133Y-36986107D01*
X126881747Y-36966402D01*
X126898223Y-36948223D01*
X126916402Y-36931747D01*
X126936107Y-36917133D01*
X126957151Y-36904520D01*
X126979329Y-36894030D01*
X127002429Y-36885765D01*
X127026227Y-36879804D01*
X127050496Y-36876204D01*
X127075000Y-36875000D01*
X128325000Y-36875000D01*
X128349504Y-36876204D01*
G37*
G36*
X128349504Y-34076204D02*
G01*
X128373773Y-34079804D01*
X128397571Y-34085765D01*
X128420671Y-34094030D01*
X128442849Y-34104520D01*
X128463893Y-34117133D01*
X128483598Y-34131747D01*
X128501777Y-34148223D01*
X128518253Y-34166402D01*
X128532867Y-34186107D01*
X128545480Y-34207151D01*
X128555970Y-34229329D01*
X128564235Y-34252429D01*
X128570196Y-34276227D01*
X128573796Y-34300496D01*
X128575000Y-34325000D01*
X128575000Y-35075000D01*
X128573796Y-35099504D01*
X128570196Y-35123773D01*
X128564235Y-35147571D01*
X128555970Y-35170671D01*
X128545480Y-35192849D01*
X128532867Y-35213893D01*
X128518253Y-35233598D01*
X128501777Y-35251777D01*
X128483598Y-35268253D01*
X128463893Y-35282867D01*
X128442849Y-35295480D01*
X128420671Y-35305970D01*
X128397571Y-35314235D01*
X128373773Y-35320196D01*
X128349504Y-35323796D01*
X128325000Y-35325000D01*
X127075000Y-35325000D01*
X127050496Y-35323796D01*
X127026227Y-35320196D01*
X127002429Y-35314235D01*
X126979329Y-35305970D01*
X126957151Y-35295480D01*
X126936107Y-35282867D01*
X126916402Y-35268253D01*
X126898223Y-35251777D01*
X126881747Y-35233598D01*
X126867133Y-35213893D01*
X126854520Y-35192849D01*
X126844030Y-35170671D01*
X126835765Y-35147571D01*
X126829804Y-35123773D01*
X126826204Y-35099504D01*
X126825000Y-35075000D01*
X126825000Y-34325000D01*
X126826204Y-34300496D01*
X126829804Y-34276227D01*
X126835765Y-34252429D01*
X126844030Y-34229329D01*
X126854520Y-34207151D01*
X126867133Y-34186107D01*
X126881747Y-34166402D01*
X126898223Y-34148223D01*
X126916402Y-34131747D01*
X126936107Y-34117133D01*
X126957151Y-34104520D01*
X126979329Y-34094030D01*
X127002429Y-34085765D01*
X127026227Y-34079804D01*
X127050496Y-34076204D01*
X127075000Y-34075000D01*
X128325000Y-34075000D01*
X128349504Y-34076204D01*
G37*
G36*
X140749504Y-33476204D02*
G01*
X140773773Y-33479804D01*
X140797571Y-33485765D01*
X140820671Y-33494030D01*
X140842849Y-33504520D01*
X140863893Y-33517133D01*
X140883598Y-33531747D01*
X140901777Y-33548223D01*
X140918253Y-33566402D01*
X140932867Y-33586107D01*
X140945480Y-33607151D01*
X140955970Y-33629329D01*
X140964235Y-33652429D01*
X140970196Y-33676227D01*
X140973796Y-33700496D01*
X140975000Y-33725000D01*
X140975000Y-34475000D01*
X140973796Y-34499504D01*
X140970196Y-34523773D01*
X140964235Y-34547571D01*
X140955970Y-34570671D01*
X140945480Y-34592849D01*
X140932867Y-34613893D01*
X140918253Y-34633598D01*
X140901777Y-34651777D01*
X140883598Y-34668253D01*
X140863893Y-34682867D01*
X140842849Y-34695480D01*
X140820671Y-34705970D01*
X140797571Y-34714235D01*
X140773773Y-34720196D01*
X140749504Y-34723796D01*
X140725000Y-34725000D01*
X139475000Y-34725000D01*
X139450496Y-34723796D01*
X139426227Y-34720196D01*
X139402429Y-34714235D01*
X139379329Y-34705970D01*
X139357151Y-34695480D01*
X139336107Y-34682867D01*
X139316402Y-34668253D01*
X139298223Y-34651777D01*
X139281747Y-34633598D01*
X139267133Y-34613893D01*
X139254520Y-34592849D01*
X139244030Y-34570671D01*
X139235765Y-34547571D01*
X139229804Y-34523773D01*
X139226204Y-34499504D01*
X139225000Y-34475000D01*
X139225000Y-33725000D01*
X139226204Y-33700496D01*
X139229804Y-33676227D01*
X139235765Y-33652429D01*
X139244030Y-33629329D01*
X139254520Y-33607151D01*
X139267133Y-33586107D01*
X139281747Y-33566402D01*
X139298223Y-33548223D01*
X139316402Y-33531747D01*
X139336107Y-33517133D01*
X139357151Y-33504520D01*
X139379329Y-33494030D01*
X139402429Y-33485765D01*
X139426227Y-33479804D01*
X139450496Y-33476204D01*
X139475000Y-33475000D01*
X140725000Y-33475000D01*
X140749504Y-33476204D01*
G37*
G36*
X140749504Y-36276204D02*
G01*
X140773773Y-36279804D01*
X140797571Y-36285765D01*
X140820671Y-36294030D01*
X140842849Y-36304520D01*
X140863893Y-36317133D01*
X140883598Y-36331747D01*
X140901777Y-36348223D01*
X140918253Y-36366402D01*
X140932867Y-36386107D01*
X140945480Y-36407151D01*
X140955970Y-36429329D01*
X140964235Y-36452429D01*
X140970196Y-36476227D01*
X140973796Y-36500496D01*
X140975000Y-36525000D01*
X140975000Y-37275000D01*
X140973796Y-37299504D01*
X140970196Y-37323773D01*
X140964235Y-37347571D01*
X140955970Y-37370671D01*
X140945480Y-37392849D01*
X140932867Y-37413893D01*
X140918253Y-37433598D01*
X140901777Y-37451777D01*
X140883598Y-37468253D01*
X140863893Y-37482867D01*
X140842849Y-37495480D01*
X140820671Y-37505970D01*
X140797571Y-37514235D01*
X140773773Y-37520196D01*
X140749504Y-37523796D01*
X140725000Y-37525000D01*
X139475000Y-37525000D01*
X139450496Y-37523796D01*
X139426227Y-37520196D01*
X139402429Y-37514235D01*
X139379329Y-37505970D01*
X139357151Y-37495480D01*
X139336107Y-37482867D01*
X139316402Y-37468253D01*
X139298223Y-37451777D01*
X139281747Y-37433598D01*
X139267133Y-37413893D01*
X139254520Y-37392849D01*
X139244030Y-37370671D01*
X139235765Y-37347571D01*
X139229804Y-37323773D01*
X139226204Y-37299504D01*
X139225000Y-37275000D01*
X139225000Y-36525000D01*
X139226204Y-36500496D01*
X139229804Y-36476227D01*
X139235765Y-36452429D01*
X139244030Y-36429329D01*
X139254520Y-36407151D01*
X139267133Y-36386107D01*
X139281747Y-36366402D01*
X139298223Y-36348223D01*
X139316402Y-36331747D01*
X139336107Y-36317133D01*
X139357151Y-36304520D01*
X139379329Y-36294030D01*
X139402429Y-36285765D01*
X139426227Y-36279804D01*
X139450496Y-36276204D01*
X139475000Y-36275000D01*
X140725000Y-36275000D01*
X140749504Y-36276204D01*
G37*
G36*
X138249504Y-33476204D02*
G01*
X138273773Y-33479804D01*
X138297571Y-33485765D01*
X138320671Y-33494030D01*
X138342849Y-33504520D01*
X138363893Y-33517133D01*
X138383598Y-33531747D01*
X138401777Y-33548223D01*
X138418253Y-33566402D01*
X138432867Y-33586107D01*
X138445480Y-33607151D01*
X138455970Y-33629329D01*
X138464235Y-33652429D01*
X138470196Y-33676227D01*
X138473796Y-33700496D01*
X138475000Y-33725000D01*
X138475000Y-34475000D01*
X138473796Y-34499504D01*
X138470196Y-34523773D01*
X138464235Y-34547571D01*
X138455970Y-34570671D01*
X138445480Y-34592849D01*
X138432867Y-34613893D01*
X138418253Y-34633598D01*
X138401777Y-34651777D01*
X138383598Y-34668253D01*
X138363893Y-34682867D01*
X138342849Y-34695480D01*
X138320671Y-34705970D01*
X138297571Y-34714235D01*
X138273773Y-34720196D01*
X138249504Y-34723796D01*
X138225000Y-34725000D01*
X136975000Y-34725000D01*
X136950496Y-34723796D01*
X136926227Y-34720196D01*
X136902429Y-34714235D01*
X136879329Y-34705970D01*
X136857151Y-34695480D01*
X136836107Y-34682867D01*
X136816402Y-34668253D01*
X136798223Y-34651777D01*
X136781747Y-34633598D01*
X136767133Y-34613893D01*
X136754520Y-34592849D01*
X136744030Y-34570671D01*
X136735765Y-34547571D01*
X136729804Y-34523773D01*
X136726204Y-34499504D01*
X136725000Y-34475000D01*
X136725000Y-33725000D01*
X136726204Y-33700496D01*
X136729804Y-33676227D01*
X136735765Y-33652429D01*
X136744030Y-33629329D01*
X136754520Y-33607151D01*
X136767133Y-33586107D01*
X136781747Y-33566402D01*
X136798223Y-33548223D01*
X136816402Y-33531747D01*
X136836107Y-33517133D01*
X136857151Y-33504520D01*
X136879329Y-33494030D01*
X136902429Y-33485765D01*
X136926227Y-33479804D01*
X136950496Y-33476204D01*
X136975000Y-33475000D01*
X138225000Y-33475000D01*
X138249504Y-33476204D01*
G37*
G36*
X138249504Y-36276204D02*
G01*
X138273773Y-36279804D01*
X138297571Y-36285765D01*
X138320671Y-36294030D01*
X138342849Y-36304520D01*
X138363893Y-36317133D01*
X138383598Y-36331747D01*
X138401777Y-36348223D01*
X138418253Y-36366402D01*
X138432867Y-36386107D01*
X138445480Y-36407151D01*
X138455970Y-36429329D01*
X138464235Y-36452429D01*
X138470196Y-36476227D01*
X138473796Y-36500496D01*
X138475000Y-36525000D01*
X138475000Y-37275000D01*
X138473796Y-37299504D01*
X138470196Y-37323773D01*
X138464235Y-37347571D01*
X138455970Y-37370671D01*
X138445480Y-37392849D01*
X138432867Y-37413893D01*
X138418253Y-37433598D01*
X138401777Y-37451777D01*
X138383598Y-37468253D01*
X138363893Y-37482867D01*
X138342849Y-37495480D01*
X138320671Y-37505970D01*
X138297571Y-37514235D01*
X138273773Y-37520196D01*
X138249504Y-37523796D01*
X138225000Y-37525000D01*
X136975000Y-37525000D01*
X136950496Y-37523796D01*
X136926227Y-37520196D01*
X136902429Y-37514235D01*
X136879329Y-37505970D01*
X136857151Y-37495480D01*
X136836107Y-37482867D01*
X136816402Y-37468253D01*
X136798223Y-37451777D01*
X136781747Y-37433598D01*
X136767133Y-37413893D01*
X136754520Y-37392849D01*
X136744030Y-37370671D01*
X136735765Y-37347571D01*
X136729804Y-37323773D01*
X136726204Y-37299504D01*
X136725000Y-37275000D01*
X136725000Y-36525000D01*
X136726204Y-36500496D01*
X136729804Y-36476227D01*
X136735765Y-36452429D01*
X136744030Y-36429329D01*
X136754520Y-36407151D01*
X136767133Y-36386107D01*
X136781747Y-36366402D01*
X136798223Y-36348223D01*
X136816402Y-36331747D01*
X136836107Y-36317133D01*
X136857151Y-36304520D01*
X136879329Y-36294030D01*
X136902429Y-36285765D01*
X136926227Y-36279804D01*
X136950496Y-36276204D01*
X136975000Y-36275000D01*
X138225000Y-36275000D01*
X138249504Y-36276204D01*
G37*
G36*
X156549504Y-41176204D02*
G01*
X156573773Y-41179804D01*
X156597571Y-41185765D01*
X156620671Y-41194030D01*
X156642849Y-41204520D01*
X156663893Y-41217133D01*
X156683598Y-41231747D01*
X156701777Y-41248223D01*
X156718253Y-41266402D01*
X156732867Y-41286107D01*
X156745480Y-41307151D01*
X156755970Y-41329329D01*
X156764235Y-41352429D01*
X156770196Y-41376227D01*
X156773796Y-41400496D01*
X156775000Y-41425000D01*
X156775000Y-42175000D01*
X156773796Y-42199504D01*
X156770196Y-42223773D01*
X156764235Y-42247571D01*
X156755970Y-42270671D01*
X156745480Y-42292849D01*
X156732867Y-42313893D01*
X156718253Y-42333598D01*
X156701777Y-42351777D01*
X156683598Y-42368253D01*
X156663893Y-42382867D01*
X156642849Y-42395480D01*
X156620671Y-42405970D01*
X156597571Y-42414235D01*
X156573773Y-42420196D01*
X156549504Y-42423796D01*
X156525000Y-42425000D01*
X155275000Y-42425000D01*
X155250496Y-42423796D01*
X155226227Y-42420196D01*
X155202429Y-42414235D01*
X155179329Y-42405970D01*
X155157151Y-42395480D01*
X155136107Y-42382867D01*
X155116402Y-42368253D01*
X155098223Y-42351777D01*
X155081747Y-42333598D01*
X155067133Y-42313893D01*
X155054520Y-42292849D01*
X155044030Y-42270671D01*
X155035765Y-42247571D01*
X155029804Y-42223773D01*
X155026204Y-42199504D01*
X155025000Y-42175000D01*
X155025000Y-41425000D01*
X155026204Y-41400496D01*
X155029804Y-41376227D01*
X155035765Y-41352429D01*
X155044030Y-41329329D01*
X155054520Y-41307151D01*
X155067133Y-41286107D01*
X155081747Y-41266402D01*
X155098223Y-41248223D01*
X155116402Y-41231747D01*
X155136107Y-41217133D01*
X155157151Y-41204520D01*
X155179329Y-41194030D01*
X155202429Y-41185765D01*
X155226227Y-41179804D01*
X155250496Y-41176204D01*
X155275000Y-41175000D01*
X156525000Y-41175000D01*
X156549504Y-41176204D01*
G37*
G36*
X156549504Y-38376204D02*
G01*
X156573773Y-38379804D01*
X156597571Y-38385765D01*
X156620671Y-38394030D01*
X156642849Y-38404520D01*
X156663893Y-38417133D01*
X156683598Y-38431747D01*
X156701777Y-38448223D01*
X156718253Y-38466402D01*
X156732867Y-38486107D01*
X156745480Y-38507151D01*
X156755970Y-38529329D01*
X156764235Y-38552429D01*
X156770196Y-38576227D01*
X156773796Y-38600496D01*
X156775000Y-38625000D01*
X156775000Y-39375000D01*
X156773796Y-39399504D01*
X156770196Y-39423773D01*
X156764235Y-39447571D01*
X156755970Y-39470671D01*
X156745480Y-39492849D01*
X156732867Y-39513893D01*
X156718253Y-39533598D01*
X156701777Y-39551777D01*
X156683598Y-39568253D01*
X156663893Y-39582867D01*
X156642849Y-39595480D01*
X156620671Y-39605970D01*
X156597571Y-39614235D01*
X156573773Y-39620196D01*
X156549504Y-39623796D01*
X156525000Y-39625000D01*
X155275000Y-39625000D01*
X155250496Y-39623796D01*
X155226227Y-39620196D01*
X155202429Y-39614235D01*
X155179329Y-39605970D01*
X155157151Y-39595480D01*
X155136107Y-39582867D01*
X155116402Y-39568253D01*
X155098223Y-39551777D01*
X155081747Y-39533598D01*
X155067133Y-39513893D01*
X155054520Y-39492849D01*
X155044030Y-39470671D01*
X155035765Y-39447571D01*
X155029804Y-39423773D01*
X155026204Y-39399504D01*
X155025000Y-39375000D01*
X155025000Y-38625000D01*
X155026204Y-38600496D01*
X155029804Y-38576227D01*
X155035765Y-38552429D01*
X155044030Y-38529329D01*
X155054520Y-38507151D01*
X155067133Y-38486107D01*
X155081747Y-38466402D01*
X155098223Y-38448223D01*
X155116402Y-38431747D01*
X155136107Y-38417133D01*
X155157151Y-38404520D01*
X155179329Y-38394030D01*
X155202429Y-38385765D01*
X155226227Y-38379804D01*
X155250496Y-38376204D01*
X155275000Y-38375000D01*
X156525000Y-38375000D01*
X156549504Y-38376204D01*
G37*
G36*
X159049504Y-41176204D02*
G01*
X159073773Y-41179804D01*
X159097571Y-41185765D01*
X159120671Y-41194030D01*
X159142849Y-41204520D01*
X159163893Y-41217133D01*
X159183598Y-41231747D01*
X159201777Y-41248223D01*
X159218253Y-41266402D01*
X159232867Y-41286107D01*
X159245480Y-41307151D01*
X159255970Y-41329329D01*
X159264235Y-41352429D01*
X159270196Y-41376227D01*
X159273796Y-41400496D01*
X159275000Y-41425000D01*
X159275000Y-42175000D01*
X159273796Y-42199504D01*
X159270196Y-42223773D01*
X159264235Y-42247571D01*
X159255970Y-42270671D01*
X159245480Y-42292849D01*
X159232867Y-42313893D01*
X159218253Y-42333598D01*
X159201777Y-42351777D01*
X159183598Y-42368253D01*
X159163893Y-42382867D01*
X159142849Y-42395480D01*
X159120671Y-42405970D01*
X159097571Y-42414235D01*
X159073773Y-42420196D01*
X159049504Y-42423796D01*
X159025000Y-42425000D01*
X157775000Y-42425000D01*
X157750496Y-42423796D01*
X157726227Y-42420196D01*
X157702429Y-42414235D01*
X157679329Y-42405970D01*
X157657151Y-42395480D01*
X157636107Y-42382867D01*
X157616402Y-42368253D01*
X157598223Y-42351777D01*
X157581747Y-42333598D01*
X157567133Y-42313893D01*
X157554520Y-42292849D01*
X157544030Y-42270671D01*
X157535765Y-42247571D01*
X157529804Y-42223773D01*
X157526204Y-42199504D01*
X157525000Y-42175000D01*
X157525000Y-41425000D01*
X157526204Y-41400496D01*
X157529804Y-41376227D01*
X157535765Y-41352429D01*
X157544030Y-41329329D01*
X157554520Y-41307151D01*
X157567133Y-41286107D01*
X157581747Y-41266402D01*
X157598223Y-41248223D01*
X157616402Y-41231747D01*
X157636107Y-41217133D01*
X157657151Y-41204520D01*
X157679329Y-41194030D01*
X157702429Y-41185765D01*
X157726227Y-41179804D01*
X157750496Y-41176204D01*
X157775000Y-41175000D01*
X159025000Y-41175000D01*
X159049504Y-41176204D01*
G37*
G36*
X159049504Y-38376204D02*
G01*
X159073773Y-38379804D01*
X159097571Y-38385765D01*
X159120671Y-38394030D01*
X159142849Y-38404520D01*
X159163893Y-38417133D01*
X159183598Y-38431747D01*
X159201777Y-38448223D01*
X159218253Y-38466402D01*
X159232867Y-38486107D01*
X159245480Y-38507151D01*
X159255970Y-38529329D01*
X159264235Y-38552429D01*
X159270196Y-38576227D01*
X159273796Y-38600496D01*
X159275000Y-38625000D01*
X159275000Y-39375000D01*
X159273796Y-39399504D01*
X159270196Y-39423773D01*
X159264235Y-39447571D01*
X159255970Y-39470671D01*
X159245480Y-39492849D01*
X159232867Y-39513893D01*
X159218253Y-39533598D01*
X159201777Y-39551777D01*
X159183598Y-39568253D01*
X159163893Y-39582867D01*
X159142849Y-39595480D01*
X159120671Y-39605970D01*
X159097571Y-39614235D01*
X159073773Y-39620196D01*
X159049504Y-39623796D01*
X159025000Y-39625000D01*
X157775000Y-39625000D01*
X157750496Y-39623796D01*
X157726227Y-39620196D01*
X157702429Y-39614235D01*
X157679329Y-39605970D01*
X157657151Y-39595480D01*
X157636107Y-39582867D01*
X157616402Y-39568253D01*
X157598223Y-39551777D01*
X157581747Y-39533598D01*
X157567133Y-39513893D01*
X157554520Y-39492849D01*
X157544030Y-39470671D01*
X157535765Y-39447571D01*
X157529804Y-39423773D01*
X157526204Y-39399504D01*
X157525000Y-39375000D01*
X157525000Y-38625000D01*
X157526204Y-38600496D01*
X157529804Y-38576227D01*
X157535765Y-38552429D01*
X157544030Y-38529329D01*
X157554520Y-38507151D01*
X157567133Y-38486107D01*
X157581747Y-38466402D01*
X157598223Y-38448223D01*
X157616402Y-38431747D01*
X157636107Y-38417133D01*
X157657151Y-38404520D01*
X157679329Y-38394030D01*
X157702429Y-38385765D01*
X157726227Y-38379804D01*
X157750496Y-38376204D01*
X157775000Y-38375000D01*
X159025000Y-38375000D01*
X159049504Y-38376204D01*
G37*
D11*
X134000000Y-34700000D03*
X134000000Y-39000000D03*
D12*
X152850000Y-46000000D03*
X143150000Y-46000000D03*
D10*
G36*
X132399504Y-43826204D02*
G01*
X132423773Y-43829804D01*
X132447571Y-43835765D01*
X132470671Y-43844030D01*
X132492849Y-43854520D01*
X132513893Y-43867133D01*
X132533598Y-43881747D01*
X132551777Y-43898223D01*
X132568253Y-43916402D01*
X132582867Y-43936107D01*
X132595480Y-43957151D01*
X132605970Y-43979329D01*
X132614235Y-44002429D01*
X132620196Y-44026227D01*
X132623796Y-44050496D01*
X132625000Y-44075000D01*
X132625000Y-45325000D01*
X132623796Y-45349504D01*
X132620196Y-45373773D01*
X132614235Y-45397571D01*
X132605970Y-45420671D01*
X132595480Y-45442849D01*
X132582867Y-45463893D01*
X132568253Y-45483598D01*
X132551777Y-45501777D01*
X132533598Y-45518253D01*
X132513893Y-45532867D01*
X132492849Y-45545480D01*
X132470671Y-45555970D01*
X132447571Y-45564235D01*
X132423773Y-45570196D01*
X132399504Y-45573796D01*
X132375000Y-45575000D01*
X131625000Y-45575000D01*
X131600496Y-45573796D01*
X131576227Y-45570196D01*
X131552429Y-45564235D01*
X131529329Y-45555970D01*
X131507151Y-45545480D01*
X131486107Y-45532867D01*
X131466402Y-45518253D01*
X131448223Y-45501777D01*
X131431747Y-45483598D01*
X131417133Y-45463893D01*
X131404520Y-45442849D01*
X131394030Y-45420671D01*
X131385765Y-45397571D01*
X131379804Y-45373773D01*
X131376204Y-45349504D01*
X131375000Y-45325000D01*
X131375000Y-44075000D01*
X131376204Y-44050496D01*
X131379804Y-44026227D01*
X131385765Y-44002429D01*
X131394030Y-43979329D01*
X131404520Y-43957151D01*
X131417133Y-43936107D01*
X131431747Y-43916402D01*
X131448223Y-43898223D01*
X131466402Y-43881747D01*
X131486107Y-43867133D01*
X131507151Y-43854520D01*
X131529329Y-43844030D01*
X131552429Y-43835765D01*
X131576227Y-43829804D01*
X131600496Y-43826204D01*
X131625000Y-43825000D01*
X132375000Y-43825000D01*
X132399504Y-43826204D01*
G37*
G36*
X129599504Y-43826204D02*
G01*
X129623773Y-43829804D01*
X129647571Y-43835765D01*
X129670671Y-43844030D01*
X129692849Y-43854520D01*
X129713893Y-43867133D01*
X129733598Y-43881747D01*
X129751777Y-43898223D01*
X129768253Y-43916402D01*
X129782867Y-43936107D01*
X129795480Y-43957151D01*
X129805970Y-43979329D01*
X129814235Y-44002429D01*
X129820196Y-44026227D01*
X129823796Y-44050496D01*
X129825000Y-44075000D01*
X129825000Y-45325000D01*
X129823796Y-45349504D01*
X129820196Y-45373773D01*
X129814235Y-45397571D01*
X129805970Y-45420671D01*
X129795480Y-45442849D01*
X129782867Y-45463893D01*
X129768253Y-45483598D01*
X129751777Y-45501777D01*
X129733598Y-45518253D01*
X129713893Y-45532867D01*
X129692849Y-45545480D01*
X129670671Y-45555970D01*
X129647571Y-45564235D01*
X129623773Y-45570196D01*
X129599504Y-45573796D01*
X129575000Y-45575000D01*
X128825000Y-45575000D01*
X128800496Y-45573796D01*
X128776227Y-45570196D01*
X128752429Y-45564235D01*
X128729329Y-45555970D01*
X128707151Y-45545480D01*
X128686107Y-45532867D01*
X128666402Y-45518253D01*
X128648223Y-45501777D01*
X128631747Y-45483598D01*
X128617133Y-45463893D01*
X128604520Y-45442849D01*
X128594030Y-45420671D01*
X128585765Y-45397571D01*
X128579804Y-45373773D01*
X128576204Y-45349504D01*
X128575000Y-45325000D01*
X128575000Y-44075000D01*
X128576204Y-44050496D01*
X128579804Y-44026227D01*
X128585765Y-44002429D01*
X128594030Y-43979329D01*
X128604520Y-43957151D01*
X128617133Y-43936107D01*
X128631747Y-43916402D01*
X128648223Y-43898223D01*
X128666402Y-43881747D01*
X128686107Y-43867133D01*
X128707151Y-43854520D01*
X128729329Y-43844030D01*
X128752429Y-43835765D01*
X128776227Y-43829804D01*
X128800496Y-43826204D01*
X128825000Y-43825000D01*
X129575000Y-43825000D01*
X129599504Y-43826204D01*
G37*
G36*
X147599504Y-30726204D02*
G01*
X147623773Y-30729804D01*
X147647571Y-30735765D01*
X147670671Y-30744030D01*
X147692849Y-30754520D01*
X147713893Y-30767133D01*
X147733598Y-30781747D01*
X147751777Y-30798223D01*
X147768253Y-30816402D01*
X147782867Y-30836107D01*
X147795480Y-30857151D01*
X147805970Y-30879329D01*
X147814235Y-30902429D01*
X147820196Y-30926227D01*
X147823796Y-30950496D01*
X147825000Y-30975000D01*
X147825000Y-32225000D01*
X147823796Y-32249504D01*
X147820196Y-32273773D01*
X147814235Y-32297571D01*
X147805970Y-32320671D01*
X147795480Y-32342849D01*
X147782867Y-32363893D01*
X147768253Y-32383598D01*
X147751777Y-32401777D01*
X147733598Y-32418253D01*
X147713893Y-32432867D01*
X147692849Y-32445480D01*
X147670671Y-32455970D01*
X147647571Y-32464235D01*
X147623773Y-32470196D01*
X147599504Y-32473796D01*
X147575000Y-32475000D01*
X146825000Y-32475000D01*
X146800496Y-32473796D01*
X146776227Y-32470196D01*
X146752429Y-32464235D01*
X146729329Y-32455970D01*
X146707151Y-32445480D01*
X146686107Y-32432867D01*
X146666402Y-32418253D01*
X146648223Y-32401777D01*
X146631747Y-32383598D01*
X146617133Y-32363893D01*
X146604520Y-32342849D01*
X146594030Y-32320671D01*
X146585765Y-32297571D01*
X146579804Y-32273773D01*
X146576204Y-32249504D01*
X146575000Y-32225000D01*
X146575000Y-30975000D01*
X146576204Y-30950496D01*
X146579804Y-30926227D01*
X146585765Y-30902429D01*
X146594030Y-30879329D01*
X146604520Y-30857151D01*
X146617133Y-30836107D01*
X146631747Y-30816402D01*
X146648223Y-30798223D01*
X146666402Y-30781747D01*
X146686107Y-30767133D01*
X146707151Y-30754520D01*
X146729329Y-30744030D01*
X146752429Y-30735765D01*
X146776227Y-30729804D01*
X146800496Y-30726204D01*
X146825000Y-30725000D01*
X147575000Y-30725000D01*
X147599504Y-30726204D01*
G37*
G36*
X144799504Y-30726204D02*
G01*
X144823773Y-30729804D01*
X144847571Y-30735765D01*
X144870671Y-30744030D01*
X144892849Y-30754520D01*
X144913893Y-30767133D01*
X144933598Y-30781747D01*
X144951777Y-30798223D01*
X144968253Y-30816402D01*
X144982867Y-30836107D01*
X144995480Y-30857151D01*
X145005970Y-30879329D01*
X145014235Y-30902429D01*
X145020196Y-30926227D01*
X145023796Y-30950496D01*
X145025000Y-30975000D01*
X145025000Y-32225000D01*
X145023796Y-32249504D01*
X145020196Y-32273773D01*
X145014235Y-32297571D01*
X145005970Y-32320671D01*
X144995480Y-32342849D01*
X144982867Y-32363893D01*
X144968253Y-32383598D01*
X144951777Y-32401777D01*
X144933598Y-32418253D01*
X144913893Y-32432867D01*
X144892849Y-32445480D01*
X144870671Y-32455970D01*
X144847571Y-32464235D01*
X144823773Y-32470196D01*
X144799504Y-32473796D01*
X144775000Y-32475000D01*
X144025000Y-32475000D01*
X144000496Y-32473796D01*
X143976227Y-32470196D01*
X143952429Y-32464235D01*
X143929329Y-32455970D01*
X143907151Y-32445480D01*
X143886107Y-32432867D01*
X143866402Y-32418253D01*
X143848223Y-32401777D01*
X143831747Y-32383598D01*
X143817133Y-32363893D01*
X143804520Y-32342849D01*
X143794030Y-32320671D01*
X143785765Y-32297571D01*
X143779804Y-32273773D01*
X143776204Y-32249504D01*
X143775000Y-32225000D01*
X143775000Y-30975000D01*
X143776204Y-30950496D01*
X143779804Y-30926227D01*
X143785765Y-30902429D01*
X143794030Y-30879329D01*
X143804520Y-30857151D01*
X143817133Y-30836107D01*
X143831747Y-30816402D01*
X143848223Y-30798223D01*
X143866402Y-30781747D01*
X143886107Y-30767133D01*
X143907151Y-30754520D01*
X143929329Y-30744030D01*
X143952429Y-30735765D01*
X143976227Y-30729804D01*
X144000496Y-30726204D01*
X144025000Y-30725000D01*
X144775000Y-30725000D01*
X144799504Y-30726204D01*
G37*
G36*
X146866269Y-36151168D02*
G01*
X146889809Y-36154660D01*
X146912894Y-36160442D01*
X146935301Y-36168459D01*
X146956814Y-36178634D01*
X146977226Y-36190869D01*
X146996340Y-36205045D01*
X147013973Y-36221027D01*
X147029955Y-36238660D01*
X147044131Y-36257774D01*
X147056366Y-36278186D01*
X147066541Y-36299699D01*
X147074558Y-36322106D01*
X147080340Y-36345191D01*
X147083832Y-36368731D01*
X147085000Y-36392500D01*
X147085000Y-37157500D01*
X147083832Y-37181269D01*
X147080340Y-37204809D01*
X147074558Y-37227894D01*
X147066541Y-37250301D01*
X147056366Y-37271814D01*
X147044131Y-37292226D01*
X147029955Y-37311340D01*
X147013973Y-37328973D01*
X146996340Y-37344955D01*
X146977226Y-37359131D01*
X146956814Y-37371366D01*
X146935301Y-37381541D01*
X146912894Y-37389558D01*
X146889809Y-37395340D01*
X146866269Y-37398832D01*
X146842500Y-37400000D01*
X146357500Y-37400000D01*
X146333731Y-37398832D01*
X146310191Y-37395340D01*
X146287106Y-37389558D01*
X146264699Y-37381541D01*
X146243186Y-37371366D01*
X146222774Y-37359131D01*
X146203660Y-37344955D01*
X146186027Y-37328973D01*
X146170045Y-37311340D01*
X146155869Y-37292226D01*
X146143634Y-37271814D01*
X146133459Y-37250301D01*
X146125442Y-37227894D01*
X146119660Y-37204809D01*
X146116168Y-37181269D01*
X146115000Y-37157500D01*
X146115000Y-36392500D01*
X146116168Y-36368731D01*
X146119660Y-36345191D01*
X146125442Y-36322106D01*
X146133459Y-36299699D01*
X146143634Y-36278186D01*
X146155869Y-36257774D01*
X146170045Y-36238660D01*
X146186027Y-36221027D01*
X146203660Y-36205045D01*
X146222774Y-36190869D01*
X146243186Y-36178634D01*
X146264699Y-36168459D01*
X146287106Y-36160442D01*
X146310191Y-36154660D01*
X146333731Y-36151168D01*
X146357500Y-36150000D01*
X146842500Y-36150000D01*
X146866269Y-36151168D01*
G37*
G36*
X146866269Y-34601168D02*
G01*
X146889809Y-34604660D01*
X146912894Y-34610442D01*
X146935301Y-34618459D01*
X146956814Y-34628634D01*
X146977226Y-34640869D01*
X146996340Y-34655045D01*
X147013973Y-34671027D01*
X147029955Y-34688660D01*
X147044131Y-34707774D01*
X147056366Y-34728186D01*
X147066541Y-34749699D01*
X147074558Y-34772106D01*
X147080340Y-34795191D01*
X147083832Y-34818731D01*
X147085000Y-34842500D01*
X147085000Y-35607500D01*
X147083832Y-35631269D01*
X147080340Y-35654809D01*
X147074558Y-35677894D01*
X147066541Y-35700301D01*
X147056366Y-35721814D01*
X147044131Y-35742226D01*
X147029955Y-35761340D01*
X147013973Y-35778973D01*
X146996340Y-35794955D01*
X146977226Y-35809131D01*
X146956814Y-35821366D01*
X146935301Y-35831541D01*
X146912894Y-35839558D01*
X146889809Y-35845340D01*
X146866269Y-35848832D01*
X146842500Y-35850000D01*
X146357500Y-35850000D01*
X146333731Y-35848832D01*
X146310191Y-35845340D01*
X146287106Y-35839558D01*
X146264699Y-35831541D01*
X146243186Y-35821366D01*
X146222774Y-35809131D01*
X146203660Y-35794955D01*
X146186027Y-35778973D01*
X146170045Y-35761340D01*
X146155869Y-35742226D01*
X146143634Y-35721814D01*
X146133459Y-35700301D01*
X146125442Y-35677894D01*
X146119660Y-35654809D01*
X146116168Y-35631269D01*
X146115000Y-35607500D01*
X146115000Y-34842500D01*
X146116168Y-34818731D01*
X146119660Y-34795191D01*
X146125442Y-34772106D01*
X146133459Y-34749699D01*
X146143634Y-34728186D01*
X146155869Y-34707774D01*
X146170045Y-34688660D01*
X146186027Y-34671027D01*
X146203660Y-34655045D01*
X146222774Y-34640869D01*
X146243186Y-34628634D01*
X146264699Y-34618459D01*
X146287106Y-34610442D01*
X146310191Y-34604660D01*
X146333731Y-34601168D01*
X146357500Y-34600000D01*
X146842500Y-34600000D01*
X146866269Y-34601168D01*
G37*
G36*
X145666269Y-36151168D02*
G01*
X145689809Y-36154660D01*
X145712894Y-36160442D01*
X145735301Y-36168459D01*
X145756814Y-36178634D01*
X145777226Y-36190869D01*
X145796340Y-36205045D01*
X145813973Y-36221027D01*
X145829955Y-36238660D01*
X145844131Y-36257774D01*
X145856366Y-36278186D01*
X145866541Y-36299699D01*
X145874558Y-36322106D01*
X145880340Y-36345191D01*
X145883832Y-36368731D01*
X145885000Y-36392500D01*
X145885000Y-37157500D01*
X145883832Y-37181269D01*
X145880340Y-37204809D01*
X145874558Y-37227894D01*
X145866541Y-37250301D01*
X145856366Y-37271814D01*
X145844131Y-37292226D01*
X145829955Y-37311340D01*
X145813973Y-37328973D01*
X145796340Y-37344955D01*
X145777226Y-37359131D01*
X145756814Y-37371366D01*
X145735301Y-37381541D01*
X145712894Y-37389558D01*
X145689809Y-37395340D01*
X145666269Y-37398832D01*
X145642500Y-37400000D01*
X145157500Y-37400000D01*
X145133731Y-37398832D01*
X145110191Y-37395340D01*
X145087106Y-37389558D01*
X145064699Y-37381541D01*
X145043186Y-37371366D01*
X145022774Y-37359131D01*
X145003660Y-37344955D01*
X144986027Y-37328973D01*
X144970045Y-37311340D01*
X144955869Y-37292226D01*
X144943634Y-37271814D01*
X144933459Y-37250301D01*
X144925442Y-37227894D01*
X144919660Y-37204809D01*
X144916168Y-37181269D01*
X144915000Y-37157500D01*
X144915000Y-36392500D01*
X144916168Y-36368731D01*
X144919660Y-36345191D01*
X144925442Y-36322106D01*
X144933459Y-36299699D01*
X144943634Y-36278186D01*
X144955869Y-36257774D01*
X144970045Y-36238660D01*
X144986027Y-36221027D01*
X145003660Y-36205045D01*
X145022774Y-36190869D01*
X145043186Y-36178634D01*
X145064699Y-36168459D01*
X145087106Y-36160442D01*
X145110191Y-36154660D01*
X145133731Y-36151168D01*
X145157500Y-36150000D01*
X145642500Y-36150000D01*
X145666269Y-36151168D01*
G37*
G36*
X145666269Y-34601168D02*
G01*
X145689809Y-34604660D01*
X145712894Y-34610442D01*
X145735301Y-34618459D01*
X145756814Y-34628634D01*
X145777226Y-34640869D01*
X145796340Y-34655045D01*
X145813973Y-34671027D01*
X145829955Y-34688660D01*
X145844131Y-34707774D01*
X145856366Y-34728186D01*
X145866541Y-34749699D01*
X145874558Y-34772106D01*
X145880340Y-34795191D01*
X145883832Y-34818731D01*
X145885000Y-34842500D01*
X145885000Y-35607500D01*
X145883832Y-35631269D01*
X145880340Y-35654809D01*
X145874558Y-35677894D01*
X145866541Y-35700301D01*
X145856366Y-35721814D01*
X145844131Y-35742226D01*
X145829955Y-35761340D01*
X145813973Y-35778973D01*
X145796340Y-35794955D01*
X145777226Y-35809131D01*
X145756814Y-35821366D01*
X145735301Y-35831541D01*
X145712894Y-35839558D01*
X145689809Y-35845340D01*
X145666269Y-35848832D01*
X145642500Y-35850000D01*
X145157500Y-35850000D01*
X145133731Y-35848832D01*
X145110191Y-35845340D01*
X145087106Y-35839558D01*
X145064699Y-35831541D01*
X145043186Y-35821366D01*
X145022774Y-35809131D01*
X145003660Y-35794955D01*
X144986027Y-35778973D01*
X144970045Y-35761340D01*
X144955869Y-35742226D01*
X144943634Y-35721814D01*
X144933459Y-35700301D01*
X144925442Y-35677894D01*
X144919660Y-35654809D01*
X144916168Y-35631269D01*
X144915000Y-35607500D01*
X144915000Y-34842500D01*
X144916168Y-34818731D01*
X144919660Y-34795191D01*
X144925442Y-34772106D01*
X144933459Y-34749699D01*
X144943634Y-34728186D01*
X144955869Y-34707774D01*
X144970045Y-34688660D01*
X144986027Y-34671027D01*
X145003660Y-34655045D01*
X145022774Y-34640869D01*
X145043186Y-34628634D01*
X145064699Y-34618459D01*
X145087106Y-34610442D01*
X145110191Y-34604660D01*
X145133731Y-34601168D01*
X145157500Y-34600000D01*
X145642500Y-34600000D01*
X145666269Y-34601168D01*
G37*
G36*
X149314703Y-37605722D02*
G01*
X149329264Y-37607882D01*
X149343543Y-37611459D01*
X149357403Y-37616418D01*
X149370710Y-37622712D01*
X149383336Y-37630280D01*
X149395159Y-37639048D01*
X149406066Y-37648934D01*
X149415952Y-37659841D01*
X149424720Y-37671664D01*
X149432288Y-37684290D01*
X149438582Y-37697597D01*
X149443541Y-37711457D01*
X149447118Y-37725736D01*
X149449278Y-37740297D01*
X149450000Y-37755000D01*
X149450000Y-38055000D01*
X149449278Y-38069703D01*
X149447118Y-38084264D01*
X149443541Y-38098543D01*
X149438582Y-38112403D01*
X149432288Y-38125710D01*
X149424720Y-38138336D01*
X149415952Y-38150159D01*
X149406066Y-38161066D01*
X149395159Y-38170952D01*
X149383336Y-38179720D01*
X149370710Y-38187288D01*
X149357403Y-38193582D01*
X149343543Y-38198541D01*
X149329264Y-38202118D01*
X149314703Y-38204278D01*
X149300000Y-38205000D01*
X148000000Y-38205000D01*
X147985297Y-38204278D01*
X147970736Y-38202118D01*
X147956457Y-38198541D01*
X147942597Y-38193582D01*
X147929290Y-38187288D01*
X147916664Y-38179720D01*
X147904841Y-38170952D01*
X147893934Y-38161066D01*
X147884048Y-38150159D01*
X147875280Y-38138336D01*
X147867712Y-38125710D01*
X147861418Y-38112403D01*
X147856459Y-38098543D01*
X147852882Y-38084264D01*
X147850722Y-38069703D01*
X147850000Y-38055000D01*
X147850000Y-37755000D01*
X147850722Y-37740297D01*
X147852882Y-37725736D01*
X147856459Y-37711457D01*
X147861418Y-37697597D01*
X147867712Y-37684290D01*
X147875280Y-37671664D01*
X147884048Y-37659841D01*
X147893934Y-37648934D01*
X147904841Y-37639048D01*
X147916664Y-37630280D01*
X147929290Y-37622712D01*
X147942597Y-37616418D01*
X147956457Y-37611459D01*
X147970736Y-37607882D01*
X147985297Y-37605722D01*
X148000000Y-37605000D01*
X149300000Y-37605000D01*
X149314703Y-37605722D01*
G37*
G36*
X149314703Y-36335722D02*
G01*
X149329264Y-36337882D01*
X149343543Y-36341459D01*
X149357403Y-36346418D01*
X149370710Y-36352712D01*
X149383336Y-36360280D01*
X149395159Y-36369048D01*
X149406066Y-36378934D01*
X149415952Y-36389841D01*
X149424720Y-36401664D01*
X149432288Y-36414290D01*
X149438582Y-36427597D01*
X149443541Y-36441457D01*
X149447118Y-36455736D01*
X149449278Y-36470297D01*
X149450000Y-36485000D01*
X149450000Y-36785000D01*
X149449278Y-36799703D01*
X149447118Y-36814264D01*
X149443541Y-36828543D01*
X149438582Y-36842403D01*
X149432288Y-36855710D01*
X149424720Y-36868336D01*
X149415952Y-36880159D01*
X149406066Y-36891066D01*
X149395159Y-36900952D01*
X149383336Y-36909720D01*
X149370710Y-36917288D01*
X149357403Y-36923582D01*
X149343543Y-36928541D01*
X149329264Y-36932118D01*
X149314703Y-36934278D01*
X149300000Y-36935000D01*
X148000000Y-36935000D01*
X147985297Y-36934278D01*
X147970736Y-36932118D01*
X147956457Y-36928541D01*
X147942597Y-36923582D01*
X147929290Y-36917288D01*
X147916664Y-36909720D01*
X147904841Y-36900952D01*
X147893934Y-36891066D01*
X147884048Y-36880159D01*
X147875280Y-36868336D01*
X147867712Y-36855710D01*
X147861418Y-36842403D01*
X147856459Y-36828543D01*
X147852882Y-36814264D01*
X147850722Y-36799703D01*
X147850000Y-36785000D01*
X147850000Y-36485000D01*
X147850722Y-36470297D01*
X147852882Y-36455736D01*
X147856459Y-36441457D01*
X147861418Y-36427597D01*
X147867712Y-36414290D01*
X147875280Y-36401664D01*
X147884048Y-36389841D01*
X147893934Y-36378934D01*
X147904841Y-36369048D01*
X147916664Y-36360280D01*
X147929290Y-36352712D01*
X147942597Y-36346418D01*
X147956457Y-36341459D01*
X147970736Y-36337882D01*
X147985297Y-36335722D01*
X148000000Y-36335000D01*
X149300000Y-36335000D01*
X149314703Y-36335722D01*
G37*
G36*
X149314703Y-35065722D02*
G01*
X149329264Y-35067882D01*
X149343543Y-35071459D01*
X149357403Y-35076418D01*
X149370710Y-35082712D01*
X149383336Y-35090280D01*
X149395159Y-35099048D01*
X149406066Y-35108934D01*
X149415952Y-35119841D01*
X149424720Y-35131664D01*
X149432288Y-35144290D01*
X149438582Y-35157597D01*
X149443541Y-35171457D01*
X149447118Y-35185736D01*
X149449278Y-35200297D01*
X149450000Y-35215000D01*
X149450000Y-35515000D01*
X149449278Y-35529703D01*
X149447118Y-35544264D01*
X149443541Y-35558543D01*
X149438582Y-35572403D01*
X149432288Y-35585710D01*
X149424720Y-35598336D01*
X149415952Y-35610159D01*
X149406066Y-35621066D01*
X149395159Y-35630952D01*
X149383336Y-35639720D01*
X149370710Y-35647288D01*
X149357403Y-35653582D01*
X149343543Y-35658541D01*
X149329264Y-35662118D01*
X149314703Y-35664278D01*
X149300000Y-35665000D01*
X148000000Y-35665000D01*
X147985297Y-35664278D01*
X147970736Y-35662118D01*
X147956457Y-35658541D01*
X147942597Y-35653582D01*
X147929290Y-35647288D01*
X147916664Y-35639720D01*
X147904841Y-35630952D01*
X147893934Y-35621066D01*
X147884048Y-35610159D01*
X147875280Y-35598336D01*
X147867712Y-35585710D01*
X147861418Y-35572403D01*
X147856459Y-35558543D01*
X147852882Y-35544264D01*
X147850722Y-35529703D01*
X147850000Y-35515000D01*
X147850000Y-35215000D01*
X147850722Y-35200297D01*
X147852882Y-35185736D01*
X147856459Y-35171457D01*
X147861418Y-35157597D01*
X147867712Y-35144290D01*
X147875280Y-35131664D01*
X147884048Y-35119841D01*
X147893934Y-35108934D01*
X147904841Y-35099048D01*
X147916664Y-35090280D01*
X147929290Y-35082712D01*
X147942597Y-35076418D01*
X147956457Y-35071459D01*
X147970736Y-35067882D01*
X147985297Y-35065722D01*
X148000000Y-35065000D01*
X149300000Y-35065000D01*
X149314703Y-35065722D01*
G37*
G36*
X149314703Y-33795722D02*
G01*
X149329264Y-33797882D01*
X149343543Y-33801459D01*
X149357403Y-33806418D01*
X149370710Y-33812712D01*
X149383336Y-33820280D01*
X149395159Y-33829048D01*
X149406066Y-33838934D01*
X149415952Y-33849841D01*
X149424720Y-33861664D01*
X149432288Y-33874290D01*
X149438582Y-33887597D01*
X149443541Y-33901457D01*
X149447118Y-33915736D01*
X149449278Y-33930297D01*
X149450000Y-33945000D01*
X149450000Y-34245000D01*
X149449278Y-34259703D01*
X149447118Y-34274264D01*
X149443541Y-34288543D01*
X149438582Y-34302403D01*
X149432288Y-34315710D01*
X149424720Y-34328336D01*
X149415952Y-34340159D01*
X149406066Y-34351066D01*
X149395159Y-34360952D01*
X149383336Y-34369720D01*
X149370710Y-34377288D01*
X149357403Y-34383582D01*
X149343543Y-34388541D01*
X149329264Y-34392118D01*
X149314703Y-34394278D01*
X149300000Y-34395000D01*
X148000000Y-34395000D01*
X147985297Y-34394278D01*
X147970736Y-34392118D01*
X147956457Y-34388541D01*
X147942597Y-34383582D01*
X147929290Y-34377288D01*
X147916664Y-34369720D01*
X147904841Y-34360952D01*
X147893934Y-34351066D01*
X147884048Y-34340159D01*
X147875280Y-34328336D01*
X147867712Y-34315710D01*
X147861418Y-34302403D01*
X147856459Y-34288543D01*
X147852882Y-34274264D01*
X147850722Y-34259703D01*
X147850000Y-34245000D01*
X147850000Y-33945000D01*
X147850722Y-33930297D01*
X147852882Y-33915736D01*
X147856459Y-33901457D01*
X147861418Y-33887597D01*
X147867712Y-33874290D01*
X147875280Y-33861664D01*
X147884048Y-33849841D01*
X147893934Y-33838934D01*
X147904841Y-33829048D01*
X147916664Y-33820280D01*
X147929290Y-33812712D01*
X147942597Y-33806418D01*
X147956457Y-33801459D01*
X147970736Y-33797882D01*
X147985297Y-33795722D01*
X148000000Y-33795000D01*
X149300000Y-33795000D01*
X149314703Y-33795722D01*
G37*
G36*
X144014703Y-33795722D02*
G01*
X144029264Y-33797882D01*
X144043543Y-33801459D01*
X144057403Y-33806418D01*
X144070710Y-33812712D01*
X144083336Y-33820280D01*
X144095159Y-33829048D01*
X144106066Y-33838934D01*
X144115952Y-33849841D01*
X144124720Y-33861664D01*
X144132288Y-33874290D01*
X144138582Y-33887597D01*
X144143541Y-33901457D01*
X144147118Y-33915736D01*
X144149278Y-33930297D01*
X144150000Y-33945000D01*
X144150000Y-34245000D01*
X144149278Y-34259703D01*
X144147118Y-34274264D01*
X144143541Y-34288543D01*
X144138582Y-34302403D01*
X144132288Y-34315710D01*
X144124720Y-34328336D01*
X144115952Y-34340159D01*
X144106066Y-34351066D01*
X144095159Y-34360952D01*
X144083336Y-34369720D01*
X144070710Y-34377288D01*
X144057403Y-34383582D01*
X144043543Y-34388541D01*
X144029264Y-34392118D01*
X144014703Y-34394278D01*
X144000000Y-34395000D01*
X142700000Y-34395000D01*
X142685297Y-34394278D01*
X142670736Y-34392118D01*
X142656457Y-34388541D01*
X142642597Y-34383582D01*
X142629290Y-34377288D01*
X142616664Y-34369720D01*
X142604841Y-34360952D01*
X142593934Y-34351066D01*
X142584048Y-34340159D01*
X142575280Y-34328336D01*
X142567712Y-34315710D01*
X142561418Y-34302403D01*
X142556459Y-34288543D01*
X142552882Y-34274264D01*
X142550722Y-34259703D01*
X142550000Y-34245000D01*
X142550000Y-33945000D01*
X142550722Y-33930297D01*
X142552882Y-33915736D01*
X142556459Y-33901457D01*
X142561418Y-33887597D01*
X142567712Y-33874290D01*
X142575280Y-33861664D01*
X142584048Y-33849841D01*
X142593934Y-33838934D01*
X142604841Y-33829048D01*
X142616664Y-33820280D01*
X142629290Y-33812712D01*
X142642597Y-33806418D01*
X142656457Y-33801459D01*
X142670736Y-33797882D01*
X142685297Y-33795722D01*
X142700000Y-33795000D01*
X144000000Y-33795000D01*
X144014703Y-33795722D01*
G37*
G36*
X144014703Y-35065722D02*
G01*
X144029264Y-35067882D01*
X144043543Y-35071459D01*
X144057403Y-35076418D01*
X144070710Y-35082712D01*
X144083336Y-35090280D01*
X144095159Y-35099048D01*
X144106066Y-35108934D01*
X144115952Y-35119841D01*
X144124720Y-35131664D01*
X144132288Y-35144290D01*
X144138582Y-35157597D01*
X144143541Y-35171457D01*
X144147118Y-35185736D01*
X144149278Y-35200297D01*
X144150000Y-35215000D01*
X144150000Y-35515000D01*
X144149278Y-35529703D01*
X144147118Y-35544264D01*
X144143541Y-35558543D01*
X144138582Y-35572403D01*
X144132288Y-35585710D01*
X144124720Y-35598336D01*
X144115952Y-35610159D01*
X144106066Y-35621066D01*
X144095159Y-35630952D01*
X144083336Y-35639720D01*
X144070710Y-35647288D01*
X144057403Y-35653582D01*
X144043543Y-35658541D01*
X144029264Y-35662118D01*
X144014703Y-35664278D01*
X144000000Y-35665000D01*
X142700000Y-35665000D01*
X142685297Y-35664278D01*
X142670736Y-35662118D01*
X142656457Y-35658541D01*
X142642597Y-35653582D01*
X142629290Y-35647288D01*
X142616664Y-35639720D01*
X142604841Y-35630952D01*
X142593934Y-35621066D01*
X142584048Y-35610159D01*
X142575280Y-35598336D01*
X142567712Y-35585710D01*
X142561418Y-35572403D01*
X142556459Y-35558543D01*
X142552882Y-35544264D01*
X142550722Y-35529703D01*
X142550000Y-35515000D01*
X142550000Y-35215000D01*
X142550722Y-35200297D01*
X142552882Y-35185736D01*
X142556459Y-35171457D01*
X142561418Y-35157597D01*
X142567712Y-35144290D01*
X142575280Y-35131664D01*
X142584048Y-35119841D01*
X142593934Y-35108934D01*
X142604841Y-35099048D01*
X142616664Y-35090280D01*
X142629290Y-35082712D01*
X142642597Y-35076418D01*
X142656457Y-35071459D01*
X142670736Y-35067882D01*
X142685297Y-35065722D01*
X142700000Y-35065000D01*
X144000000Y-35065000D01*
X144014703Y-35065722D01*
G37*
G36*
X144014703Y-36335722D02*
G01*
X144029264Y-36337882D01*
X144043543Y-36341459D01*
X144057403Y-36346418D01*
X144070710Y-36352712D01*
X144083336Y-36360280D01*
X144095159Y-36369048D01*
X144106066Y-36378934D01*
X144115952Y-36389841D01*
X144124720Y-36401664D01*
X144132288Y-36414290D01*
X144138582Y-36427597D01*
X144143541Y-36441457D01*
X144147118Y-36455736D01*
X144149278Y-36470297D01*
X144150000Y-36485000D01*
X144150000Y-36785000D01*
X144149278Y-36799703D01*
X144147118Y-36814264D01*
X144143541Y-36828543D01*
X144138582Y-36842403D01*
X144132288Y-36855710D01*
X144124720Y-36868336D01*
X144115952Y-36880159D01*
X144106066Y-36891066D01*
X144095159Y-36900952D01*
X144083336Y-36909720D01*
X144070710Y-36917288D01*
X144057403Y-36923582D01*
X144043543Y-36928541D01*
X144029264Y-36932118D01*
X144014703Y-36934278D01*
X144000000Y-36935000D01*
X142700000Y-36935000D01*
X142685297Y-36934278D01*
X142670736Y-36932118D01*
X142656457Y-36928541D01*
X142642597Y-36923582D01*
X142629290Y-36917288D01*
X142616664Y-36909720D01*
X142604841Y-36900952D01*
X142593934Y-36891066D01*
X142584048Y-36880159D01*
X142575280Y-36868336D01*
X142567712Y-36855710D01*
X142561418Y-36842403D01*
X142556459Y-36828543D01*
X142552882Y-36814264D01*
X142550722Y-36799703D01*
X142550000Y-36785000D01*
X142550000Y-36485000D01*
X142550722Y-36470297D01*
X142552882Y-36455736D01*
X142556459Y-36441457D01*
X142561418Y-36427597D01*
X142567712Y-36414290D01*
X142575280Y-36401664D01*
X142584048Y-36389841D01*
X142593934Y-36378934D01*
X142604841Y-36369048D01*
X142616664Y-36360280D01*
X142629290Y-36352712D01*
X142642597Y-36346418D01*
X142656457Y-36341459D01*
X142670736Y-36337882D01*
X142685297Y-36335722D01*
X142700000Y-36335000D01*
X144000000Y-36335000D01*
X144014703Y-36335722D01*
G37*
G36*
X144014703Y-37605722D02*
G01*
X144029264Y-37607882D01*
X144043543Y-37611459D01*
X144057403Y-37616418D01*
X144070710Y-37622712D01*
X144083336Y-37630280D01*
X144095159Y-37639048D01*
X144106066Y-37648934D01*
X144115952Y-37659841D01*
X144124720Y-37671664D01*
X144132288Y-37684290D01*
X144138582Y-37697597D01*
X144143541Y-37711457D01*
X144147118Y-37725736D01*
X144149278Y-37740297D01*
X144150000Y-37755000D01*
X144150000Y-38055000D01*
X144149278Y-38069703D01*
X144147118Y-38084264D01*
X144143541Y-38098543D01*
X144138582Y-38112403D01*
X144132288Y-38125710D01*
X144124720Y-38138336D01*
X144115952Y-38150159D01*
X144106066Y-38161066D01*
X144095159Y-38170952D01*
X144083336Y-38179720D01*
X144070710Y-38187288D01*
X144057403Y-38193582D01*
X144043543Y-38198541D01*
X144029264Y-38202118D01*
X144014703Y-38204278D01*
X144000000Y-38205000D01*
X142700000Y-38205000D01*
X142685297Y-38204278D01*
X142670736Y-38202118D01*
X142656457Y-38198541D01*
X142642597Y-38193582D01*
X142629290Y-38187288D01*
X142616664Y-38179720D01*
X142604841Y-38170952D01*
X142593934Y-38161066D01*
X142584048Y-38150159D01*
X142575280Y-38138336D01*
X142567712Y-38125710D01*
X142561418Y-38112403D01*
X142556459Y-38098543D01*
X142552882Y-38084264D01*
X142550722Y-38069703D01*
X142550000Y-38055000D01*
X142550000Y-37755000D01*
X142550722Y-37740297D01*
X142552882Y-37725736D01*
X142556459Y-37711457D01*
X142561418Y-37697597D01*
X142567712Y-37684290D01*
X142575280Y-37671664D01*
X142584048Y-37659841D01*
X142593934Y-37648934D01*
X142604841Y-37639048D01*
X142616664Y-37630280D01*
X142629290Y-37622712D01*
X142642597Y-37616418D01*
X142656457Y-37611459D01*
X142670736Y-37607882D01*
X142685297Y-37605722D01*
X142700000Y-37605000D01*
X144000000Y-37605000D01*
X144014703Y-37605722D01*
G37*
M02*
