M48
; DRILL file {KiCad (5.1.5)-3} date 10/29/2020 10:38:58
; FORMAT={-:-/ absolute / inch / decimal}
; #@! TF.CreationDate,2020-10-29T10:38:58+02:00
; #@! TF.GenerationSoftware,Kicad,Pcbnew,(5.1.5)-3
FMAT,2
INCH
T1C0.0079
T2C0.0157
T3C0.0295
T4C0.0591
T5C0.0787
%
G90
G05
T1
X5.7104Y-1.3661
X5.7104Y-1.4173
X5.7104Y-1.4685
X5.7856Y-1.3661
X5.7856Y-1.4173
X5.7856Y-1.4685
T2
X5.0276Y-1.5276
X5.0748Y-1.5276
X5.122Y-1.5276
X5.2362Y-1.7598
X5.4173Y-1.5039
X5.4646Y-1.5039
X5.5157Y-1.5039
X5.5827Y-1.3425
X5.9272Y-1.4429
X5.9272Y-1.4803
X5.9272Y-1.5276
X5.9724Y-1.5276
X5.9744Y-1.4429
X5.9744Y-1.4803
X6.0256Y-1.4429
X6.0256Y-1.4803
X6.0256Y-1.5276
T3
X4.874Y-1.3661
X4.874Y-1.4449
X4.874Y-1.7598
X4.874Y-1.8386
T4
X5.1457Y-1.8976
X5.0197Y-2.0118
X5.4055Y-1.9685
T5
X6.185Y-1.811
X6.189Y-1.378
T0
M30
