G04 #@! TF.GenerationSoftware,KiCad,Pcbnew,(5.1.5)-3*
G04 #@! TF.CreationDate,2020-10-29T10:50:42+02:00*
G04 #@! TF.ProjectId,al8843,616c3838-3433-42e6-9b69-6361645f7063,rev?*
G04 #@! TF.SameCoordinates,Original*
G04 #@! TF.FileFunction,Soldermask,Bot*
G04 #@! TF.FilePolarity,Negative*
%FSLAX46Y46*%
G04 Gerber Fmt 4.6, Leading zero omitted, Abs format (unit mm)*
G04 Created by KiCad (PCBNEW (5.1.5)-3) date 2020-10-29 10:50:42*
%MOMM*%
%LPD*%
G04 APERTURE LIST*
%ADD10C,0.100000*%
G04 APERTURE END LIST*
D10*
G36*
X127780852Y-49574479D02*
G01*
X127952410Y-49608604D01*
X128234674Y-49725521D01*
X128488705Y-49895259D01*
X128704741Y-50111295D01*
X128874479Y-50365326D01*
X128991396Y-50647590D01*
X129051000Y-50947240D01*
X129051000Y-51252760D01*
X128991396Y-51552410D01*
X128874479Y-51834674D01*
X128704741Y-52088705D01*
X128488705Y-52304741D01*
X128234674Y-52474479D01*
X127952410Y-52591396D01*
X127802585Y-52621198D01*
X127652761Y-52651000D01*
X127347239Y-52651000D01*
X127197415Y-52621198D01*
X127047590Y-52591396D01*
X126765326Y-52474479D01*
X126511295Y-52304741D01*
X126295259Y-52088705D01*
X126125521Y-51834674D01*
X126008604Y-51552410D01*
X125949000Y-51252760D01*
X125949000Y-50947240D01*
X126008604Y-50647590D01*
X126125521Y-50365326D01*
X126295259Y-50111295D01*
X126511295Y-49895259D01*
X126765326Y-49725521D01*
X127047590Y-49608604D01*
X127219148Y-49574479D01*
X127347239Y-49549000D01*
X127652761Y-49549000D01*
X127780852Y-49574479D01*
G37*
G36*
X137602585Y-48478802D02*
G01*
X137752410Y-48508604D01*
X138034674Y-48625521D01*
X138288705Y-48795259D01*
X138504741Y-49011295D01*
X138674479Y-49265326D01*
X138791396Y-49547590D01*
X138851000Y-49847240D01*
X138851000Y-50152760D01*
X138791396Y-50452410D01*
X138674479Y-50734674D01*
X138504741Y-50988705D01*
X138288705Y-51204741D01*
X138034674Y-51374479D01*
X137752410Y-51491396D01*
X137602585Y-51521198D01*
X137452761Y-51551000D01*
X137147239Y-51551000D01*
X136997415Y-51521198D01*
X136847590Y-51491396D01*
X136565326Y-51374479D01*
X136311295Y-51204741D01*
X136095259Y-50988705D01*
X135925521Y-50734674D01*
X135808604Y-50452410D01*
X135749000Y-50152760D01*
X135749000Y-49847240D01*
X135808604Y-49547590D01*
X135925521Y-49265326D01*
X136095259Y-49011295D01*
X136311295Y-48795259D01*
X136565326Y-48625521D01*
X136847590Y-48508604D01*
X136997415Y-48478802D01*
X137147239Y-48449000D01*
X137452761Y-48449000D01*
X137602585Y-48478802D01*
G37*
G36*
X131002585Y-46678802D02*
G01*
X131152410Y-46708604D01*
X131434674Y-46825521D01*
X131688705Y-46995259D01*
X131904741Y-47211295D01*
X132074479Y-47465326D01*
X132191396Y-47747590D01*
X132251000Y-48047240D01*
X132251000Y-48352760D01*
X132191396Y-48652410D01*
X132074479Y-48934674D01*
X131904741Y-49188705D01*
X131688705Y-49404741D01*
X131434674Y-49574479D01*
X131152410Y-49691396D01*
X131002585Y-49721198D01*
X130852761Y-49751000D01*
X130547239Y-49751000D01*
X130397415Y-49721198D01*
X130247590Y-49691396D01*
X129965326Y-49574479D01*
X129711295Y-49404741D01*
X129495259Y-49188705D01*
X129325521Y-48934674D01*
X129208604Y-48652410D01*
X129149000Y-48352760D01*
X129149000Y-48047240D01*
X129208604Y-47747590D01*
X129325521Y-47465326D01*
X129495259Y-47211295D01*
X129711295Y-46995259D01*
X129965326Y-46825521D01*
X130247590Y-46708604D01*
X130397415Y-46678802D01*
X130547239Y-46649000D01*
X130852761Y-46649000D01*
X131002585Y-46678802D01*
G37*
G36*
X157698254Y-44027818D02*
G01*
X158071511Y-44182426D01*
X158071513Y-44182427D01*
X158277778Y-44320249D01*
X158407436Y-44406884D01*
X158693116Y-44692564D01*
X158917574Y-45028489D01*
X159072182Y-45401746D01*
X159151000Y-45797993D01*
X159151000Y-46202007D01*
X159072182Y-46598254D01*
X158926345Y-46950336D01*
X158917573Y-46971513D01*
X158693116Y-47307436D01*
X158407436Y-47593116D01*
X158071513Y-47817573D01*
X158071512Y-47817574D01*
X158071511Y-47817574D01*
X157698254Y-47972182D01*
X157302007Y-48051000D01*
X156897993Y-48051000D01*
X156501746Y-47972182D01*
X156128489Y-47817574D01*
X156128488Y-47817574D01*
X156128487Y-47817573D01*
X155792564Y-47593116D01*
X155506884Y-47307436D01*
X155282427Y-46971513D01*
X155273655Y-46950336D01*
X155127818Y-46598254D01*
X155049000Y-46202007D01*
X155049000Y-45797993D01*
X155127818Y-45401746D01*
X155282426Y-45028489D01*
X155506884Y-44692564D01*
X155792564Y-44406884D01*
X155922222Y-44320249D01*
X156128487Y-44182427D01*
X156128489Y-44182426D01*
X156501746Y-44027818D01*
X156897993Y-43949000D01*
X157302007Y-43949000D01*
X157698254Y-44027818D01*
G37*
G36*
X124138855Y-46052140D02*
G01*
X124202618Y-46058420D01*
X124293404Y-46085960D01*
X124325336Y-46095646D01*
X124438425Y-46156094D01*
X124537554Y-46237446D01*
X124618906Y-46336575D01*
X124679354Y-46449664D01*
X124679355Y-46449668D01*
X124716580Y-46572382D01*
X124729149Y-46700000D01*
X124716580Y-46827618D01*
X124689040Y-46918404D01*
X124679354Y-46950336D01*
X124618906Y-47063425D01*
X124537554Y-47162554D01*
X124438425Y-47243906D01*
X124325336Y-47304354D01*
X124293404Y-47314040D01*
X124202618Y-47341580D01*
X124138855Y-47347860D01*
X124106974Y-47351000D01*
X123493026Y-47351000D01*
X123461145Y-47347860D01*
X123397382Y-47341580D01*
X123306596Y-47314040D01*
X123274664Y-47304354D01*
X123161575Y-47243906D01*
X123062446Y-47162554D01*
X122981094Y-47063425D01*
X122920646Y-46950336D01*
X122910960Y-46918404D01*
X122883420Y-46827618D01*
X122870851Y-46700000D01*
X122883420Y-46572382D01*
X122920645Y-46449668D01*
X122920646Y-46449664D01*
X122981094Y-46336575D01*
X123062446Y-46237446D01*
X123161575Y-46156094D01*
X123274664Y-46095646D01*
X123306596Y-46085960D01*
X123397382Y-46058420D01*
X123461145Y-46052140D01*
X123493026Y-46049000D01*
X124106974Y-46049000D01*
X124138855Y-46052140D01*
G37*
G36*
X124566242Y-44053404D02*
G01*
X124603337Y-44064657D01*
X124637515Y-44082925D01*
X124667481Y-44107519D01*
X124692075Y-44137485D01*
X124710343Y-44171663D01*
X124721596Y-44208758D01*
X124726000Y-44253474D01*
X124726000Y-45146526D01*
X124721596Y-45191242D01*
X124710343Y-45228337D01*
X124692075Y-45262515D01*
X124667481Y-45292481D01*
X124637515Y-45317075D01*
X124603337Y-45335343D01*
X124566242Y-45346596D01*
X124521526Y-45351000D01*
X123078474Y-45351000D01*
X123033758Y-45346596D01*
X122996663Y-45335343D01*
X122962485Y-45317075D01*
X122932519Y-45292481D01*
X122907925Y-45262515D01*
X122889657Y-45228337D01*
X122878404Y-45191242D01*
X122874000Y-45146526D01*
X122874000Y-44253474D01*
X122878404Y-44208758D01*
X122889657Y-44171663D01*
X122907925Y-44137485D01*
X122932519Y-44107519D01*
X122962485Y-44082925D01*
X122996663Y-44064657D01*
X123033758Y-44053404D01*
X123078474Y-44049000D01*
X124521526Y-44049000D01*
X124566242Y-44053404D01*
G37*
G36*
X124138855Y-36052140D02*
G01*
X124202618Y-36058420D01*
X124293404Y-36085960D01*
X124325336Y-36095646D01*
X124438425Y-36156094D01*
X124537554Y-36237446D01*
X124618906Y-36336575D01*
X124679354Y-36449664D01*
X124679355Y-36449668D01*
X124716580Y-36572382D01*
X124729149Y-36700000D01*
X124716580Y-36827618D01*
X124689040Y-36918404D01*
X124679354Y-36950336D01*
X124618906Y-37063425D01*
X124537554Y-37162554D01*
X124438425Y-37243906D01*
X124325336Y-37304354D01*
X124293404Y-37314040D01*
X124202618Y-37341580D01*
X124138855Y-37347860D01*
X124106974Y-37351000D01*
X123493026Y-37351000D01*
X123461145Y-37347860D01*
X123397382Y-37341580D01*
X123306596Y-37314040D01*
X123274664Y-37304354D01*
X123161575Y-37243906D01*
X123062446Y-37162554D01*
X122981094Y-37063425D01*
X122920646Y-36950336D01*
X122910960Y-36918404D01*
X122883420Y-36827618D01*
X122870851Y-36700000D01*
X122883420Y-36572382D01*
X122920645Y-36449668D01*
X122920646Y-36449664D01*
X122981094Y-36336575D01*
X123062446Y-36237446D01*
X123161575Y-36156094D01*
X123274664Y-36095646D01*
X123306596Y-36085960D01*
X123397382Y-36058420D01*
X123461145Y-36052140D01*
X123493026Y-36049000D01*
X124106974Y-36049000D01*
X124138855Y-36052140D01*
G37*
G36*
X157798254Y-33027818D02*
G01*
X158171511Y-33182426D01*
X158171513Y-33182427D01*
X158507436Y-33406884D01*
X158793116Y-33692564D01*
X159017574Y-34028489D01*
X159172182Y-34401746D01*
X159251000Y-34797993D01*
X159251000Y-35202007D01*
X159172182Y-35598254D01*
X159017574Y-35971511D01*
X159017573Y-35971513D01*
X158793116Y-36307436D01*
X158507436Y-36593116D01*
X158171513Y-36817573D01*
X158171512Y-36817574D01*
X158171511Y-36817574D01*
X157798254Y-36972182D01*
X157402007Y-37051000D01*
X156997993Y-37051000D01*
X156601746Y-36972182D01*
X156228489Y-36817574D01*
X156228488Y-36817574D01*
X156228487Y-36817573D01*
X155892564Y-36593116D01*
X155606884Y-36307436D01*
X155382427Y-35971513D01*
X155382426Y-35971511D01*
X155227818Y-35598254D01*
X155149000Y-35202007D01*
X155149000Y-34797993D01*
X155227818Y-34401746D01*
X155382426Y-34028489D01*
X155606884Y-33692564D01*
X155892564Y-33406884D01*
X156228487Y-33182427D01*
X156228489Y-33182426D01*
X156601746Y-33027818D01*
X156997993Y-32949000D01*
X157402007Y-32949000D01*
X157798254Y-33027818D01*
G37*
G36*
X124566242Y-34053404D02*
G01*
X124603337Y-34064657D01*
X124637515Y-34082925D01*
X124667481Y-34107519D01*
X124692075Y-34137485D01*
X124710343Y-34171663D01*
X124721596Y-34208758D01*
X124726000Y-34253474D01*
X124726000Y-35146526D01*
X124721596Y-35191242D01*
X124710343Y-35228337D01*
X124692075Y-35262515D01*
X124667481Y-35292481D01*
X124637515Y-35317075D01*
X124603337Y-35335343D01*
X124566242Y-35346596D01*
X124521526Y-35351000D01*
X123078474Y-35351000D01*
X123033758Y-35346596D01*
X122996663Y-35335343D01*
X122962485Y-35317075D01*
X122932519Y-35292481D01*
X122907925Y-35262515D01*
X122889657Y-35228337D01*
X122878404Y-35191242D01*
X122874000Y-35146526D01*
X122874000Y-34253474D01*
X122878404Y-34208758D01*
X122889657Y-34171663D01*
X122907925Y-34137485D01*
X122932519Y-34107519D01*
X122962485Y-34082925D01*
X122996663Y-34064657D01*
X123033758Y-34053404D01*
X123078474Y-34049000D01*
X124521526Y-34049000D01*
X124566242Y-34053404D01*
G37*
M02*
