G04 #@! TF.GenerationSoftware,KiCad,Pcbnew,(5.1.5)-3*
G04 #@! TF.CreationDate,2020-10-29T10:50:42+02:00*
G04 #@! TF.ProjectId,al8843,616c3838-3433-42e6-9b69-6361645f7063,rev?*
G04 #@! TF.SameCoordinates,Original*
G04 #@! TF.FileFunction,Copper,L2,Bot*
G04 #@! TF.FilePolarity,Positive*
%FSLAX46Y46*%
G04 Gerber Fmt 4.6, Leading zero omitted, Abs format (unit mm)*
G04 Created by KiCad (PCBNEW (5.1.5)-3) date 2020-10-29 10:50:42*
%MOMM*%
%LPD*%
G04 APERTURE LIST*
%ADD10C,0.100000*%
%ADD11O,1.750000X1.200000*%
%ADD12C,4.000000*%
%ADD13C,3.000000*%
%ADD14C,0.500000*%
%ADD15C,0.800000*%
%ADD16C,0.500000*%
%ADD17C,0.300000*%
%ADD18C,0.250000*%
%ADD19C,0.254000*%
G04 APERTURE END LIST*
G04 #@! TA.AperFunction,ComponentPad*
D10*
G36*
X124449505Y-34101204D02*
G01*
X124473773Y-34104804D01*
X124497572Y-34110765D01*
X124520671Y-34119030D01*
X124542850Y-34129520D01*
X124563893Y-34142132D01*
X124583599Y-34156747D01*
X124601777Y-34173223D01*
X124618253Y-34191401D01*
X124632868Y-34211107D01*
X124645480Y-34232150D01*
X124655970Y-34254329D01*
X124664235Y-34277428D01*
X124670196Y-34301227D01*
X124673796Y-34325495D01*
X124675000Y-34349999D01*
X124675000Y-35050001D01*
X124673796Y-35074505D01*
X124670196Y-35098773D01*
X124664235Y-35122572D01*
X124655970Y-35145671D01*
X124645480Y-35167850D01*
X124632868Y-35188893D01*
X124618253Y-35208599D01*
X124601777Y-35226777D01*
X124583599Y-35243253D01*
X124563893Y-35257868D01*
X124542850Y-35270480D01*
X124520671Y-35280970D01*
X124497572Y-35289235D01*
X124473773Y-35295196D01*
X124449505Y-35298796D01*
X124425001Y-35300000D01*
X123174999Y-35300000D01*
X123150495Y-35298796D01*
X123126227Y-35295196D01*
X123102428Y-35289235D01*
X123079329Y-35280970D01*
X123057150Y-35270480D01*
X123036107Y-35257868D01*
X123016401Y-35243253D01*
X122998223Y-35226777D01*
X122981747Y-35208599D01*
X122967132Y-35188893D01*
X122954520Y-35167850D01*
X122944030Y-35145671D01*
X122935765Y-35122572D01*
X122929804Y-35098773D01*
X122926204Y-35074505D01*
X122925000Y-35050001D01*
X122925000Y-34349999D01*
X122926204Y-34325495D01*
X122929804Y-34301227D01*
X122935765Y-34277428D01*
X122944030Y-34254329D01*
X122954520Y-34232150D01*
X122967132Y-34211107D01*
X122981747Y-34191401D01*
X122998223Y-34173223D01*
X123016401Y-34156747D01*
X123036107Y-34142132D01*
X123057150Y-34129520D01*
X123079329Y-34119030D01*
X123102428Y-34110765D01*
X123126227Y-34104804D01*
X123150495Y-34101204D01*
X123174999Y-34100000D01*
X124425001Y-34100000D01*
X124449505Y-34101204D01*
G37*
G04 #@! TD.AperFunction*
D11*
X123800000Y-36700000D03*
X123800000Y-46700000D03*
G04 #@! TA.AperFunction,ComponentPad*
D10*
G36*
X124449505Y-44101204D02*
G01*
X124473773Y-44104804D01*
X124497572Y-44110765D01*
X124520671Y-44119030D01*
X124542850Y-44129520D01*
X124563893Y-44142132D01*
X124583599Y-44156747D01*
X124601777Y-44173223D01*
X124618253Y-44191401D01*
X124632868Y-44211107D01*
X124645480Y-44232150D01*
X124655970Y-44254329D01*
X124664235Y-44277428D01*
X124670196Y-44301227D01*
X124673796Y-44325495D01*
X124675000Y-44349999D01*
X124675000Y-45050001D01*
X124673796Y-45074505D01*
X124670196Y-45098773D01*
X124664235Y-45122572D01*
X124655970Y-45145671D01*
X124645480Y-45167850D01*
X124632868Y-45188893D01*
X124618253Y-45208599D01*
X124601777Y-45226777D01*
X124583599Y-45243253D01*
X124563893Y-45257868D01*
X124542850Y-45270480D01*
X124520671Y-45280970D01*
X124497572Y-45289235D01*
X124473773Y-45295196D01*
X124449505Y-45298796D01*
X124425001Y-45300000D01*
X123174999Y-45300000D01*
X123150495Y-45298796D01*
X123126227Y-45295196D01*
X123102428Y-45289235D01*
X123079329Y-45280970D01*
X123057150Y-45270480D01*
X123036107Y-45257868D01*
X123016401Y-45243253D01*
X122998223Y-45226777D01*
X122981747Y-45208599D01*
X122967132Y-45188893D01*
X122954520Y-45167850D01*
X122944030Y-45145671D01*
X122935765Y-45122572D01*
X122929804Y-45098773D01*
X122926204Y-45074505D01*
X122925000Y-45050001D01*
X122925000Y-44349999D01*
X122926204Y-44325495D01*
X122929804Y-44301227D01*
X122935765Y-44277428D01*
X122944030Y-44254329D01*
X122954520Y-44232150D01*
X122967132Y-44211107D01*
X122981747Y-44191401D01*
X122998223Y-44173223D01*
X123016401Y-44156747D01*
X123036107Y-44142132D01*
X123057150Y-44129520D01*
X123079329Y-44119030D01*
X123102428Y-44110765D01*
X123126227Y-44104804D01*
X123150495Y-44101204D01*
X123174999Y-44100000D01*
X124425001Y-44100000D01*
X124449505Y-44101204D01*
G37*
G04 #@! TD.AperFunction*
D12*
X157200000Y-35000000D03*
X157100000Y-46000000D03*
D13*
X130700000Y-48200000D03*
X127500000Y-51100000D03*
X137300000Y-50000000D03*
D14*
X146955000Y-37300000D03*
X145045000Y-37300000D03*
X146955000Y-36000000D03*
X145045000Y-36000000D03*
X146955000Y-34700000D03*
X145045000Y-34700000D03*
G04 #@! TA.AperFunction,Conductor*
D10*
G36*
X146979506Y-34451204D02*
G01*
X147003774Y-34454804D01*
X147027573Y-34460765D01*
X147050672Y-34469030D01*
X147072850Y-34479519D01*
X147093893Y-34492132D01*
X147113599Y-34506747D01*
X147131777Y-34523223D01*
X147148253Y-34541401D01*
X147162868Y-34561107D01*
X147175481Y-34582150D01*
X147185970Y-34604328D01*
X147194235Y-34627427D01*
X147200196Y-34651226D01*
X147203796Y-34675494D01*
X147205000Y-34699998D01*
X147205000Y-37300002D01*
X147203796Y-37324506D01*
X147200196Y-37348774D01*
X147194235Y-37372573D01*
X147185970Y-37395672D01*
X147175481Y-37417850D01*
X147162868Y-37438893D01*
X147148253Y-37458599D01*
X147131777Y-37476777D01*
X147113599Y-37493253D01*
X147093893Y-37507868D01*
X147072850Y-37520481D01*
X147050672Y-37530970D01*
X147027573Y-37539235D01*
X147003774Y-37545196D01*
X146979506Y-37548796D01*
X146955002Y-37550000D01*
X145044998Y-37550000D01*
X145020494Y-37548796D01*
X144996226Y-37545196D01*
X144972427Y-37539235D01*
X144949328Y-37530970D01*
X144927150Y-37520481D01*
X144906107Y-37507868D01*
X144886401Y-37493253D01*
X144868223Y-37476777D01*
X144851747Y-37458599D01*
X144837132Y-37438893D01*
X144824519Y-37417850D01*
X144814030Y-37395672D01*
X144805765Y-37372573D01*
X144799804Y-37348774D01*
X144796204Y-37324506D01*
X144795000Y-37300002D01*
X144795000Y-34699998D01*
X144796204Y-34675494D01*
X144799804Y-34651226D01*
X144805765Y-34627427D01*
X144814030Y-34604328D01*
X144824519Y-34582150D01*
X144837132Y-34561107D01*
X144851747Y-34541401D01*
X144868223Y-34523223D01*
X144886401Y-34506747D01*
X144906107Y-34492132D01*
X144927150Y-34479519D01*
X144949328Y-34469030D01*
X144972427Y-34460765D01*
X144996226Y-34454804D01*
X145020494Y-34451204D01*
X145044998Y-34450000D01*
X146955002Y-34450000D01*
X146979506Y-34451204D01*
G37*
G04 #@! TD.AperFunction*
D15*
X137600000Y-38200000D03*
X140100000Y-38200000D03*
X138800000Y-38200000D03*
X127700000Y-38800000D03*
X130100000Y-38800000D03*
X128900000Y-38800000D03*
X150550000Y-38800000D03*
X151700000Y-38800000D03*
X153050000Y-38800000D03*
X153050000Y-37600000D03*
X151750000Y-37600000D03*
X150550000Y-37600000D03*
X150550000Y-36650000D03*
X151750000Y-36650000D03*
X153050000Y-36650000D03*
X141800000Y-34100000D03*
X133000000Y-44700000D03*
D16*
X146000000Y-36345000D02*
X145045000Y-37300000D01*
X146000000Y-36000000D02*
X146000000Y-36345000D01*
D17*
X150550000Y-38800000D02*
X151700000Y-38800000D01*
X153050000Y-38800000D02*
X153050000Y-37600000D01*
X151750000Y-37600000D02*
X150550000Y-37600000D01*
X150550000Y-36650000D02*
X151750000Y-36650000D01*
D18*
X133000000Y-44700000D02*
X136700000Y-44700000D01*
X141800000Y-39600000D02*
X141800000Y-34100000D01*
X136700000Y-44700000D02*
X141800000Y-39600000D01*
D19*
G36*
X161473000Y-53573000D02*
G01*
X119627000Y-53573000D01*
X119627000Y-50914738D01*
X125619000Y-50914738D01*
X125619000Y-51285262D01*
X125691286Y-51648667D01*
X125833080Y-51990987D01*
X126038932Y-52299067D01*
X126300933Y-52561068D01*
X126609013Y-52766920D01*
X126951333Y-52908714D01*
X127314738Y-52981000D01*
X127685262Y-52981000D01*
X128048667Y-52908714D01*
X128390987Y-52766920D01*
X128699067Y-52561068D01*
X128961068Y-52299067D01*
X129166920Y-51990987D01*
X129308714Y-51648667D01*
X129362602Y-51377752D01*
X136096197Y-51377752D01*
X136263666Y-51635653D01*
X136602679Y-51806403D01*
X136968489Y-51907734D01*
X137347040Y-51935751D01*
X137723782Y-51889379D01*
X138084239Y-51770400D01*
X138336334Y-51635653D01*
X138503803Y-51377752D01*
X137300000Y-50173948D01*
X136096197Y-51377752D01*
X129362602Y-51377752D01*
X129381000Y-51285262D01*
X129381000Y-50914738D01*
X129308714Y-50551333D01*
X129166920Y-50209013D01*
X128961068Y-49900933D01*
X128699067Y-49638932D01*
X128390987Y-49433080D01*
X128048667Y-49291286D01*
X127685262Y-49219000D01*
X127314738Y-49219000D01*
X126951333Y-49291286D01*
X126609013Y-49433080D01*
X126300933Y-49638932D01*
X126038932Y-49900933D01*
X125833080Y-50209013D01*
X125691286Y-50551333D01*
X125619000Y-50914738D01*
X119627000Y-50914738D01*
X119627000Y-48014738D01*
X128819000Y-48014738D01*
X128819000Y-48385262D01*
X128891286Y-48748667D01*
X129033080Y-49090987D01*
X129238932Y-49399067D01*
X129500933Y-49661068D01*
X129809013Y-49866920D01*
X130151333Y-50008714D01*
X130514738Y-50081000D01*
X130885262Y-50081000D01*
X131055989Y-50047040D01*
X135364249Y-50047040D01*
X135410621Y-50423782D01*
X135529600Y-50784239D01*
X135664347Y-51036334D01*
X135922248Y-51203803D01*
X137126052Y-50000000D01*
X137473948Y-50000000D01*
X138677752Y-51203803D01*
X138935653Y-51036334D01*
X139106403Y-50697321D01*
X139207734Y-50331511D01*
X139235751Y-49952960D01*
X139189379Y-49576218D01*
X139070400Y-49215761D01*
X138935653Y-48963666D01*
X138677752Y-48796197D01*
X137473948Y-50000000D01*
X137126052Y-50000000D01*
X135922248Y-48796197D01*
X135664347Y-48963666D01*
X135493597Y-49302679D01*
X135392266Y-49668489D01*
X135364249Y-50047040D01*
X131055989Y-50047040D01*
X131248667Y-50008714D01*
X131590987Y-49866920D01*
X131899067Y-49661068D01*
X132161068Y-49399067D01*
X132366920Y-49090987D01*
X132508714Y-48748667D01*
X132533860Y-48622248D01*
X136096197Y-48622248D01*
X137300000Y-49826052D01*
X138503803Y-48622248D01*
X138336334Y-48364347D01*
X137997321Y-48193597D01*
X137631511Y-48092266D01*
X137252960Y-48064249D01*
X136876218Y-48110621D01*
X136515761Y-48229600D01*
X136263666Y-48364347D01*
X136096197Y-48622248D01*
X132533860Y-48622248D01*
X132581000Y-48385262D01*
X132581000Y-48014738D01*
X132508714Y-47651333D01*
X132366920Y-47309013D01*
X132161068Y-47000933D01*
X131899067Y-46738932D01*
X131590987Y-46533080D01*
X131248667Y-46391286D01*
X130885262Y-46319000D01*
X130514738Y-46319000D01*
X130151333Y-46391286D01*
X129809013Y-46533080D01*
X129500933Y-46738932D01*
X129238932Y-47000933D01*
X129033080Y-47309013D01*
X128891286Y-47651333D01*
X128819000Y-48014738D01*
X119627000Y-48014738D01*
X119627000Y-46980987D01*
X122537187Y-46980987D01*
X122602746Y-47168300D01*
X122711828Y-47339224D01*
X122852159Y-47485584D01*
X123018347Y-47601754D01*
X123204006Y-47683270D01*
X123402000Y-47727000D01*
X123677000Y-47727000D01*
X123677000Y-46823000D01*
X123923000Y-46823000D01*
X123923000Y-47727000D01*
X124198000Y-47727000D01*
X124395994Y-47683270D01*
X124581653Y-47601754D01*
X124747841Y-47485584D01*
X124888172Y-47339224D01*
X124997254Y-47168300D01*
X125062813Y-46980987D01*
X124986993Y-46823000D01*
X123923000Y-46823000D01*
X123677000Y-46823000D01*
X122613007Y-46823000D01*
X122537187Y-46980987D01*
X119627000Y-46980987D01*
X119627000Y-46419013D01*
X122537187Y-46419013D01*
X122613007Y-46577000D01*
X123677000Y-46577000D01*
X123677000Y-46557000D01*
X123923000Y-46557000D01*
X123923000Y-46577000D01*
X124986993Y-46577000D01*
X125062813Y-46419013D01*
X124997254Y-46231700D01*
X124888172Y-46060776D01*
X124747841Y-45914416D01*
X124581653Y-45798246D01*
X124507054Y-45765492D01*
X154719000Y-45765492D01*
X154719000Y-46234508D01*
X154810500Y-46694512D01*
X154989985Y-47127827D01*
X155250556Y-47517799D01*
X155582201Y-47849444D01*
X155972173Y-48110015D01*
X156405488Y-48289500D01*
X156865492Y-48381000D01*
X157334508Y-48381000D01*
X157794512Y-48289500D01*
X158227827Y-48110015D01*
X158617799Y-47849444D01*
X158949444Y-47517799D01*
X159210015Y-47127827D01*
X159389500Y-46694512D01*
X159481000Y-46234508D01*
X159481000Y-45765492D01*
X159389500Y-45305488D01*
X159210015Y-44872173D01*
X158949444Y-44482201D01*
X158617799Y-44150556D01*
X158227827Y-43889985D01*
X157794512Y-43710500D01*
X157334508Y-43619000D01*
X156865492Y-43619000D01*
X156405488Y-43710500D01*
X155972173Y-43889985D01*
X155582201Y-44150556D01*
X155250556Y-44482201D01*
X154989985Y-44872173D01*
X154810500Y-45305488D01*
X154719000Y-45765492D01*
X124507054Y-45765492D01*
X124395994Y-45716730D01*
X124242566Y-45682843D01*
X124425001Y-45682843D01*
X124548462Y-45670683D01*
X124667179Y-45634671D01*
X124776589Y-45576190D01*
X124872488Y-45497488D01*
X124951190Y-45401589D01*
X125009671Y-45292179D01*
X125045683Y-45173462D01*
X125057843Y-45050001D01*
X125057843Y-44623078D01*
X132219000Y-44623078D01*
X132219000Y-44776922D01*
X132249013Y-44927809D01*
X132307887Y-45069942D01*
X132393358Y-45197859D01*
X132502141Y-45306642D01*
X132630058Y-45392113D01*
X132772191Y-45450987D01*
X132923078Y-45481000D01*
X133076922Y-45481000D01*
X133227809Y-45450987D01*
X133369942Y-45392113D01*
X133497859Y-45306642D01*
X133598501Y-45206000D01*
X136675154Y-45206000D01*
X136700000Y-45208447D01*
X136724846Y-45206000D01*
X136724854Y-45206000D01*
X136799193Y-45198678D01*
X136894575Y-45169745D01*
X136982479Y-45122759D01*
X137059527Y-45059527D01*
X137075376Y-45040215D01*
X142140220Y-39975372D01*
X142159527Y-39959527D01*
X142222759Y-39882479D01*
X142269745Y-39794575D01*
X142298678Y-39699193D01*
X142306000Y-39624854D01*
X142306000Y-39624847D01*
X142308447Y-39600001D01*
X142306000Y-39575155D01*
X142306000Y-37783082D01*
X144735866Y-37783082D01*
X144751243Y-37913581D01*
X144876592Y-37959101D01*
X145008412Y-37979291D01*
X145141638Y-37973377D01*
X145271150Y-37941586D01*
X145338757Y-37913581D01*
X145354134Y-37783082D01*
X146645866Y-37783082D01*
X146661243Y-37913581D01*
X146786592Y-37959101D01*
X146918412Y-37979291D01*
X147051638Y-37973377D01*
X147181150Y-37941586D01*
X147248757Y-37913581D01*
X147264134Y-37783082D01*
X146955000Y-37473948D01*
X146645866Y-37783082D01*
X145354134Y-37783082D01*
X145045000Y-37473948D01*
X144735866Y-37783082D01*
X142306000Y-37783082D01*
X142306000Y-37263412D01*
X144365709Y-37263412D01*
X144371623Y-37396638D01*
X144403414Y-37526150D01*
X144431419Y-37593757D01*
X144561918Y-37609134D01*
X144871052Y-37300000D01*
X145218948Y-37300000D01*
X145528082Y-37609134D01*
X145658581Y-37593757D01*
X145704101Y-37468408D01*
X145724291Y-37336588D01*
X145721043Y-37263412D01*
X146275709Y-37263412D01*
X146281623Y-37396638D01*
X146313414Y-37526150D01*
X146341419Y-37593757D01*
X146471918Y-37609134D01*
X146781052Y-37300000D01*
X147128948Y-37300000D01*
X147438082Y-37609134D01*
X147568581Y-37593757D01*
X147614101Y-37468408D01*
X147634291Y-37336588D01*
X147628377Y-37203362D01*
X147596586Y-37073850D01*
X147568581Y-37006243D01*
X147438082Y-36990866D01*
X147128948Y-37300000D01*
X146781052Y-37300000D01*
X146471918Y-36990866D01*
X146341419Y-37006243D01*
X146295899Y-37131592D01*
X146275709Y-37263412D01*
X145721043Y-37263412D01*
X145718377Y-37203362D01*
X145686586Y-37073850D01*
X145658581Y-37006243D01*
X145528082Y-36990866D01*
X145218948Y-37300000D01*
X144871052Y-37300000D01*
X144561918Y-36990866D01*
X144431419Y-37006243D01*
X144385899Y-37131592D01*
X144365709Y-37263412D01*
X142306000Y-37263412D01*
X142306000Y-36483082D01*
X144735866Y-36483082D01*
X144751243Y-36613581D01*
X144852175Y-36650234D01*
X144818850Y-36658414D01*
X144751243Y-36686419D01*
X144735866Y-36816918D01*
X145045000Y-37126052D01*
X145354134Y-36816918D01*
X145338757Y-36686419D01*
X145237825Y-36649766D01*
X145271150Y-36641586D01*
X145338757Y-36613581D01*
X145354134Y-36483082D01*
X146645866Y-36483082D01*
X146661243Y-36613581D01*
X146762175Y-36650234D01*
X146728850Y-36658414D01*
X146661243Y-36686419D01*
X146645866Y-36816918D01*
X146955000Y-37126052D01*
X147264134Y-36816918D01*
X147248757Y-36686419D01*
X147147825Y-36649766D01*
X147181150Y-36641586D01*
X147248757Y-36613581D01*
X147264134Y-36483082D01*
X146955000Y-36173948D01*
X146645866Y-36483082D01*
X145354134Y-36483082D01*
X145045000Y-36173948D01*
X144735866Y-36483082D01*
X142306000Y-36483082D01*
X142306000Y-35963412D01*
X144365709Y-35963412D01*
X144371623Y-36096638D01*
X144403414Y-36226150D01*
X144431419Y-36293757D01*
X144561918Y-36309134D01*
X144871052Y-36000000D01*
X145218948Y-36000000D01*
X145528082Y-36309134D01*
X145658581Y-36293757D01*
X145704101Y-36168408D01*
X145724291Y-36036588D01*
X145721043Y-35963412D01*
X146275709Y-35963412D01*
X146281623Y-36096638D01*
X146313414Y-36226150D01*
X146341419Y-36293757D01*
X146471918Y-36309134D01*
X146781052Y-36000000D01*
X147128948Y-36000000D01*
X147438082Y-36309134D01*
X147568581Y-36293757D01*
X147614101Y-36168408D01*
X147634291Y-36036588D01*
X147628377Y-35903362D01*
X147596586Y-35773850D01*
X147568581Y-35706243D01*
X147438082Y-35690866D01*
X147128948Y-36000000D01*
X146781052Y-36000000D01*
X146471918Y-35690866D01*
X146341419Y-35706243D01*
X146295899Y-35831592D01*
X146275709Y-35963412D01*
X145721043Y-35963412D01*
X145718377Y-35903362D01*
X145686586Y-35773850D01*
X145658581Y-35706243D01*
X145528082Y-35690866D01*
X145218948Y-36000000D01*
X144871052Y-36000000D01*
X144561918Y-35690866D01*
X144431419Y-35706243D01*
X144385899Y-35831592D01*
X144365709Y-35963412D01*
X142306000Y-35963412D01*
X142306000Y-35183082D01*
X144735866Y-35183082D01*
X144751243Y-35313581D01*
X144852175Y-35350234D01*
X144818850Y-35358414D01*
X144751243Y-35386419D01*
X144735866Y-35516918D01*
X145045000Y-35826052D01*
X145354134Y-35516918D01*
X145338757Y-35386419D01*
X145237825Y-35349766D01*
X145271150Y-35341586D01*
X145338757Y-35313581D01*
X145354134Y-35183082D01*
X146645866Y-35183082D01*
X146661243Y-35313581D01*
X146762175Y-35350234D01*
X146728850Y-35358414D01*
X146661243Y-35386419D01*
X146645866Y-35516918D01*
X146955000Y-35826052D01*
X147264134Y-35516918D01*
X147248757Y-35386419D01*
X147147825Y-35349766D01*
X147181150Y-35341586D01*
X147248757Y-35313581D01*
X147264134Y-35183082D01*
X146955000Y-34873948D01*
X146645866Y-35183082D01*
X145354134Y-35183082D01*
X145045000Y-34873948D01*
X144735866Y-35183082D01*
X142306000Y-35183082D01*
X142306000Y-34698501D01*
X142341089Y-34663412D01*
X144365709Y-34663412D01*
X144371623Y-34796638D01*
X144403414Y-34926150D01*
X144431419Y-34993757D01*
X144561918Y-35009134D01*
X144871052Y-34700000D01*
X145218948Y-34700000D01*
X145528082Y-35009134D01*
X145658581Y-34993757D01*
X145704101Y-34868408D01*
X145724291Y-34736588D01*
X145721043Y-34663412D01*
X146275709Y-34663412D01*
X146281623Y-34796638D01*
X146313414Y-34926150D01*
X146341419Y-34993757D01*
X146471918Y-35009134D01*
X146781052Y-34700000D01*
X147128948Y-34700000D01*
X147438082Y-35009134D01*
X147568581Y-34993757D01*
X147614101Y-34868408D01*
X147629863Y-34765492D01*
X154819000Y-34765492D01*
X154819000Y-35234508D01*
X154910500Y-35694512D01*
X155089985Y-36127827D01*
X155350556Y-36517799D01*
X155682201Y-36849444D01*
X156072173Y-37110015D01*
X156505488Y-37289500D01*
X156965492Y-37381000D01*
X157434508Y-37381000D01*
X157894512Y-37289500D01*
X158327827Y-37110015D01*
X158717799Y-36849444D01*
X159049444Y-36517799D01*
X159310015Y-36127827D01*
X159489500Y-35694512D01*
X159581000Y-35234508D01*
X159581000Y-34765492D01*
X159489500Y-34305488D01*
X159310015Y-33872173D01*
X159049444Y-33482201D01*
X158717799Y-33150556D01*
X158327827Y-32889985D01*
X157894512Y-32710500D01*
X157434508Y-32619000D01*
X156965492Y-32619000D01*
X156505488Y-32710500D01*
X156072173Y-32889985D01*
X155682201Y-33150556D01*
X155350556Y-33482201D01*
X155089985Y-33872173D01*
X154910500Y-34305488D01*
X154819000Y-34765492D01*
X147629863Y-34765492D01*
X147634291Y-34736588D01*
X147628377Y-34603362D01*
X147596586Y-34473850D01*
X147568581Y-34406243D01*
X147438082Y-34390866D01*
X147128948Y-34700000D01*
X146781052Y-34700000D01*
X146471918Y-34390866D01*
X146341419Y-34406243D01*
X146295899Y-34531592D01*
X146275709Y-34663412D01*
X145721043Y-34663412D01*
X145718377Y-34603362D01*
X145686586Y-34473850D01*
X145658581Y-34406243D01*
X145528082Y-34390866D01*
X145218948Y-34700000D01*
X144871052Y-34700000D01*
X144561918Y-34390866D01*
X144431419Y-34406243D01*
X144385899Y-34531592D01*
X144365709Y-34663412D01*
X142341089Y-34663412D01*
X142406642Y-34597859D01*
X142492113Y-34469942D01*
X142550987Y-34327809D01*
X142573044Y-34216918D01*
X144735866Y-34216918D01*
X145045000Y-34526052D01*
X145354134Y-34216918D01*
X146645866Y-34216918D01*
X146955000Y-34526052D01*
X147264134Y-34216918D01*
X147248757Y-34086419D01*
X147123408Y-34040899D01*
X146991588Y-34020709D01*
X146858362Y-34026623D01*
X146728850Y-34058414D01*
X146661243Y-34086419D01*
X146645866Y-34216918D01*
X145354134Y-34216918D01*
X145338757Y-34086419D01*
X145213408Y-34040899D01*
X145081588Y-34020709D01*
X144948362Y-34026623D01*
X144818850Y-34058414D01*
X144751243Y-34086419D01*
X144735866Y-34216918D01*
X142573044Y-34216918D01*
X142581000Y-34176922D01*
X142581000Y-34023078D01*
X142550987Y-33872191D01*
X142492113Y-33730058D01*
X142406642Y-33602141D01*
X142297859Y-33493358D01*
X142169942Y-33407887D01*
X142027809Y-33349013D01*
X141876922Y-33319000D01*
X141723078Y-33319000D01*
X141572191Y-33349013D01*
X141430058Y-33407887D01*
X141302141Y-33493358D01*
X141193358Y-33602141D01*
X141107887Y-33730058D01*
X141049013Y-33872191D01*
X141019000Y-34023078D01*
X141019000Y-34176922D01*
X141049013Y-34327809D01*
X141107887Y-34469942D01*
X141193358Y-34597859D01*
X141294001Y-34698502D01*
X141294000Y-39390408D01*
X136490409Y-44194000D01*
X133598501Y-44194000D01*
X133497859Y-44093358D01*
X133369942Y-44007887D01*
X133227809Y-43949013D01*
X133076922Y-43919000D01*
X132923078Y-43919000D01*
X132772191Y-43949013D01*
X132630058Y-44007887D01*
X132502141Y-44093358D01*
X132393358Y-44202141D01*
X132307887Y-44330058D01*
X132249013Y-44472191D01*
X132219000Y-44623078D01*
X125057843Y-44623078D01*
X125057843Y-44349999D01*
X125045683Y-44226538D01*
X125009671Y-44107821D01*
X124951190Y-43998411D01*
X124872488Y-43902512D01*
X124776589Y-43823810D01*
X124667179Y-43765329D01*
X124548462Y-43729317D01*
X124425001Y-43717157D01*
X123174999Y-43717157D01*
X123051538Y-43729317D01*
X122932821Y-43765329D01*
X122823411Y-43823810D01*
X122727512Y-43902512D01*
X122648810Y-43998411D01*
X122590329Y-44107821D01*
X122554317Y-44226538D01*
X122542157Y-44349999D01*
X122542157Y-45050001D01*
X122554317Y-45173462D01*
X122590329Y-45292179D01*
X122648810Y-45401589D01*
X122727512Y-45497488D01*
X122823411Y-45576190D01*
X122932821Y-45634671D01*
X123051538Y-45670683D01*
X123174999Y-45682843D01*
X123357434Y-45682843D01*
X123204006Y-45716730D01*
X123018347Y-45798246D01*
X122852159Y-45914416D01*
X122711828Y-46060776D01*
X122602746Y-46231700D01*
X122537187Y-46419013D01*
X119627000Y-46419013D01*
X119627000Y-36980987D01*
X122537187Y-36980987D01*
X122602746Y-37168300D01*
X122711828Y-37339224D01*
X122852159Y-37485584D01*
X123018347Y-37601754D01*
X123204006Y-37683270D01*
X123402000Y-37727000D01*
X123677000Y-37727000D01*
X123677000Y-36823000D01*
X123923000Y-36823000D01*
X123923000Y-37727000D01*
X124198000Y-37727000D01*
X124395994Y-37683270D01*
X124581653Y-37601754D01*
X124747841Y-37485584D01*
X124888172Y-37339224D01*
X124997254Y-37168300D01*
X125062813Y-36980987D01*
X124986993Y-36823000D01*
X123923000Y-36823000D01*
X123677000Y-36823000D01*
X122613007Y-36823000D01*
X122537187Y-36980987D01*
X119627000Y-36980987D01*
X119627000Y-36419013D01*
X122537187Y-36419013D01*
X122613007Y-36577000D01*
X123677000Y-36577000D01*
X123677000Y-36557000D01*
X123923000Y-36557000D01*
X123923000Y-36577000D01*
X124986993Y-36577000D01*
X125062813Y-36419013D01*
X124997254Y-36231700D01*
X124888172Y-36060776D01*
X124747841Y-35914416D01*
X124581653Y-35798246D01*
X124395994Y-35716730D01*
X124242566Y-35682843D01*
X124425001Y-35682843D01*
X124548462Y-35670683D01*
X124667179Y-35634671D01*
X124776589Y-35576190D01*
X124872488Y-35497488D01*
X124951190Y-35401589D01*
X125009671Y-35292179D01*
X125045683Y-35173462D01*
X125057843Y-35050001D01*
X125057843Y-34349999D01*
X125045683Y-34226538D01*
X125009671Y-34107821D01*
X124951190Y-33998411D01*
X124872488Y-33902512D01*
X124776589Y-33823810D01*
X124667179Y-33765329D01*
X124548462Y-33729317D01*
X124425001Y-33717157D01*
X123174999Y-33717157D01*
X123051538Y-33729317D01*
X122932821Y-33765329D01*
X122823411Y-33823810D01*
X122727512Y-33902512D01*
X122648810Y-33998411D01*
X122590329Y-34107821D01*
X122554317Y-34226538D01*
X122542157Y-34349999D01*
X122542157Y-35050001D01*
X122554317Y-35173462D01*
X122590329Y-35292179D01*
X122648810Y-35401589D01*
X122727512Y-35497488D01*
X122823411Y-35576190D01*
X122932821Y-35634671D01*
X123051538Y-35670683D01*
X123174999Y-35682843D01*
X123357434Y-35682843D01*
X123204006Y-35716730D01*
X123018347Y-35798246D01*
X122852159Y-35914416D01*
X122711828Y-36060776D01*
X122602746Y-36231700D01*
X122537187Y-36419013D01*
X119627000Y-36419013D01*
X119627000Y-29627000D01*
X161473000Y-29627000D01*
X161473000Y-53573000D01*
G37*
X161473000Y-53573000D02*
X119627000Y-53573000D01*
X119627000Y-50914738D01*
X125619000Y-50914738D01*
X125619000Y-51285262D01*
X125691286Y-51648667D01*
X125833080Y-51990987D01*
X126038932Y-52299067D01*
X126300933Y-52561068D01*
X126609013Y-52766920D01*
X126951333Y-52908714D01*
X127314738Y-52981000D01*
X127685262Y-52981000D01*
X128048667Y-52908714D01*
X128390987Y-52766920D01*
X128699067Y-52561068D01*
X128961068Y-52299067D01*
X129166920Y-51990987D01*
X129308714Y-51648667D01*
X129362602Y-51377752D01*
X136096197Y-51377752D01*
X136263666Y-51635653D01*
X136602679Y-51806403D01*
X136968489Y-51907734D01*
X137347040Y-51935751D01*
X137723782Y-51889379D01*
X138084239Y-51770400D01*
X138336334Y-51635653D01*
X138503803Y-51377752D01*
X137300000Y-50173948D01*
X136096197Y-51377752D01*
X129362602Y-51377752D01*
X129381000Y-51285262D01*
X129381000Y-50914738D01*
X129308714Y-50551333D01*
X129166920Y-50209013D01*
X128961068Y-49900933D01*
X128699067Y-49638932D01*
X128390987Y-49433080D01*
X128048667Y-49291286D01*
X127685262Y-49219000D01*
X127314738Y-49219000D01*
X126951333Y-49291286D01*
X126609013Y-49433080D01*
X126300933Y-49638932D01*
X126038932Y-49900933D01*
X125833080Y-50209013D01*
X125691286Y-50551333D01*
X125619000Y-50914738D01*
X119627000Y-50914738D01*
X119627000Y-48014738D01*
X128819000Y-48014738D01*
X128819000Y-48385262D01*
X128891286Y-48748667D01*
X129033080Y-49090987D01*
X129238932Y-49399067D01*
X129500933Y-49661068D01*
X129809013Y-49866920D01*
X130151333Y-50008714D01*
X130514738Y-50081000D01*
X130885262Y-50081000D01*
X131055989Y-50047040D01*
X135364249Y-50047040D01*
X135410621Y-50423782D01*
X135529600Y-50784239D01*
X135664347Y-51036334D01*
X135922248Y-51203803D01*
X137126052Y-50000000D01*
X137473948Y-50000000D01*
X138677752Y-51203803D01*
X138935653Y-51036334D01*
X139106403Y-50697321D01*
X139207734Y-50331511D01*
X139235751Y-49952960D01*
X139189379Y-49576218D01*
X139070400Y-49215761D01*
X138935653Y-48963666D01*
X138677752Y-48796197D01*
X137473948Y-50000000D01*
X137126052Y-50000000D01*
X135922248Y-48796197D01*
X135664347Y-48963666D01*
X135493597Y-49302679D01*
X135392266Y-49668489D01*
X135364249Y-50047040D01*
X131055989Y-50047040D01*
X131248667Y-50008714D01*
X131590987Y-49866920D01*
X131899067Y-49661068D01*
X132161068Y-49399067D01*
X132366920Y-49090987D01*
X132508714Y-48748667D01*
X132533860Y-48622248D01*
X136096197Y-48622248D01*
X137300000Y-49826052D01*
X138503803Y-48622248D01*
X138336334Y-48364347D01*
X137997321Y-48193597D01*
X137631511Y-48092266D01*
X137252960Y-48064249D01*
X136876218Y-48110621D01*
X136515761Y-48229600D01*
X136263666Y-48364347D01*
X136096197Y-48622248D01*
X132533860Y-48622248D01*
X132581000Y-48385262D01*
X132581000Y-48014738D01*
X132508714Y-47651333D01*
X132366920Y-47309013D01*
X132161068Y-47000933D01*
X131899067Y-46738932D01*
X131590987Y-46533080D01*
X131248667Y-46391286D01*
X130885262Y-46319000D01*
X130514738Y-46319000D01*
X130151333Y-46391286D01*
X129809013Y-46533080D01*
X129500933Y-46738932D01*
X129238932Y-47000933D01*
X129033080Y-47309013D01*
X128891286Y-47651333D01*
X128819000Y-48014738D01*
X119627000Y-48014738D01*
X119627000Y-46980987D01*
X122537187Y-46980987D01*
X122602746Y-47168300D01*
X122711828Y-47339224D01*
X122852159Y-47485584D01*
X123018347Y-47601754D01*
X123204006Y-47683270D01*
X123402000Y-47727000D01*
X123677000Y-47727000D01*
X123677000Y-46823000D01*
X123923000Y-46823000D01*
X123923000Y-47727000D01*
X124198000Y-47727000D01*
X124395994Y-47683270D01*
X124581653Y-47601754D01*
X124747841Y-47485584D01*
X124888172Y-47339224D01*
X124997254Y-47168300D01*
X125062813Y-46980987D01*
X124986993Y-46823000D01*
X123923000Y-46823000D01*
X123677000Y-46823000D01*
X122613007Y-46823000D01*
X122537187Y-46980987D01*
X119627000Y-46980987D01*
X119627000Y-46419013D01*
X122537187Y-46419013D01*
X122613007Y-46577000D01*
X123677000Y-46577000D01*
X123677000Y-46557000D01*
X123923000Y-46557000D01*
X123923000Y-46577000D01*
X124986993Y-46577000D01*
X125062813Y-46419013D01*
X124997254Y-46231700D01*
X124888172Y-46060776D01*
X124747841Y-45914416D01*
X124581653Y-45798246D01*
X124507054Y-45765492D01*
X154719000Y-45765492D01*
X154719000Y-46234508D01*
X154810500Y-46694512D01*
X154989985Y-47127827D01*
X155250556Y-47517799D01*
X155582201Y-47849444D01*
X155972173Y-48110015D01*
X156405488Y-48289500D01*
X156865492Y-48381000D01*
X157334508Y-48381000D01*
X157794512Y-48289500D01*
X158227827Y-48110015D01*
X158617799Y-47849444D01*
X158949444Y-47517799D01*
X159210015Y-47127827D01*
X159389500Y-46694512D01*
X159481000Y-46234508D01*
X159481000Y-45765492D01*
X159389500Y-45305488D01*
X159210015Y-44872173D01*
X158949444Y-44482201D01*
X158617799Y-44150556D01*
X158227827Y-43889985D01*
X157794512Y-43710500D01*
X157334508Y-43619000D01*
X156865492Y-43619000D01*
X156405488Y-43710500D01*
X155972173Y-43889985D01*
X155582201Y-44150556D01*
X155250556Y-44482201D01*
X154989985Y-44872173D01*
X154810500Y-45305488D01*
X154719000Y-45765492D01*
X124507054Y-45765492D01*
X124395994Y-45716730D01*
X124242566Y-45682843D01*
X124425001Y-45682843D01*
X124548462Y-45670683D01*
X124667179Y-45634671D01*
X124776589Y-45576190D01*
X124872488Y-45497488D01*
X124951190Y-45401589D01*
X125009671Y-45292179D01*
X125045683Y-45173462D01*
X125057843Y-45050001D01*
X125057843Y-44623078D01*
X132219000Y-44623078D01*
X132219000Y-44776922D01*
X132249013Y-44927809D01*
X132307887Y-45069942D01*
X132393358Y-45197859D01*
X132502141Y-45306642D01*
X132630058Y-45392113D01*
X132772191Y-45450987D01*
X132923078Y-45481000D01*
X133076922Y-45481000D01*
X133227809Y-45450987D01*
X133369942Y-45392113D01*
X133497859Y-45306642D01*
X133598501Y-45206000D01*
X136675154Y-45206000D01*
X136700000Y-45208447D01*
X136724846Y-45206000D01*
X136724854Y-45206000D01*
X136799193Y-45198678D01*
X136894575Y-45169745D01*
X136982479Y-45122759D01*
X137059527Y-45059527D01*
X137075376Y-45040215D01*
X142140220Y-39975372D01*
X142159527Y-39959527D01*
X142222759Y-39882479D01*
X142269745Y-39794575D01*
X142298678Y-39699193D01*
X142306000Y-39624854D01*
X142306000Y-39624847D01*
X142308447Y-39600001D01*
X142306000Y-39575155D01*
X142306000Y-37783082D01*
X144735866Y-37783082D01*
X144751243Y-37913581D01*
X144876592Y-37959101D01*
X145008412Y-37979291D01*
X145141638Y-37973377D01*
X145271150Y-37941586D01*
X145338757Y-37913581D01*
X145354134Y-37783082D01*
X146645866Y-37783082D01*
X146661243Y-37913581D01*
X146786592Y-37959101D01*
X146918412Y-37979291D01*
X147051638Y-37973377D01*
X147181150Y-37941586D01*
X147248757Y-37913581D01*
X147264134Y-37783082D01*
X146955000Y-37473948D01*
X146645866Y-37783082D01*
X145354134Y-37783082D01*
X145045000Y-37473948D01*
X144735866Y-37783082D01*
X142306000Y-37783082D01*
X142306000Y-37263412D01*
X144365709Y-37263412D01*
X144371623Y-37396638D01*
X144403414Y-37526150D01*
X144431419Y-37593757D01*
X144561918Y-37609134D01*
X144871052Y-37300000D01*
X145218948Y-37300000D01*
X145528082Y-37609134D01*
X145658581Y-37593757D01*
X145704101Y-37468408D01*
X145724291Y-37336588D01*
X145721043Y-37263412D01*
X146275709Y-37263412D01*
X146281623Y-37396638D01*
X146313414Y-37526150D01*
X146341419Y-37593757D01*
X146471918Y-37609134D01*
X146781052Y-37300000D01*
X147128948Y-37300000D01*
X147438082Y-37609134D01*
X147568581Y-37593757D01*
X147614101Y-37468408D01*
X147634291Y-37336588D01*
X147628377Y-37203362D01*
X147596586Y-37073850D01*
X147568581Y-37006243D01*
X147438082Y-36990866D01*
X147128948Y-37300000D01*
X146781052Y-37300000D01*
X146471918Y-36990866D01*
X146341419Y-37006243D01*
X146295899Y-37131592D01*
X146275709Y-37263412D01*
X145721043Y-37263412D01*
X145718377Y-37203362D01*
X145686586Y-37073850D01*
X145658581Y-37006243D01*
X145528082Y-36990866D01*
X145218948Y-37300000D01*
X144871052Y-37300000D01*
X144561918Y-36990866D01*
X144431419Y-37006243D01*
X144385899Y-37131592D01*
X144365709Y-37263412D01*
X142306000Y-37263412D01*
X142306000Y-36483082D01*
X144735866Y-36483082D01*
X144751243Y-36613581D01*
X144852175Y-36650234D01*
X144818850Y-36658414D01*
X144751243Y-36686419D01*
X144735866Y-36816918D01*
X145045000Y-37126052D01*
X145354134Y-36816918D01*
X145338757Y-36686419D01*
X145237825Y-36649766D01*
X145271150Y-36641586D01*
X145338757Y-36613581D01*
X145354134Y-36483082D01*
X146645866Y-36483082D01*
X146661243Y-36613581D01*
X146762175Y-36650234D01*
X146728850Y-36658414D01*
X146661243Y-36686419D01*
X146645866Y-36816918D01*
X146955000Y-37126052D01*
X147264134Y-36816918D01*
X147248757Y-36686419D01*
X147147825Y-36649766D01*
X147181150Y-36641586D01*
X147248757Y-36613581D01*
X147264134Y-36483082D01*
X146955000Y-36173948D01*
X146645866Y-36483082D01*
X145354134Y-36483082D01*
X145045000Y-36173948D01*
X144735866Y-36483082D01*
X142306000Y-36483082D01*
X142306000Y-35963412D01*
X144365709Y-35963412D01*
X144371623Y-36096638D01*
X144403414Y-36226150D01*
X144431419Y-36293757D01*
X144561918Y-36309134D01*
X144871052Y-36000000D01*
X145218948Y-36000000D01*
X145528082Y-36309134D01*
X145658581Y-36293757D01*
X145704101Y-36168408D01*
X145724291Y-36036588D01*
X145721043Y-35963412D01*
X146275709Y-35963412D01*
X146281623Y-36096638D01*
X146313414Y-36226150D01*
X146341419Y-36293757D01*
X146471918Y-36309134D01*
X146781052Y-36000000D01*
X147128948Y-36000000D01*
X147438082Y-36309134D01*
X147568581Y-36293757D01*
X147614101Y-36168408D01*
X147634291Y-36036588D01*
X147628377Y-35903362D01*
X147596586Y-35773850D01*
X147568581Y-35706243D01*
X147438082Y-35690866D01*
X147128948Y-36000000D01*
X146781052Y-36000000D01*
X146471918Y-35690866D01*
X146341419Y-35706243D01*
X146295899Y-35831592D01*
X146275709Y-35963412D01*
X145721043Y-35963412D01*
X145718377Y-35903362D01*
X145686586Y-35773850D01*
X145658581Y-35706243D01*
X145528082Y-35690866D01*
X145218948Y-36000000D01*
X144871052Y-36000000D01*
X144561918Y-35690866D01*
X144431419Y-35706243D01*
X144385899Y-35831592D01*
X144365709Y-35963412D01*
X142306000Y-35963412D01*
X142306000Y-35183082D01*
X144735866Y-35183082D01*
X144751243Y-35313581D01*
X144852175Y-35350234D01*
X144818850Y-35358414D01*
X144751243Y-35386419D01*
X144735866Y-35516918D01*
X145045000Y-35826052D01*
X145354134Y-35516918D01*
X145338757Y-35386419D01*
X145237825Y-35349766D01*
X145271150Y-35341586D01*
X145338757Y-35313581D01*
X145354134Y-35183082D01*
X146645866Y-35183082D01*
X146661243Y-35313581D01*
X146762175Y-35350234D01*
X146728850Y-35358414D01*
X146661243Y-35386419D01*
X146645866Y-35516918D01*
X146955000Y-35826052D01*
X147264134Y-35516918D01*
X147248757Y-35386419D01*
X147147825Y-35349766D01*
X147181150Y-35341586D01*
X147248757Y-35313581D01*
X147264134Y-35183082D01*
X146955000Y-34873948D01*
X146645866Y-35183082D01*
X145354134Y-35183082D01*
X145045000Y-34873948D01*
X144735866Y-35183082D01*
X142306000Y-35183082D01*
X142306000Y-34698501D01*
X142341089Y-34663412D01*
X144365709Y-34663412D01*
X144371623Y-34796638D01*
X144403414Y-34926150D01*
X144431419Y-34993757D01*
X144561918Y-35009134D01*
X144871052Y-34700000D01*
X145218948Y-34700000D01*
X145528082Y-35009134D01*
X145658581Y-34993757D01*
X145704101Y-34868408D01*
X145724291Y-34736588D01*
X145721043Y-34663412D01*
X146275709Y-34663412D01*
X146281623Y-34796638D01*
X146313414Y-34926150D01*
X146341419Y-34993757D01*
X146471918Y-35009134D01*
X146781052Y-34700000D01*
X147128948Y-34700000D01*
X147438082Y-35009134D01*
X147568581Y-34993757D01*
X147614101Y-34868408D01*
X147629863Y-34765492D01*
X154819000Y-34765492D01*
X154819000Y-35234508D01*
X154910500Y-35694512D01*
X155089985Y-36127827D01*
X155350556Y-36517799D01*
X155682201Y-36849444D01*
X156072173Y-37110015D01*
X156505488Y-37289500D01*
X156965492Y-37381000D01*
X157434508Y-37381000D01*
X157894512Y-37289500D01*
X158327827Y-37110015D01*
X158717799Y-36849444D01*
X159049444Y-36517799D01*
X159310015Y-36127827D01*
X159489500Y-35694512D01*
X159581000Y-35234508D01*
X159581000Y-34765492D01*
X159489500Y-34305488D01*
X159310015Y-33872173D01*
X159049444Y-33482201D01*
X158717799Y-33150556D01*
X158327827Y-32889985D01*
X157894512Y-32710500D01*
X157434508Y-32619000D01*
X156965492Y-32619000D01*
X156505488Y-32710500D01*
X156072173Y-32889985D01*
X155682201Y-33150556D01*
X155350556Y-33482201D01*
X155089985Y-33872173D01*
X154910500Y-34305488D01*
X154819000Y-34765492D01*
X147629863Y-34765492D01*
X147634291Y-34736588D01*
X147628377Y-34603362D01*
X147596586Y-34473850D01*
X147568581Y-34406243D01*
X147438082Y-34390866D01*
X147128948Y-34700000D01*
X146781052Y-34700000D01*
X146471918Y-34390866D01*
X146341419Y-34406243D01*
X146295899Y-34531592D01*
X146275709Y-34663412D01*
X145721043Y-34663412D01*
X145718377Y-34603362D01*
X145686586Y-34473850D01*
X145658581Y-34406243D01*
X145528082Y-34390866D01*
X145218948Y-34700000D01*
X144871052Y-34700000D01*
X144561918Y-34390866D01*
X144431419Y-34406243D01*
X144385899Y-34531592D01*
X144365709Y-34663412D01*
X142341089Y-34663412D01*
X142406642Y-34597859D01*
X142492113Y-34469942D01*
X142550987Y-34327809D01*
X142573044Y-34216918D01*
X144735866Y-34216918D01*
X145045000Y-34526052D01*
X145354134Y-34216918D01*
X146645866Y-34216918D01*
X146955000Y-34526052D01*
X147264134Y-34216918D01*
X147248757Y-34086419D01*
X147123408Y-34040899D01*
X146991588Y-34020709D01*
X146858362Y-34026623D01*
X146728850Y-34058414D01*
X146661243Y-34086419D01*
X146645866Y-34216918D01*
X145354134Y-34216918D01*
X145338757Y-34086419D01*
X145213408Y-34040899D01*
X145081588Y-34020709D01*
X144948362Y-34026623D01*
X144818850Y-34058414D01*
X144751243Y-34086419D01*
X144735866Y-34216918D01*
X142573044Y-34216918D01*
X142581000Y-34176922D01*
X142581000Y-34023078D01*
X142550987Y-33872191D01*
X142492113Y-33730058D01*
X142406642Y-33602141D01*
X142297859Y-33493358D01*
X142169942Y-33407887D01*
X142027809Y-33349013D01*
X141876922Y-33319000D01*
X141723078Y-33319000D01*
X141572191Y-33349013D01*
X141430058Y-33407887D01*
X141302141Y-33493358D01*
X141193358Y-33602141D01*
X141107887Y-33730058D01*
X141049013Y-33872191D01*
X141019000Y-34023078D01*
X141019000Y-34176922D01*
X141049013Y-34327809D01*
X141107887Y-34469942D01*
X141193358Y-34597859D01*
X141294001Y-34698502D01*
X141294000Y-39390408D01*
X136490409Y-44194000D01*
X133598501Y-44194000D01*
X133497859Y-44093358D01*
X133369942Y-44007887D01*
X133227809Y-43949013D01*
X133076922Y-43919000D01*
X132923078Y-43919000D01*
X132772191Y-43949013D01*
X132630058Y-44007887D01*
X132502141Y-44093358D01*
X132393358Y-44202141D01*
X132307887Y-44330058D01*
X132249013Y-44472191D01*
X132219000Y-44623078D01*
X125057843Y-44623078D01*
X125057843Y-44349999D01*
X125045683Y-44226538D01*
X125009671Y-44107821D01*
X124951190Y-43998411D01*
X124872488Y-43902512D01*
X124776589Y-43823810D01*
X124667179Y-43765329D01*
X124548462Y-43729317D01*
X124425001Y-43717157D01*
X123174999Y-43717157D01*
X123051538Y-43729317D01*
X122932821Y-43765329D01*
X122823411Y-43823810D01*
X122727512Y-43902512D01*
X122648810Y-43998411D01*
X122590329Y-44107821D01*
X122554317Y-44226538D01*
X122542157Y-44349999D01*
X122542157Y-45050001D01*
X122554317Y-45173462D01*
X122590329Y-45292179D01*
X122648810Y-45401589D01*
X122727512Y-45497488D01*
X122823411Y-45576190D01*
X122932821Y-45634671D01*
X123051538Y-45670683D01*
X123174999Y-45682843D01*
X123357434Y-45682843D01*
X123204006Y-45716730D01*
X123018347Y-45798246D01*
X122852159Y-45914416D01*
X122711828Y-46060776D01*
X122602746Y-46231700D01*
X122537187Y-46419013D01*
X119627000Y-46419013D01*
X119627000Y-36980987D01*
X122537187Y-36980987D01*
X122602746Y-37168300D01*
X122711828Y-37339224D01*
X122852159Y-37485584D01*
X123018347Y-37601754D01*
X123204006Y-37683270D01*
X123402000Y-37727000D01*
X123677000Y-37727000D01*
X123677000Y-36823000D01*
X123923000Y-36823000D01*
X123923000Y-37727000D01*
X124198000Y-37727000D01*
X124395994Y-37683270D01*
X124581653Y-37601754D01*
X124747841Y-37485584D01*
X124888172Y-37339224D01*
X124997254Y-37168300D01*
X125062813Y-36980987D01*
X124986993Y-36823000D01*
X123923000Y-36823000D01*
X123677000Y-36823000D01*
X122613007Y-36823000D01*
X122537187Y-36980987D01*
X119627000Y-36980987D01*
X119627000Y-36419013D01*
X122537187Y-36419013D01*
X122613007Y-36577000D01*
X123677000Y-36577000D01*
X123677000Y-36557000D01*
X123923000Y-36557000D01*
X123923000Y-36577000D01*
X124986993Y-36577000D01*
X125062813Y-36419013D01*
X124997254Y-36231700D01*
X124888172Y-36060776D01*
X124747841Y-35914416D01*
X124581653Y-35798246D01*
X124395994Y-35716730D01*
X124242566Y-35682843D01*
X124425001Y-35682843D01*
X124548462Y-35670683D01*
X124667179Y-35634671D01*
X124776589Y-35576190D01*
X124872488Y-35497488D01*
X124951190Y-35401589D01*
X125009671Y-35292179D01*
X125045683Y-35173462D01*
X125057843Y-35050001D01*
X125057843Y-34349999D01*
X125045683Y-34226538D01*
X125009671Y-34107821D01*
X124951190Y-33998411D01*
X124872488Y-33902512D01*
X124776589Y-33823810D01*
X124667179Y-33765329D01*
X124548462Y-33729317D01*
X124425001Y-33717157D01*
X123174999Y-33717157D01*
X123051538Y-33729317D01*
X122932821Y-33765329D01*
X122823411Y-33823810D01*
X122727512Y-33902512D01*
X122648810Y-33998411D01*
X122590329Y-34107821D01*
X122554317Y-34226538D01*
X122542157Y-34349999D01*
X122542157Y-35050001D01*
X122554317Y-35173462D01*
X122590329Y-35292179D01*
X122648810Y-35401589D01*
X122727512Y-35497488D01*
X122823411Y-35576190D01*
X122932821Y-35634671D01*
X123051538Y-35670683D01*
X123174999Y-35682843D01*
X123357434Y-35682843D01*
X123204006Y-35716730D01*
X123018347Y-35798246D01*
X122852159Y-35914416D01*
X122711828Y-36060776D01*
X122602746Y-36231700D01*
X122537187Y-36419013D01*
X119627000Y-36419013D01*
X119627000Y-29627000D01*
X161473000Y-29627000D01*
X161473000Y-53573000D01*
M02*
