G04 #@! TF.GenerationSoftware,KiCad,Pcbnew,(5.1.5)-3*
G04 #@! TF.CreationDate,2020-10-29T10:50:42+02:00*
G04 #@! TF.ProjectId,al8843,616c3838-3433-42e6-9b69-6361645f7063,rev?*
G04 #@! TF.SameCoordinates,Original*
G04 #@! TF.FileFunction,Legend,Top*
G04 #@! TF.FilePolarity,Positive*
%FSLAX46Y46*%
G04 Gerber Fmt 4.6, Leading zero omitted, Abs format (unit mm)*
G04 Created by KiCad (PCBNEW (5.1.5)-3) date 2020-10-29 10:50:42*
%MOMM*%
%LPD*%
G04 APERTURE LIST*
%ADD10C,0.150000*%
%ADD11C,0.300000*%
%ADD12C,0.120000*%
G04 APERTURE END LIST*
D10*
X155797619Y-31852380D02*
X155321428Y-31852380D01*
X155321428Y-30852380D01*
X156130952Y-31328571D02*
X156464285Y-31328571D01*
X156607142Y-31852380D02*
X156130952Y-31852380D01*
X156130952Y-30852380D01*
X156607142Y-30852380D01*
X157035714Y-31852380D02*
X157035714Y-30852380D01*
X157273809Y-30852380D01*
X157416666Y-30900000D01*
X157511904Y-30995238D01*
X157559523Y-31090476D01*
X157607142Y-31280952D01*
X157607142Y-31423809D01*
X157559523Y-31614285D01*
X157511904Y-31709523D01*
X157416666Y-31804761D01*
X157273809Y-31852380D01*
X157035714Y-31852380D01*
X157797619Y-31947619D02*
X158559523Y-31947619D01*
X158750000Y-31566666D02*
X159226190Y-31566666D01*
X158654761Y-31852380D02*
X158988095Y-30852380D01*
X159321428Y-31852380D01*
X155576190Y-50002380D02*
X155100000Y-50002380D01*
X155100000Y-49002380D01*
X155909523Y-49478571D02*
X156242857Y-49478571D01*
X156385714Y-50002380D02*
X155909523Y-50002380D01*
X155909523Y-49002380D01*
X156385714Y-49002380D01*
X156814285Y-50002380D02*
X156814285Y-49002380D01*
X157052380Y-49002380D01*
X157195238Y-49050000D01*
X157290476Y-49145238D01*
X157338095Y-49240476D01*
X157385714Y-49430952D01*
X157385714Y-49573809D01*
X157338095Y-49764285D01*
X157290476Y-49859523D01*
X157195238Y-49954761D01*
X157052380Y-50002380D01*
X156814285Y-50002380D01*
X157576190Y-50097619D02*
X158338095Y-50097619D01*
X158576190Y-50002380D02*
X158576190Y-49002380D01*
X159147619Y-50002380D02*
X158719047Y-49430952D01*
X159147619Y-49002380D02*
X158576190Y-49573809D01*
D11*
X122157142Y-39450000D02*
X122014285Y-39378571D01*
X121800000Y-39378571D01*
X121585714Y-39450000D01*
X121442857Y-39592857D01*
X121371428Y-39735714D01*
X121300000Y-40021428D01*
X121300000Y-40235714D01*
X121371428Y-40521428D01*
X121442857Y-40664285D01*
X121585714Y-40807142D01*
X121800000Y-40878571D01*
X121942857Y-40878571D01*
X122157142Y-40807142D01*
X122228571Y-40735714D01*
X122228571Y-40235714D01*
X121942857Y-40235714D01*
X122871428Y-40878571D02*
X122871428Y-39378571D01*
X123728571Y-40878571D01*
X123728571Y-39378571D01*
X124442857Y-40878571D02*
X124442857Y-39378571D01*
X124800000Y-39378571D01*
X125014285Y-39450000D01*
X125157142Y-39592857D01*
X125228571Y-39735714D01*
X125300000Y-40021428D01*
X125300000Y-40235714D01*
X125228571Y-40521428D01*
X125157142Y-40664285D01*
X125014285Y-40807142D01*
X124800000Y-40878571D01*
X124442857Y-40878571D01*
X120828571Y-31157142D02*
X121971428Y-31157142D01*
X121400000Y-31728571D02*
X121400000Y-30585714D01*
D12*
X131010000Y-35497936D02*
X131010000Y-36702064D01*
X129190000Y-35497936D02*
X129190000Y-36702064D01*
X126790000Y-35497936D02*
X126790000Y-36702064D01*
X128610000Y-35497936D02*
X128610000Y-36702064D01*
X141010000Y-34897936D02*
X141010000Y-36102064D01*
X139190000Y-34897936D02*
X139190000Y-36102064D01*
X138510000Y-34897936D02*
X138510000Y-36102064D01*
X136690000Y-34897936D02*
X136690000Y-36102064D01*
X154990000Y-39797936D02*
X154990000Y-41002064D01*
X156810000Y-39797936D02*
X156810000Y-41002064D01*
X157490000Y-39797936D02*
X157490000Y-41002064D01*
X159310000Y-39797936D02*
X159310000Y-41002064D01*
X136150000Y-33300000D02*
X131850000Y-33300000D01*
X131850000Y-33300000D02*
X131850000Y-39000000D01*
X136150000Y-33300000D02*
X136150000Y-39000000D01*
X125610000Y-32640000D02*
X120890000Y-32640000D01*
X120890000Y-32640000D02*
X120890000Y-38760000D01*
X120890000Y-38760000D02*
X125610000Y-38760000D01*
X125610000Y-38760000D02*
X125610000Y-32640000D01*
X125610000Y-34400000D02*
X125810000Y-34400000D01*
X125810000Y-34400000D02*
X125810000Y-34100000D01*
X125810000Y-34100000D02*
X125610000Y-34100000D01*
X125710000Y-34400000D02*
X125710000Y-34100000D01*
X125610000Y-35200000D02*
X125000000Y-35200000D01*
X125000000Y-35200000D02*
X125000000Y-33250000D01*
X125000000Y-33250000D02*
X121500000Y-33250000D01*
X121500000Y-33250000D02*
X121500000Y-38150000D01*
X121500000Y-38150000D02*
X125000000Y-38150000D01*
X125000000Y-38150000D02*
X125000000Y-36200000D01*
X125000000Y-36200000D02*
X125610000Y-36200000D01*
X124300000Y-32640000D02*
X124300000Y-33250000D01*
X123000000Y-32640000D02*
X123000000Y-33250000D01*
X124300000Y-38760000D02*
X124300000Y-38150000D01*
X123000000Y-38760000D02*
X123000000Y-38150000D01*
X121500000Y-35600000D02*
X122000000Y-35600000D01*
X122000000Y-35600000D02*
X122000000Y-35800000D01*
X122000000Y-35800000D02*
X121500000Y-35800000D01*
X121500000Y-35700000D02*
X122000000Y-35700000D01*
X125910000Y-33590000D02*
X125910000Y-32340000D01*
X125910000Y-32340000D02*
X124660000Y-32340000D01*
X125910000Y-42340000D02*
X124660000Y-42340000D01*
X125910000Y-43590000D02*
X125910000Y-42340000D01*
X121500000Y-45700000D02*
X122000000Y-45700000D01*
X122000000Y-45800000D02*
X121500000Y-45800000D01*
X122000000Y-45600000D02*
X122000000Y-45800000D01*
X121500000Y-45600000D02*
X122000000Y-45600000D01*
X123000000Y-48760000D02*
X123000000Y-48150000D01*
X124300000Y-48760000D02*
X124300000Y-48150000D01*
X123000000Y-42640000D02*
X123000000Y-43250000D01*
X124300000Y-42640000D02*
X124300000Y-43250000D01*
X125000000Y-46200000D02*
X125610000Y-46200000D01*
X125000000Y-48150000D02*
X125000000Y-46200000D01*
X121500000Y-48150000D02*
X125000000Y-48150000D01*
X121500000Y-43250000D02*
X121500000Y-48150000D01*
X125000000Y-43250000D02*
X121500000Y-43250000D01*
X125000000Y-45200000D02*
X125000000Y-43250000D01*
X125610000Y-45200000D02*
X125000000Y-45200000D01*
X125710000Y-44400000D02*
X125710000Y-44100000D01*
X125810000Y-44100000D02*
X125610000Y-44100000D01*
X125810000Y-44400000D02*
X125810000Y-44100000D01*
X125610000Y-44400000D02*
X125810000Y-44400000D01*
X125610000Y-48760000D02*
X125610000Y-42640000D01*
X120890000Y-48760000D02*
X125610000Y-48760000D01*
X120890000Y-42640000D02*
X120890000Y-48760000D01*
X125610000Y-42640000D02*
X120890000Y-42640000D01*
X159450000Y-35000000D02*
G75*
G03X159450000Y-35000000I-2250000J0D01*
G01*
X159350000Y-46000000D02*
G75*
G03X159350000Y-46000000I-2250000J0D01*
G01*
X142250000Y-39600000D02*
X153750000Y-39600000D01*
X141600000Y-40250000D02*
X141600000Y-43000000D01*
X153750000Y-52400000D02*
X142250000Y-52400000D01*
X154400000Y-40250000D02*
X154400000Y-43000000D01*
X141600000Y-49000000D02*
X141600000Y-51750000D01*
X154400000Y-49000000D02*
X154400000Y-51750000D01*
X141600000Y-40250000D02*
G75*
G02X142250000Y-39600000I650000J0D01*
G01*
X142250000Y-52400000D02*
G75*
G02X141600000Y-51750000I0J650000D01*
G01*
X154400000Y-51750000D02*
G75*
G02X153750000Y-52400000I-650000J0D01*
G01*
X153750000Y-39600000D02*
G75*
G02X154400000Y-40250000I0J-650000D01*
G01*
X131202064Y-45610000D02*
X129997936Y-45610000D01*
X131202064Y-43790000D02*
X129997936Y-43790000D01*
X146402064Y-32510000D02*
X145197936Y-32510000D01*
X146402064Y-30690000D02*
X145197936Y-30690000D01*
X132400000Y-48200000D02*
G75*
G03X132400000Y-48200000I-1700000J0D01*
G01*
X129200000Y-51100000D02*
G75*
G03X129200000Y-51100000I-1700000J0D01*
G01*
X139000000Y-50000000D02*
G75*
G03X139000000Y-50000000I-1700000J0D01*
G01*
X149450000Y-38560000D02*
X144050000Y-38560000D01*
X147950000Y-33440000D02*
X144050000Y-33440000D01*
D10*
X129883333Y-33457142D02*
X129835714Y-33504761D01*
X129692857Y-33552380D01*
X129597619Y-33552380D01*
X129454761Y-33504761D01*
X129359523Y-33409523D01*
X129311904Y-33314285D01*
X129264285Y-33123809D01*
X129264285Y-32980952D01*
X129311904Y-32790476D01*
X129359523Y-32695238D01*
X129454761Y-32600000D01*
X129597619Y-32552380D01*
X129692857Y-32552380D01*
X129835714Y-32600000D01*
X129883333Y-32647619D01*
X130835714Y-33552380D02*
X130264285Y-33552380D01*
X130550000Y-33552380D02*
X130550000Y-32552380D01*
X130454761Y-32695238D01*
X130359523Y-32790476D01*
X130264285Y-32838095D01*
X127533333Y-33507142D02*
X127485714Y-33554761D01*
X127342857Y-33602380D01*
X127247619Y-33602380D01*
X127104761Y-33554761D01*
X127009523Y-33459523D01*
X126961904Y-33364285D01*
X126914285Y-33173809D01*
X126914285Y-33030952D01*
X126961904Y-32840476D01*
X127009523Y-32745238D01*
X127104761Y-32650000D01*
X127247619Y-32602380D01*
X127342857Y-32602380D01*
X127485714Y-32650000D01*
X127533333Y-32697619D01*
X127914285Y-32697619D02*
X127961904Y-32650000D01*
X128057142Y-32602380D01*
X128295238Y-32602380D01*
X128390476Y-32650000D01*
X128438095Y-32697619D01*
X128485714Y-32792857D01*
X128485714Y-32888095D01*
X128438095Y-33030952D01*
X127866666Y-33602380D01*
X128485714Y-33602380D01*
X139507142Y-32316666D02*
X139554761Y-32364285D01*
X139602380Y-32507142D01*
X139602380Y-32602380D01*
X139554761Y-32745238D01*
X139459523Y-32840476D01*
X139364285Y-32888095D01*
X139173809Y-32935714D01*
X139030952Y-32935714D01*
X138840476Y-32888095D01*
X138745238Y-32840476D01*
X138650000Y-32745238D01*
X138602380Y-32602380D01*
X138602380Y-32507142D01*
X138650000Y-32364285D01*
X138697619Y-32316666D01*
X138602380Y-31983333D02*
X138602380Y-31364285D01*
X138983333Y-31697619D01*
X138983333Y-31554761D01*
X139030952Y-31459523D01*
X139078571Y-31411904D01*
X139173809Y-31364285D01*
X139411904Y-31364285D01*
X139507142Y-31411904D01*
X139554761Y-31459523D01*
X139602380Y-31554761D01*
X139602380Y-31840476D01*
X139554761Y-31935714D01*
X139507142Y-31983333D01*
X137957142Y-32266666D02*
X138004761Y-32314285D01*
X138052380Y-32457142D01*
X138052380Y-32552380D01*
X138004761Y-32695238D01*
X137909523Y-32790476D01*
X137814285Y-32838095D01*
X137623809Y-32885714D01*
X137480952Y-32885714D01*
X137290476Y-32838095D01*
X137195238Y-32790476D01*
X137100000Y-32695238D01*
X137052380Y-32552380D01*
X137052380Y-32457142D01*
X137100000Y-32314285D01*
X137147619Y-32266666D01*
X137385714Y-31409523D02*
X138052380Y-31409523D01*
X137004761Y-31647619D02*
X137719047Y-31885714D01*
X137719047Y-31266666D01*
X155183333Y-43757142D02*
X155135714Y-43804761D01*
X154992857Y-43852380D01*
X154897619Y-43852380D01*
X154754761Y-43804761D01*
X154659523Y-43709523D01*
X154611904Y-43614285D01*
X154564285Y-43423809D01*
X154564285Y-43280952D01*
X154611904Y-43090476D01*
X154659523Y-42995238D01*
X154754761Y-42900000D01*
X154897619Y-42852380D01*
X154992857Y-42852380D01*
X155135714Y-42900000D01*
X155183333Y-42947619D01*
X156088095Y-42852380D02*
X155611904Y-42852380D01*
X155564285Y-43328571D01*
X155611904Y-43280952D01*
X155707142Y-43233333D01*
X155945238Y-43233333D01*
X156040476Y-43280952D01*
X156088095Y-43328571D01*
X156135714Y-43423809D01*
X156135714Y-43661904D01*
X156088095Y-43757142D01*
X156040476Y-43804761D01*
X155945238Y-43852380D01*
X155707142Y-43852380D01*
X155611904Y-43804761D01*
X155564285Y-43757142D01*
X160657142Y-40566666D02*
X160704761Y-40614285D01*
X160752380Y-40757142D01*
X160752380Y-40852380D01*
X160704761Y-40995238D01*
X160609523Y-41090476D01*
X160514285Y-41138095D01*
X160323809Y-41185714D01*
X160180952Y-41185714D01*
X159990476Y-41138095D01*
X159895238Y-41090476D01*
X159800000Y-40995238D01*
X159752380Y-40852380D01*
X159752380Y-40757142D01*
X159800000Y-40614285D01*
X159847619Y-40566666D01*
X159752380Y-39709523D02*
X159752380Y-39900000D01*
X159800000Y-39995238D01*
X159847619Y-40042857D01*
X159990476Y-40138095D01*
X160180952Y-40185714D01*
X160561904Y-40185714D01*
X160657142Y-40138095D01*
X160704761Y-40090476D01*
X160752380Y-39995238D01*
X160752380Y-39804761D01*
X160704761Y-39709523D01*
X160657142Y-39661904D01*
X160561904Y-39614285D01*
X160323809Y-39614285D01*
X160228571Y-39661904D01*
X160180952Y-39709523D01*
X160133333Y-39804761D01*
X160133333Y-39995238D01*
X160180952Y-40090476D01*
X160228571Y-40138095D01*
X160323809Y-40185714D01*
X133261904Y-32952380D02*
X133261904Y-31952380D01*
X133500000Y-31952380D01*
X133642857Y-32000000D01*
X133738095Y-32095238D01*
X133785714Y-32190476D01*
X133833333Y-32380952D01*
X133833333Y-32523809D01*
X133785714Y-32714285D01*
X133738095Y-32809523D01*
X133642857Y-32904761D01*
X133500000Y-32952380D01*
X133261904Y-32952380D01*
X134785714Y-32952380D02*
X134214285Y-32952380D01*
X134500000Y-32952380D02*
X134500000Y-31952380D01*
X134404761Y-32095238D01*
X134309523Y-32190476D01*
X134214285Y-32238095D01*
X122540476Y-31652380D02*
X122540476Y-30652380D01*
X122921428Y-30652380D01*
X123016666Y-30700000D01*
X123064285Y-30747619D01*
X123111904Y-30842857D01*
X123111904Y-30985714D01*
X123064285Y-31080952D01*
X123016666Y-31128571D01*
X122921428Y-31176190D01*
X122540476Y-31176190D01*
X123730952Y-30652380D02*
X123921428Y-30652380D01*
X124016666Y-30700000D01*
X124111904Y-30795238D01*
X124159523Y-30985714D01*
X124159523Y-31319047D01*
X124111904Y-31509523D01*
X124016666Y-31604761D01*
X123921428Y-31652380D01*
X123730952Y-31652380D01*
X123635714Y-31604761D01*
X123540476Y-31509523D01*
X123492857Y-31319047D01*
X123492857Y-30985714D01*
X123540476Y-30795238D01*
X123635714Y-30700000D01*
X123730952Y-30652380D01*
X124492857Y-30652380D02*
X124730952Y-31652380D01*
X124921428Y-30938095D01*
X125111904Y-31652380D01*
X125350000Y-30652380D01*
X125730952Y-31128571D02*
X126064285Y-31128571D01*
X126207142Y-31652380D02*
X125730952Y-31652380D01*
X125730952Y-30652380D01*
X126207142Y-30652380D01*
X127207142Y-31652380D02*
X126873809Y-31176190D01*
X126635714Y-31652380D02*
X126635714Y-30652380D01*
X127016666Y-30652380D01*
X127111904Y-30700000D01*
X127159523Y-30747619D01*
X127207142Y-30842857D01*
X127207142Y-30985714D01*
X127159523Y-31080952D01*
X127111904Y-31128571D01*
X127016666Y-31176190D01*
X126635714Y-31176190D01*
X122478571Y-50402380D02*
X122478571Y-49402380D01*
X122716666Y-49402380D01*
X122859523Y-49450000D01*
X122954761Y-49545238D01*
X123002380Y-49640476D01*
X123050000Y-49830952D01*
X123050000Y-49973809D01*
X123002380Y-50164285D01*
X122954761Y-50259523D01*
X122859523Y-50354761D01*
X122716666Y-50402380D01*
X122478571Y-50402380D01*
X123478571Y-50402380D02*
X123478571Y-49402380D01*
X123954761Y-50402380D02*
X123954761Y-49402380D01*
X124288095Y-50116666D01*
X124621428Y-49402380D01*
X124621428Y-50402380D01*
X159416666Y-36752380D02*
X159416666Y-37466666D01*
X159369047Y-37609523D01*
X159273809Y-37704761D01*
X159130952Y-37752380D01*
X159035714Y-37752380D01*
X159797619Y-36752380D02*
X160416666Y-36752380D01*
X160083333Y-37133333D01*
X160226190Y-37133333D01*
X160321428Y-37180952D01*
X160369047Y-37228571D01*
X160416666Y-37323809D01*
X160416666Y-37561904D01*
X160369047Y-37657142D01*
X160321428Y-37704761D01*
X160226190Y-37752380D01*
X159940476Y-37752380D01*
X159845238Y-37704761D01*
X159797619Y-37657142D01*
X159466666Y-43202380D02*
X159466666Y-43916666D01*
X159419047Y-44059523D01*
X159323809Y-44154761D01*
X159180952Y-44202380D01*
X159085714Y-44202380D01*
X160371428Y-43535714D02*
X160371428Y-44202380D01*
X160133333Y-43154761D02*
X159895238Y-43869047D01*
X160514285Y-43869047D01*
X139733333Y-45052380D02*
X139257142Y-45052380D01*
X139257142Y-44052380D01*
X140590476Y-45052380D02*
X140019047Y-45052380D01*
X140304761Y-45052380D02*
X140304761Y-44052380D01*
X140209523Y-44195238D01*
X140114285Y-44290476D01*
X140019047Y-44338095D01*
X128933333Y-43352380D02*
X128600000Y-42876190D01*
X128361904Y-43352380D02*
X128361904Y-42352380D01*
X128742857Y-42352380D01*
X128838095Y-42400000D01*
X128885714Y-42447619D01*
X128933333Y-42542857D01*
X128933333Y-42685714D01*
X128885714Y-42780952D01*
X128838095Y-42828571D01*
X128742857Y-42876190D01*
X128361904Y-42876190D01*
X129885714Y-43352380D02*
X129314285Y-43352380D01*
X129600000Y-43352380D02*
X129600000Y-42352380D01*
X129504761Y-42495238D01*
X129409523Y-42590476D01*
X129314285Y-42638095D01*
X149233333Y-32052380D02*
X148900000Y-31576190D01*
X148661904Y-32052380D02*
X148661904Y-31052380D01*
X149042857Y-31052380D01*
X149138095Y-31100000D01*
X149185714Y-31147619D01*
X149233333Y-31242857D01*
X149233333Y-31385714D01*
X149185714Y-31480952D01*
X149138095Y-31528571D01*
X149042857Y-31576190D01*
X148661904Y-31576190D01*
X149566666Y-31052380D02*
X150185714Y-31052380D01*
X149852380Y-31433333D01*
X149995238Y-31433333D01*
X150090476Y-31480952D01*
X150138095Y-31528571D01*
X150185714Y-31623809D01*
X150185714Y-31861904D01*
X150138095Y-31957142D01*
X150090476Y-32004761D01*
X149995238Y-32052380D01*
X149709523Y-32052380D01*
X149614285Y-32004761D01*
X149566666Y-31957142D01*
X133328571Y-47252380D02*
X133328571Y-46252380D01*
X133566666Y-46252380D01*
X133709523Y-46300000D01*
X133804761Y-46395238D01*
X133852380Y-46490476D01*
X133900000Y-46680952D01*
X133900000Y-46823809D01*
X133852380Y-47014285D01*
X133804761Y-47109523D01*
X133709523Y-47204761D01*
X133566666Y-47252380D01*
X133328571Y-47252380D01*
X134328571Y-47252380D02*
X134328571Y-46252380D01*
X134804761Y-47252380D02*
X134804761Y-46252380D01*
X135138095Y-46966666D01*
X135471428Y-46252380D01*
X135471428Y-47252380D01*
X129666666Y-51652380D02*
X130000000Y-52652380D01*
X130333333Y-51652380D01*
X131238095Y-52557142D02*
X131190476Y-52604761D01*
X131047619Y-52652380D01*
X130952380Y-52652380D01*
X130809523Y-52604761D01*
X130714285Y-52509523D01*
X130666666Y-52414285D01*
X130619047Y-52223809D01*
X130619047Y-52080952D01*
X130666666Y-51890476D01*
X130714285Y-51795238D01*
X130809523Y-51700000D01*
X130952380Y-51652380D01*
X131047619Y-51652380D01*
X131190476Y-51700000D01*
X131238095Y-51747619D01*
X132238095Y-52557142D02*
X132190476Y-52604761D01*
X132047619Y-52652380D01*
X131952380Y-52652380D01*
X131809523Y-52604761D01*
X131714285Y-52509523D01*
X131666666Y-52414285D01*
X131619047Y-52223809D01*
X131619047Y-52080952D01*
X131666666Y-51890476D01*
X131714285Y-51795238D01*
X131809523Y-51700000D01*
X131952380Y-51652380D01*
X132047619Y-51652380D01*
X132190476Y-51700000D01*
X132238095Y-51747619D01*
X137238095Y-52000000D02*
X137142857Y-51952380D01*
X137000000Y-51952380D01*
X136857142Y-52000000D01*
X136761904Y-52095238D01*
X136714285Y-52190476D01*
X136666666Y-52380952D01*
X136666666Y-52523809D01*
X136714285Y-52714285D01*
X136761904Y-52809523D01*
X136857142Y-52904761D01*
X137000000Y-52952380D01*
X137095238Y-52952380D01*
X137238095Y-52904761D01*
X137285714Y-52857142D01*
X137285714Y-52523809D01*
X137095238Y-52523809D01*
X137714285Y-52952380D02*
X137714285Y-51952380D01*
X138285714Y-52952380D01*
X138285714Y-51952380D01*
X138761904Y-52952380D02*
X138761904Y-51952380D01*
X139000000Y-51952380D01*
X139142857Y-52000000D01*
X139238095Y-52095238D01*
X139285714Y-52190476D01*
X139333333Y-52380952D01*
X139333333Y-52523809D01*
X139285714Y-52714285D01*
X139238095Y-52809523D01*
X139142857Y-52904761D01*
X139000000Y-52952380D01*
X138761904Y-52952380D01*
X150438095Y-33352380D02*
X150438095Y-34161904D01*
X150485714Y-34257142D01*
X150533333Y-34304761D01*
X150628571Y-34352380D01*
X150819047Y-34352380D01*
X150914285Y-34304761D01*
X150961904Y-34257142D01*
X151009523Y-34161904D01*
X151009523Y-33352380D01*
X152009523Y-34352380D02*
X151438095Y-34352380D01*
X151723809Y-34352380D02*
X151723809Y-33352380D01*
X151628571Y-33495238D01*
X151533333Y-33590476D01*
X151438095Y-33638095D01*
M02*
